<?xml version="1.0" encoding="utf-8"?>
<!-- Generator: Adobe Illustrator 16.0.0, SVG Export Plug-In . SVG Version: 6.00 Build 0)  -->
<!DOCTYPE svg PUBLIC "-//W3C//DTD SVG 1.1//EN" "http://www.w3.org/Graphics/SVG/1.1/DTD/svg11.dtd">
<svg version="1.1" id="Layer_1" xmlns="http://www.w3.org/2000/svg" xmlns:xlink="http://www.w3.org/1999/xlink" x="0px" y="0px"
	 width="314px" height="195px" viewBox="0 -0.069 314 195" enable-background="new 0 -0.069 314 195" xml:space="preserve">
<g id="Layer_1_1_">
	
		<linearGradient id="SVGID_1_" gradientUnits="userSpaceOnUse" x1="21.8232" y1="523.6543" x2="194.7471" y2="523.6543" gradientTransform="matrix(1 0 0 1 49.8896 -378.2813)">
		<stop  offset="0" style="stop-color:#0067F5"/>
		<stop  offset="1" style="stop-color:#003C8F"/>
	</linearGradient>
	<path fill="url(#SVGID_1_)" d="M71.713,134.829h172.924v21.089H71.713V134.829z"/>
	
		<linearGradient id="SVGID_2_" gradientUnits="userSpaceOnUse" x1="21.8232" y1="409.7773" x2="194.7471" y2="409.7773" gradientTransform="matrix(1 0 0 1 49.8896 -378.2813)">
		<stop  offset="0" style="stop-color:#0067F5"/>
		<stop  offset="1" style="stop-color:#003C8F"/>
	</linearGradient>
	<path fill="url(#SVGID_2_)" d="M244.637,58.911H71.713V42.04l86.461-37.958l86.463,37.958V58.911z"/>
	
		<linearGradient id="SVGID_3_" gradientUnits="userSpaceOnUse" x1="34.4766" y1="475.1504" x2="55.5635" y2="475.1504" gradientTransform="matrix(1 0 0 1 49.8896 -378.2813)">
		<stop  offset="0" style="stop-color:#0067F5"/>
		<stop  offset="1" style="stop-color:#003C8F"/>
	</linearGradient>
	<path fill="url(#SVGID_3_)" d="M84.366,58.911h21.087v75.917H84.366V58.911z"/>
	
		<linearGradient id="SVGID_4_" gradientUnits="userSpaceOnUse" x1="76.6523" y1="475.1504" x2="97.7402" y2="475.1504" gradientTransform="matrix(1 0 0 1 49.8896 -378.2813)">
		<stop  offset="0" style="stop-color:#0067F5"/>
		<stop  offset="1" style="stop-color:#003C8F"/>
	</linearGradient>
	<path fill="url(#SVGID_4_)" d="M126.542,58.911h21.088v75.917h-21.088V58.911L126.542,58.911z"/>
	
		<linearGradient id="SVGID_5_" gradientUnits="userSpaceOnUse" x1="118.8281" y1="475.1504" x2="139.917" y2="475.1504" gradientTransform="matrix(1 0 0 1 49.8896 -378.2813)">
		<stop  offset="0" style="stop-color:#0067F5"/>
		<stop  offset="1" style="stop-color:#003C8F"/>
	</linearGradient>
	<path fill="url(#SVGID_5_)" d="M168.718,58.911h21.089v75.917h-21.089V58.911z"/>
	
		<linearGradient id="SVGID_6_" gradientUnits="userSpaceOnUse" x1="161.0049" y1="475.1504" x2="182.0928" y2="475.1504" gradientTransform="matrix(1 0 0 1 49.8896 -378.2813)">
		<stop  offset="0" style="stop-color:#0067F5"/>
		<stop  offset="1" style="stop-color:#003C8F"/>
	</linearGradient>
	<path fill="url(#SVGID_6_)" d="M210.895,58.911h21.088v75.917h-21.088V58.911z"/>
	<g>
		<path fill="#3086CD" d="M84.366,58.911h21.087v8.437H84.366V58.911z"/>
		<path fill="#3086CD" d="M126.542,58.911h21.088v8.437h-21.088V58.911L126.542,58.911z"/>
		<path fill="#3086CD" d="M168.718,58.911h21.089v8.437h-21.089V58.911z"/>
		<path fill="#3086CD" d="M210.895,58.911h21.088v8.437h-21.088V58.911z"/>
		<path fill="#3086CD" d="M84.366,126.393h21.087v8.438H84.366V126.393z"/>
		<path fill="#3086CD" d="M126.542,126.393h21.088v8.438h-21.088V126.393L126.542,126.393z"/>
		<path fill="#3086CD" d="M168.718,126.393h21.089v8.438h-21.089V126.393z"/>
		<path fill="#3086CD" d="M210.895,126.393h21.088v8.438h-21.088V126.393z"/>
	</g>
	<path fill="#3086CD" d="M168.718,31.497c0,5.824-4.719,10.544-10.544,10.544c-5.825,0-10.544-4.72-10.544-10.544
		c0-5.824,4.719-10.544,10.544-10.544C163.999,20.953,168.718,25.673,168.718,31.497z"/>
</g>
</svg>
