<?xml version="1.0" encoding="utf-8"?>
<!-- Generator: Adobe Illustrator 16.0.0, SVG Export Plug-In . SVG Version: 6.00 Build 0)  -->
<!DOCTYPE svg PUBLIC "-//W3C//DTD SVG 1.1//EN" "http://www.w3.org/Graphics/SVG/1.1/DTD/svg11.dtd">
<svg version="1.1" id="Layer_1" xmlns="http://www.w3.org/2000/svg" xmlns:xlink="http://www.w3.org/1999/xlink" x="0px" y="0px"
	 width="314px" height="195px" viewBox="0 0 314 195" enable-background="new 0 0 314 195" xml:space="preserve">
<g id="Layer_1_1_" display="none">
	<g id="Layer_2" display="inline">
		<g id="Credit_Card-4">
			<path fill="#CFE9FF" d="M305.311,13.707v134.828c0,14.895-12.072,26.967-26.967,26.967H35.656
				c-14.893,0-26.965-12.072-26.965-26.967V13.707c0-14.894,12.072-26.966,26.965-26.966h242.688
				C293.238-13.259,305.311-1.187,305.311,13.707z M264.863,114.828c0.006-11.168-9.045-20.229-20.215-20.232
				c-6.781-0.004-13.113,3.391-16.862,9.045c-6.183-9.307-18.731-11.838-28.037-5.656s-11.836,18.732-5.653,28.037
				c6.18,9.303,18.73,11.836,28.035,5.654c2.242-1.49,4.164-3.412,5.655-5.654c6.173,9.309,18.726,11.85,28.03,5.674
				C261.471,127.943,264.865,121.611,264.863,114.828z M103.07,60.896V33.931c0-3.725-3.02-6.742-6.742-6.742H55.88
				c-3.724,0-6.74,3.02-6.74,6.742v26.965c0,3.726,3.018,6.743,6.74,6.743h40.448C100.051,67.638,103.07,64.621,103.07,60.896z"/>
			<path display="none" fill="#0067CC" d="M278.344-20H35.656C17.049-19.978,1.971-4.897,1.949,13.707v134.828
				c0.022,18.607,15.1,33.686,33.707,33.707h242.688c18.606-0.021,33.686-15.1,33.707-33.707V13.707
				C312.029-4.899,296.951-19.978,278.344-20z M298.57,148.535c0,11.172-9.057,20.227-20.227,20.227H35.656
				c-11.169,0-20.224-9.055-20.224-20.227V13.707c0-11.17,9.055-20.226,20.224-20.226h242.688c11.17,0,20.227,9.056,20.227,20.226
				V148.535z"/>
			<path display="none" fill="#3D9AE2" d="M55.879,74.378h40.448c7.446,0,13.483-6.035,13.483-13.481V33.931
				c0-7.445-6.037-13.482-13.483-13.482H55.879c-7.445,0-13.481,6.037-13.481,13.482v26.965
				C42.398,68.343,48.434,74.378,55.879,74.378z M55.879,33.931h40.448v26.965H55.879V33.931z"/>
			<path display="none" fill="#3D9AE2" d="M244.639,87.863c-6.166,0.01-12.141,2.137-16.923,6.025
				c-11.563-9.385-28.546-7.615-37.93,3.947c-9.386,11.564-7.617,28.547,3.946,37.932c9.902,8.035,24.08,8.035,33.981,0
				c11.563,9.383,28.548,7.615,37.933-3.947c9.383-11.563,7.615-28.547-3.947-37.932C256.876,89.977,250.85,87.848,244.639,87.863z
				 M210.932,128.311c-7.447,0-13.482-6.035-13.482-13.482c0-7.443,6.035-13.48,13.482-13.48c7.444,0,13.481,6.037,13.481,13.48
				C224.414,122.275,218.377,128.311,210.932,128.311z M244.639,128.311c-3.224,0.01-6.34-1.154-8.766-3.275
				c2.715-6.533,2.715-13.881,0-20.412c2.426-2.119,5.542-3.283,8.766-3.275c7.444,0,13.481,6.037,13.481,13.48
				C258.121,122.275,252.084,128.311,244.639,128.311z"/>
			<rect x="258.121" y="27.188" fill="#3D9AE2" width="13.482" height="26.967"/>
			<rect x="231.156" y="27.188" fill="#3D9AE2" width="13.482" height="26.967"/>
			<rect x="204.189" y="27.188" fill="#3D9AE2" width="13.482" height="26.967"/>
			<rect x="177.225" y="27.188" fill="#3D9AE2" width="13.481" height="26.967"/>
			<rect x="42.398" y="101.346" fill="#3D9AE2" width="13.481" height="13.48"/>
			<rect x="69.363" y="101.346" fill="#3D9AE2" width="13.483" height="13.48"/>
			<rect x="96.327" y="101.346" fill="#3D9AE2" width="13.483" height="13.48"/>
			<rect x="123.293" y="101.346" fill="#3D9AE2" width="13.482" height="13.48"/>
			<rect x="42.398" y="128.311" fill="#3D9AE2" width="94.379" height="13.482"/>
		</g>
	</g>
</g>
<g id="Layer_2_1_" display="none">
	<g id="XMLID_7_" display="inline">
		
			<linearGradient id="XMLID_2_" gradientUnits="userSpaceOnUse" x1="19.4214" y1="144.2383" x2="244.6895" y2="144.2383" gradientTransform="matrix(1 0 0 -1 24.9448 225.3594)">
			<stop  offset="0" style="stop-color:#0067F5"/>
			<stop  offset="1" style="stop-color:#003C8F"/>
		</linearGradient>
		<path id="XMLID_130_" fill="url(#XMLID_2_)" d="M257.14,162.684H56.861c-6.905,0-12.495-5.592-12.495-12.494V12.055
			c0-6.901,5.59-12.496,12.495-12.496H257.14c6.901,0,12.494,5.595,12.494,12.496v138.135
			C269.634,157.092,264.041,162.684,257.14,162.684"/>
		<rect id="XMLID_129_" x="63.786" y="112.195" fill="#3D9AE2" width="34.955" height="23.303"/>
		<rect id="XMLID_128_" x="114.278" y="112.195" fill="#3D9AE2" width="34.953" height="23.303"/>
		<rect id="XMLID_127_" x="164.769" y="112.195" fill="#3D9AE2" width="34.955" height="23.303"/>
		<rect id="XMLID_126_" x="215.261" y="112.195" fill="#3D9AE2" width="34.954" height="23.303"/>
		<path id="XMLID_125_" fill="#F4EDD7" d="M121.054,69.469H68.659c-2.687,0-4.873-2.182-4.873-4.873V27.739
			c0-2.692,2.186-4.875,4.873-4.875h52.395c2.692,0,4.875,2.183,4.875,4.875v36.856C125.929,67.288,123.746,69.469,121.054,69.469"
			/>
		<path id="XMLID_122_" fill="#F3D55C" d="M121.054,73.354H68.659c-4.827,0-8.758-3.93-8.758-8.758V27.739
			c0-4.829,3.931-8.761,8.758-8.761h52.395c4.828,0,8.76,3.932,8.76,8.761v36.856C129.813,69.424,125.882,73.354,121.054,73.354
			 M68.659,26.748c-0.551,0-0.99,0.443-0.99,0.991v36.856c0,0.549,0.439,0.99,0.99,0.99h52.395c0.549,0,0.991-0.441,0.991-0.99
			V27.739c0-0.548-0.442-0.991-0.991-0.991H68.659z"/>
		<path id="XMLID_121_" fill="#F4EDD7" d="M125.929,27.739c0-2.696-2.183-4.875-4.875-4.875h-18.429H91.964
			c-2.695,0-4.875,2.179-4.875,4.875v10.66v26.196c0,2.691,2.18,4.873,4.875,4.873h5.787c2.691,0,4.874-2.182,4.874-4.873V43.273
			c0-2.692,2.179-4.874,4.875-4.874h13.556c2.691,0,4.875-2.183,4.875-4.874v-5.786H125.929z"/>
		<path id="XMLID_118_" fill="#F3D55C" d="M97.751,73.354h-5.787c-4.828,0-8.759-3.93-8.759-8.758V27.739
			c0-4.829,3.931-8.761,8.759-8.761h29.09c4.828,0,8.76,3.932,8.76,8.761v5.786c0,4.828-3.932,8.758-8.76,8.758h-13.555
			c-0.553,0-0.991,0.441-0.991,0.99v21.322C106.509,69.424,102.578,73.354,97.751,73.354 M91.964,26.748
			c-0.551,0-0.99,0.443-0.99,0.991v36.856c0,0.549,0.438,0.99,0.99,0.99h5.787c0.547,0,0.99-0.441,0.99-0.99V43.273
			c0-4.828,3.93-8.758,8.758-8.758h13.555c0.549,0,0.991-0.442,0.991-0.99v-5.786c0-0.548-0.442-0.991-0.991-0.991H91.964z"/>
		<line id="XMLID_117_" fill="none" x1="102.625" y1="53.934" x2="125.929" y2="53.934"/>
		<path id="XMLID_116_" fill="#F3D55C" d="M125.929,57.818h-23.304c-2.147,0-3.884-1.738-3.884-3.885
			c0-2.144,1.736-3.883,3.884-3.883h23.304c2.147,0,3.885,1.739,3.885,3.883C129.813,56.08,128.076,57.818,125.929,57.818"/>
		<line id="XMLID_115_" fill="none" x1="87.09" y1="38.399" x2="63.786" y2="38.399"/>
		<path id="XMLID_114_" fill="#F3D55C" d="M87.09,42.283H63.787c-2.148,0-3.885-1.74-3.885-3.884c0-2.146,1.737-3.884,3.885-3.884
			H87.09c2.147,0,3.884,1.738,3.884,3.884C90.974,40.543,89.237,42.283,87.09,42.283"/>
		<line id="XMLID_113_" fill="none" x1="87.09" y1="53.934" x2="63.786" y2="53.934"/>
		<path id="XMLID_112_" fill="#F3D55C" d="M87.09,57.818H63.787c-2.148,0-3.885-1.738-3.885-3.885c0-2.144,1.737-3.883,3.885-3.883
			H87.09c2.147,0,3.884,1.739,3.884,3.883C90.974,56.08,89.237,57.818,87.09,57.818"/>
		<path id="XMLID_111_" fill="#3D9AE2" d="M199.724,18.979h-34.955c-2.146,0-3.885,1.74-3.885,3.886
			c0,2.144,1.737,3.884,3.885,3.884h34.955c2.148,0,3.883-1.74,3.883-3.884C203.606,20.719,201.872,18.979,199.724,18.979"/>
		<path id="XMLID_110_" fill="#3D9AE2" d="M254.099,22.864c0-2.146-1.733-3.886-3.884-3.886h-34.954
			c-2.148,0-3.885,1.74-3.885,3.886c0,2.144,1.734,3.884,3.885,3.884h34.954C252.364,26.748,254.099,25.006,254.099,22.864"/>
		<path id="XMLID_109_" fill="#3D9AE2" d="M168.651,38.399h-3.883c-2.146,0-3.885,1.739-3.885,3.884s1.737,3.885,3.885,3.885h3.883
			c2.148,0,3.885-1.74,3.885-3.885S170.8,38.399,168.651,38.399"/>
		<path id="XMLID_108_" fill="#3D9AE2" d="M191.956,38.399h-7.768c-2.148,0-3.885,1.739-3.885,3.884s1.735,3.885,3.885,3.885h7.768
			c2.148,0,3.883-1.74,3.883-3.885S194.104,38.399,191.956,38.399"/>
		<path id="XMLID_107_" fill="#3D9AE2" d="M211.376,38.399h-3.886c-2.146,0-3.884,1.739-3.884,3.884s1.736,3.885,3.884,3.885h3.886
			c2.146,0,3.885-1.74,3.885-3.885S213.522,38.399,211.376,38.399"/>
		<path id="XMLID_106_" fill="#3D9AE2" d="M234.679,38.399h-7.768c-2.146,0-3.885,1.739-3.885,3.884s1.738,3.885,3.885,3.885h7.768
			c2.148,0,3.885-1.74,3.885-3.885S236.827,38.399,234.679,38.399"/>
		<path id="XMLID_105_" fill="#3D9AE2" d="M247.457,39.524c-0.702,0.737-1.126,1.748-1.126,2.759c0,1.012,0.424,2.021,1.126,2.76
			c0.733,0.697,1.705,1.125,2.758,1.125c1.009,0,2.017-0.428,2.759-1.125c0.697-0.738,1.125-1.748,1.125-2.76
			c0-1.011-0.428-2.021-1.125-2.759C251.496,38.088,248.896,38.088,247.457,39.524"/>
	</g>
</g>
<g id="Layer_3">
	<g>
		<g>
			
				<linearGradient id="SVGID_1_" gradientUnits="userSpaceOnUse" x1="84.6499" y1="184.0195" x2="229.6738" y2="184.0195" gradientTransform="matrix(1 0 0 -1 24.9448 225.3594)">
				<stop  offset="0" style="stop-color:#0067F5"/>
				<stop  offset="1" style="stop-color:#003C8F"/>
			</linearGradient>
			<rect x="109.595" y="14.553" fill="url(#SVGID_1_)" width="145.023" height="53.574"/>
			<path display="none" fill="#B7DDF9" d="M87.026,85.219c-0.695,0-1.16,0.35-1.38,1.035c-0.228,0.689-0.34,1.76-0.34,3.201
				c0,1.371,0.112,2.422,0.34,3.15c0.222,0.732,0.687,1.088,1.38,1.088c0.699,0,1.157-0.355,1.371-1.088
				c0.217-0.729,0.322-1.771,0.322-3.15c0-1.441-0.104-2.512-0.322-3.201C88.183,85.568,87.722,85.219,87.026,85.219z"/>
			<path display="none" fill="#B7DDF9" d="M87.322,112.379l-0.435,0.072c-0.402,0.072-0.695,0.164-0.87,0.264
				c-0.3,0.172-0.445,0.441-0.445,0.805c0,0.322,0.093,0.561,0.274,0.705c0.185,0.145,0.404,0.217,0.668,0.217
				c0.414,0,0.791-0.117,1.145-0.361c0.35-0.236,0.529-0.672,0.547-1.313v-0.705c-0.119,0.072-0.244,0.139-0.369,0.186
				C87.708,112.293,87.54,112.34,87.322,112.379z"/>
			<path display="none" fill="#B7DDF9" d="M77.647,93.695c0.699,0,1.154-0.361,1.371-1.094c0.214-0.725,0.322-1.773,0.322-3.15
				c0-1.443-0.107-2.506-0.322-3.197c-0.217-0.691-0.672-1.033-1.371-1.033c-0.695,0-1.163,0.348-1.384,1.033
				c-0.228,0.691-0.341,1.76-0.341,3.197c0,1.377,0.113,2.418,0.341,3.15C76.484,93.334,76.945,93.695,77.647,93.695z"/>
			<path display="none" fill="#B7DDF9" d="M96.409,93.695c0.697,0,1.153-0.361,1.37-1.094c0.211-0.725,0.323-1.773,0.323-3.15
				c0-1.443-0.107-2.506-0.323-3.197c-0.217-0.691-0.676-1.033-1.37-1.033c-0.695,0-1.16,0.348-1.388,1.033
				c-0.222,0.691-0.336,1.76-0.336,3.197c0,1.377,0.112,2.418,0.336,3.15C95.251,93.334,95.712,93.695,96.409,93.695z"/>
			<path display="none" fill="#B7DDF9" d="M106.884,109.711c-0.486,0-0.862,0.137-1.129,0.412c-0.271,0.279-0.436,0.654-0.508,1.123
				h3.267c-0.036-0.508-0.205-0.885-0.505-1.143C107.704,109.842,107.329,109.711,106.884,109.711z"/>
			<path display="none" fill="#B7DDF9" d="M133.021,112.379l-0.437,0.072c-0.403,0.072-0.693,0.164-0.871,0.264
				c-0.297,0.172-0.445,0.441-0.445,0.805c0,0.322,0.092,0.561,0.277,0.705c0.181,0.145,0.404,0.217,0.668,0.217
				c0.416,0,0.793-0.117,1.147-0.361c0.343-0.236,0.526-0.672,0.541-1.313v-0.705c-0.119,0.072-0.244,0.139-0.369,0.186
				C133.403,112.293,133.239,112.34,133.021,112.379z"/>
			<path display="none" fill="#B7DDF9" d="M124.554,85.219c-0.698,0-1.16,0.35-1.385,1.035c-0.224,0.689-0.34,1.76-0.34,3.201
				c0,1.371,0.116,2.422,0.34,3.15c0.225,0.732,0.689,1.088,1.385,1.088s1.154-0.355,1.371-1.088
				c0.218-0.729,0.322-1.771,0.322-3.15c0-1.441-0.104-2.512-0.322-3.201C125.708,85.568,125.249,85.219,124.554,85.219z"/>
			<path display="none" fill="#B7DDF9" d="M105.794,93.695c0.699,0,1.152-0.361,1.371-1.094c0.211-0.725,0.323-1.773,0.323-3.15
				c0-1.443-0.112-2.506-0.323-3.197c-0.218-0.691-0.676-1.033-1.371-1.033c-0.696,0-1.158,0.348-1.389,1.033
				c-0.224,0.691-0.335,1.76-0.335,3.197c0,1.377,0.108,2.418,0.335,3.15C104.636,93.334,105.095,93.695,105.794,93.695z"/>
			<path display="none" fill="#B7DDF9" d="M152.708,85.219c-0.699,0-1.166,0.35-1.392,1.035c-0.226,0.689-0.337,1.76-0.337,3.201
				c0,1.371,0.111,2.422,0.337,3.15c0.226,0.732,0.692,1.088,1.392,1.088c0.692,0,1.152-0.355,1.363-1.088
				c0.219-0.729,0.33-1.771,0.33-3.15c0-1.441-0.111-2.512-0.33-3.201C153.86,85.568,153.406,85.219,152.708,85.219z"/>
			<path display="none" fill="#B7DDF9" d="M133.938,85.219c-0.698,0-1.16,0.35-1.392,1.035c-0.219,0.689-0.334,1.76-0.334,3.201
				c0,1.371,0.115,2.422,0.334,3.15c0.23,0.732,0.692,1.088,1.392,1.088c0.692,0,1.147-0.355,1.371-1.088
				c0.211-0.729,0.323-1.771,0.323-3.15c0-1.441-0.112-2.512-0.323-3.201C135.091,85.568,134.636,85.219,133.938,85.219z"/>
			<path display="none" fill="#B7DDF9" d="M143.322,93.695c0.692,0,1.153-0.361,1.371-1.094c0.211-0.725,0.323-1.773,0.323-3.15
				c0-1.443-0.112-2.506-0.323-3.197c-0.217-0.691-0.679-1.033-1.371-1.033c-0.698,0-1.159,0.348-1.391,1.033
				c-0.224,0.691-0.337,1.76-0.337,3.197c0,1.377,0.113,2.418,0.337,3.15C142.163,93.338,142.624,93.695,143.322,93.695z"/>
			<path fill="#E6F4FF" d="M152.583,109.711c-0.488,0-0.863,0.137-1.135,0.412c-0.264,0.279-0.436,0.654-0.507,1.123h3.271
				c-0.041-0.508-0.205-0.885-0.51-1.143C153.406,109.842,153.023,109.711,152.583,109.711z"/>
			
				<linearGradient id="SVGID_2_" gradientUnits="userSpaceOnUse" x1="33.5854" y1="157.2324" x2="230.5254" y2="157.2324" gradientTransform="matrix(1 0 0 -1 24.9448 225.3594)">
				<stop  offset="0" style="stop-color:#0067F5"/>
				<stop  offset="1" style="stop-color:#003C8F"/>
			</linearGradient>
			<path fill="url(#SVGID_2_)" d="M255.47,18.504c0-7.346-5.891-13.32-13.147-13.32H71.683c-7.246,0-13.152,5.975-13.152,13.32
				v99.24c0,7.355,5.906,13.326,13.152,13.326h102.734c-0.026-0.217-0.092-0.436-0.105-0.658l-0.79-2.854l-0.981-3.52l-6.775-24.268
				l-0.126-0.482l-0.046-0.5c-0.289-3.439,1.482-7.125,4.316-8.963l0.131-0.086l0.146-0.078l32.697-18.448l0.211-0.146
				c0.513-0.361,1.699-1.219,3.505-1.219c1.827,0,3.021,0.869,3.526,1.246c0.053,0.039,0.111,0.08,0.186,0.131l32.38,18.428
				l0.146,0.086l0.133,0.092c2.82,1.848,4.58,5.529,4.289,8.957l-0.039,0.494l-0.139,0.48l-6.77,24.273l-0.98,3.514l-0.791,2.84
				c-0.021,0.219-0.065,0.455-0.101,0.674h3.877c7.248,0,13.147-5.971,13.147-13.328V18.504H255.47L255.47,18.504z M151.653,114.027
				c0.289,0.186,0.641,0.271,1.055,0.271c0.428,0,0.777-0.105,1.047-0.338c0.146-0.117,0.276-0.281,0.391-0.494h1.938
				c-0.053,0.43-0.283,0.871-0.705,1.313c-0.646,0.705-1.563,1.063-2.729,1.063c-0.962,0-1.82-0.305-2.551-0.896
				c-0.738-0.6-1.107-1.568-1.107-2.9c0-1.26,0.329-2.223,0.995-2.895c0.673-0.672,1.529-1.002,2.597-1.002
				c0.633,0,1.201,0.113,1.707,0.336c0.502,0.232,0.916,0.588,1.252,1.074c0.303,0.43,0.488,0.93,0.582,1.504
				c0.053,0.328,0.07,0.803,0.06,1.436h-5.28C150.921,113.23,151.179,113.736,151.653,114.027z M155.896,94.012
				c-0.612,1.061-1.674,1.594-3.196,1.594c-1.521,0-2.59-0.525-3.203-1.594c-0.611-1.063-0.922-2.584-0.922-4.563
				c0-1.971,0.311-3.492,0.922-4.561c0.621-1.068,1.682-1.607,3.203-1.607c1.518,0,2.584,0.533,3.196,1.607
				c0.612,1.061,0.924,2.59,0.924,4.561C156.82,91.428,156.517,92.951,155.896,94.012z M145.729,110.297
				c-0.172-0.336-0.481-0.508-0.937-0.508c-0.521,0-0.883,0.217-1.082,0.652c-0.104,0.23-0.158,0.5-0.158,0.83v4.316h-1.911v-4.316
				c0-0.428-0.046-0.746-0.132-0.943c-0.164-0.348-0.475-0.52-0.942-0.52c-0.541,0-0.903,0.172-1.087,0.52
				c-0.1,0.211-0.152,0.502-0.152,0.896v4.371h-1.924v-7.244h1.846v1.055c0.237-0.375,0.455-0.646,0.666-0.805
				c0.361-0.283,0.842-0.422,1.43-0.422c0.553,0,1,0.119,1.338,0.363c0.275,0.225,0.488,0.514,0.632,0.869
				c0.25-0.424,0.554-0.738,0.917-0.936c0.395-0.205,0.822-0.299,1.313-0.299c0.315,0,0.631,0.053,0.941,0.186
				c0.305,0.125,0.594,0.344,0.844,0.652c0.205,0.258,0.344,0.566,0.409,0.936c0.054,0.238,0.073,0.596,0.073,1.068l-0.014,4.568
				h-1.943v-4.615C145.859,110.699,145.813,110.475,145.729,110.297z M133.595,109.854c-0.217-0.111-0.521-0.164-0.924-0.164
				c-0.453,0-0.775,0.111-0.963,0.338c-0.136,0.164-0.225,0.381-0.271,0.658h-1.83c0.04-0.633,0.218-1.154,0.534-1.563
				c0.504-0.641,1.367-0.955,2.596-0.955c0.797,0,1.502,0.158,2.128,0.475c0.62,0.316,0.923,0.91,0.923,1.771v3.336
				c0,0.23,0.008,0.5,0.014,0.838c0.013,0.25,0.053,0.42,0.117,0.5c0.066,0.092,0.152,0.166,0.277,0.225v0.277h-2.063
				c-0.06-0.146-0.092-0.283-0.118-0.41c-0.026-0.131-0.04-0.277-0.054-0.441c-0.263,0.283-0.565,0.527-0.91,0.727
				c-0.416,0.236-0.875,0.35-1.391,0.35c-0.664,0-1.209-0.186-1.642-0.561c-0.429-0.375-0.646-0.908-0.646-1.596
				c0-0.891,0.342-1.537,1.037-1.938c0.379-0.211,0.938-0.369,1.678-0.461l0.654-0.086c0.348-0.039,0.6-0.092,0.758-0.164
				c0.271-0.111,0.408-0.297,0.408-0.535C133.904,110.178,133.798,109.975,133.595,109.854z M133.938,95.613
				c-1.524,0-2.589-0.533-3.205-1.602c-0.61-1.063-0.92-2.584-0.92-4.557c0-1.971,0.308-3.49,0.92-4.566
				c0.616-1.066,1.681-1.607,3.205-1.607c1.517,0,2.583,0.541,3.196,1.607c0.613,1.076,0.923,2.598,0.923,4.566
				c0,1.971-0.31,3.488-0.923,4.557C136.521,95.072,135.46,95.613,133.938,95.613z M139.196,89.451c0-1.971,0.311-3.492,0.924-4.563
				c0.611-1.066,1.68-1.607,3.202-1.607c1.517,0,2.577,0.535,3.196,1.607c0.613,1.063,0.923,2.592,0.923,4.563
				c0,1.977-0.31,3.492-0.923,4.561c-0.613,1.061-1.674,1.594-3.196,1.594s-2.591-0.525-3.202-1.594
				C139.507,92.951,139.196,91.428,139.196,89.451z M127.753,94.012c-0.609,1.061-1.678,1.594-3.199,1.594
				c-1.52,0-2.586-0.525-3.2-1.594c-0.62-1.063-0.922-2.584-0.922-4.563c0-1.971,0.303-3.492,0.922-4.561
				c0.61-1.068,1.674-1.607,3.2-1.607c1.519,0,2.587,0.533,3.199,1.607c0.617,1.061,0.922,2.59,0.922,4.561
				C128.673,91.428,128.363,92.951,127.753,94.012z M128.097,105.781v9.809h-2.051l-3.994-6.961v6.961h-1.907v-9.809h2.147
				l3.896,6.842v-6.842H128.097z M105.962,114.027c0.287,0.186,0.64,0.271,1.047,0.271c0.432,0,0.781-0.105,1.052-0.338
				c0.146-0.117,0.276-0.281,0.392-0.494h1.938c-0.054,0.43-0.283,0.871-0.702,1.313c-0.648,0.705-1.559,1.063-2.729,1.063
				c-0.961,0-1.818-0.305-2.555-0.896c-0.738-0.6-1.107-1.568-1.107-2.9c0-1.26,0.336-2.223,1-2.895
				c0.668-0.672,1.529-1.002,2.597-1.002c0.632,0,1.196,0.113,1.706,0.336c0.501,0.232,0.92,0.588,1.256,1.074
				c0.297,0.43,0.488,0.93,0.577,1.504c0.049,0.328,0.071,0.803,0.062,1.436H105.2C105.229,113.23,105.483,113.736,105.962,114.027z
				 M100.03,110.297c-0.168-0.336-0.48-0.508-0.933-0.508c-0.521,0-0.884,0.217-1.084,0.652c-0.103,0.23-0.157,0.5-0.157,0.83v4.316
				h-1.904v-4.316c0-0.428-0.047-0.746-0.136-0.943c-0.157-0.348-0.472-0.52-0.938-0.52c-0.541,0-0.903,0.172-1.088,0.52
				c-0.103,0.211-0.151,0.502-0.151,0.896v4.371h-1.921v-7.244h1.843v1.055c0.233-0.375,0.458-0.646,0.665-0.805
				c0.365-0.283,0.841-0.422,1.427-0.422c0.558,0,1.002,0.119,1.345,0.363c0.277,0.225,0.484,0.514,0.629,0.869
				c0.25-0.424,0.558-0.738,0.922-0.936c0.393-0.205,0.824-0.299,1.307-0.299c0.318,0,0.635,0.053,0.941,0.186
				c0.313,0.125,0.594,0.344,0.845,0.652c0.204,0.258,0.342,0.566,0.411,0.936c0.05,0.238,0.07,0.596,0.07,1.068l-0.014,4.568
				h-1.945v-4.615C100.165,110.699,100.118,110.475,100.03,110.297z M87.896,109.854c-0.211-0.111-0.519-0.164-0.923-0.164
				c-0.451,0-0.774,0.111-0.965,0.338c-0.135,0.164-0.223,0.381-0.271,0.658h-1.828c0.039-0.633,0.221-1.154,0.533-1.563
				c0.504-0.641,1.371-0.955,2.594-0.955c0.801,0,1.506,0.158,2.129,0.475c0.619,0.316,0.926,0.91,0.926,1.771v3.336
				c0,0.23,0.002,0.5,0.013,0.838c0.015,0.25,0.053,0.42,0.116,0.5c0.066,0.092,0.15,0.166,0.277,0.225v0.277h-2.066
				c-0.053-0.146-0.094-0.283-0.116-0.41c-0.022-0.131-0.042-0.277-0.056-0.441c-0.264,0.283-0.566,0.527-0.91,0.727
				c-0.411,0.236-0.876,0.35-1.393,0.35c-0.664,0-1.207-0.186-1.643-0.561c-0.428-0.375-0.643-0.908-0.643-1.596
				c0-0.891,0.344-1.537,1.039-1.938c0.379-0.211,0.938-0.369,1.676-0.461l0.646-0.086c0.354-0.039,0.61-0.092,0.766-0.164
				c0.27-0.111,0.408-0.297,0.408-0.535C88.21,110.178,88.104,109.975,87.896,109.854z M90.227,94.012
				c-0.613,1.061-1.681,1.594-3.2,1.594s-2.587-0.525-3.199-1.594c-0.613-1.063-0.92-2.584-0.92-4.563
				c0-1.971,0.303-3.492,0.92-4.561c0.612-1.068,1.68-1.607,3.199-1.607s2.587,0.533,3.2,1.607c0.612,1.061,0.919,2.59,0.919,4.561
				C91.148,91.428,90.839,92.951,90.227,94.012z M79.288,55.48v-6.998h7.072v7.156h-7.049C79.312,55.585,79.288,55.539,79.288,55.48
				z M106.874,55.48c0,0.059-0.017,0.105-0.02,0.16h-7.049v-7.152h7.072v6.992H106.874L106.874,55.48z M99.802,59.33h6.285
				c-1.142,2.684-3.461,4.713-6.285,5.551V59.33z M97.968,44.796L97.968,44.796L96.122,44.8v10.838h-6.074V37.754h6.983
				c4.445,0,8.177,2.986,9.39,7.046L97.968,44.796L97.968,44.796z M86.36,44.796h-6.609c0.945-3.17,3.437-5.654,6.609-6.596V44.796z
				 M86.36,59.33v5.551c-2.828-0.838-5.145-2.867-6.288-5.551H86.36z M90.042,59.33h6.073v5.998h-6.073V59.33z M96.409,83.289
				c1.518,0,2.586,0.533,3.199,1.607c0.609,1.063,0.92,2.59,0.92,4.561s-0.307,3.494-0.92,4.555
				c-0.609,1.068-1.682,1.602-3.199,1.602c-1.523,0-2.587-0.533-3.203-1.602c-0.613-1.061-0.92-2.584-0.92-4.555
				s0.303-3.498,0.92-4.561C93.821,83.822,94.886,83.289,96.409,83.289z M77.647,83.289c1.52,0,2.583,0.533,3.195,1.607
				c0.613,1.063,0.92,2.59,0.92,4.561s-0.303,3.494-0.92,4.555c-0.612,1.068-1.676,1.602-3.195,1.602
				c-1.523,0-2.587-0.533-3.203-1.602c-0.609-1.061-0.923-2.584-0.923-4.555s0.31-3.498,0.923-4.561
				C75.054,83.822,76.118,83.289,77.647,83.289z M74.448,105.781h2.148l3.896,6.842v-6.842h1.91v9.809h-2.053l-3.994-6.961v6.961
				h-1.907L74.448,105.781L74.448,105.781z M101.675,89.451c0-1.971,0.303-3.492,0.918-4.563c0.609-1.066,1.678-1.607,3.203-1.607
				c1.521,0,2.584,0.535,3.201,1.607c0.609,1.063,0.918,2.592,0.918,4.563c0,1.977-0.306,3.492-0.918,4.561
				c-0.613,1.061-1.682,1.594-3.201,1.594c-1.521,0-2.586-0.525-3.203-1.594C101.978,92.951,101.675,91.428,101.675,89.451z
				 M220.46,57.806c-2.774,0-5.379-0.684-7.73-1.811c-2.866,1.822-6.234,2.908-9.866,2.908c-10.202,0-18.506-8.297-18.506-18.505
				c0-10.203,8.297-18.504,18.506-18.504c3.158,0,6.097,0.873,8.693,2.277c2.637-1.513,5.653-2.449,8.903-2.449
				c9.951,0,18.045,8.09,18.045,18.039C238.499,49.71,230.411,57.806,220.46,57.806z"/>
			<path display="none" fill="#E6F4FF" d="M205.993,39.291h-1.76h-1.76c0.021-0.801,0.111-1.582,0.236-2.354h1.76h1.752h9.896
				c-0.187-0.973-0.469-1.898-0.817-2.801h-8.219h-1.832h-1.84c0.284-0.834,0.613-1.637,0.995-2.416h1.983h2.005h5.68
				c-0.612-1.008-1.304-1.953-2.12-2.801h-1.049h-2.499h-2.26c0.666-0.877,1.396-1.689,2.207-2.432
				c-1.706-0.676-3.552-1.078-5.489-1.078c-8.271,0-14.986,6.725-14.986,14.991c0,8.268,6.715,14.993,14.986,14.993
				c2.327,0,4.51-0.578,6.473-1.531c-0.627-0.504-1.266-1.008-1.832-1.596h2.644h0.172c0.435-0.338,0.771-0.787,1.172-1.172
				c0.541-0.529,1.142-1.016,1.614-1.623h-3.367h-2.279h-2.148c-0.447-0.688-0.83-1.414-1.18-2.164h1.988h1.998h6.373
				c0.475-0.889,0.855-1.818,1.167-2.799h-8.853h-1.832h-1.832c-0.211-0.783-0.368-1.588-0.481-2.418h1.761h1.76h10.012
				c0.105-0.721,0.225-1.439,0.225-2.194c0-0.207-0.06-0.397-0.066-0.603h-10.354v-0.004H205.993z"/>
			<path fill="#97D5FF" d="M208.175,157.059c-0.072,0-0.15,0-0.225-0.008c-0.072,0.008-0.15,0.008-0.217,0.008H208.175z"/>
			<path fill="#B7DDF9" d="M233.161,131.07c0.064-0.5,0.131-1.002,0.131-1.482l0.573-2.035l0.981-3.514l7.164-25.689
				c0.119-1.49-0.738-3.33-1.924-4.113l-32.551-18.532c-0.602-0.391-0.766-0.588-0.932-0.588c-0.165,0-0.342,0.191-0.93,0.574
				l-32.887,18.561c-1.193,0.77-2.058,2.607-1.932,4.1l7.163,25.689l0.976,3.514l0.574,2.035c0,0.48,0.078,0.977,0.164,1.482
				c1.635,10.145,19.206,25.725,28.229,25.98C216.929,156.795,231.77,141.213,233.161,131.07z M207.437,145.029L207.437,145.029
				l-0.258,0.008v-0.008c-5.535-0.189-14.281-7.072-18.018-13.959c-0.646-1.186-1.142-2.365-1.443-3.52
				c-0.166-0.625-0.299-1.244-0.338-1.846l-0.521-1.668l-5.205-16.566l-0.118-0.377l-0.035-0.396
				c-0.176-2.16,0.918-4.486,2.664-5.652l0.119-0.08l0.125-0.072l19.705-11.008l0.073-0.045c0.297-0.23,1.112-0.83,2.333-0.83
				c1.238,0,2.057,0.611,2.365,0.844l0.064,0.047l19.497,10.992l0.132,0.072l0.117,0.08c1.729,1.172,2.821,3.498,2.645,5.652
				l-0.026,0.391l-0.119,0.383l-5.204,16.568l-0.521,1.652c-0.047,0.602-0.151,1.229-0.297,1.859
				c-0.264,1.146-0.692,2.326-1.258,3.52C220.704,137.893,213.145,144.838,207.437,145.029z"/>
			<path fill="#6DB6F7" d="M207.437,141.518c-0.04,0-0.086,0-0.125,0c-0.046,0-0.094,0-0.133,0H207.437z"/>
			
				<linearGradient id="SVGID_3_" gradientUnits="userSpaceOnUse" x1="160.0576" y1="108.3359" x2="202.9092" y2="108.3359" gradientTransform="matrix(1 0 0 -1 24.9448 225.3594)">
				<stop  offset="0" style="stop-color:#0067F5"/>
				<stop  offset="1" style="stop-color:#003C8F"/>
			</linearGradient>
			<path fill="url(#SVGID_3_)" d="M226.728,103.957l-19.66-11.086c-0.35-0.23-0.447-0.35-0.541-0.35
				c-0.092,0-0.197,0.119-0.533,0.342l-19.871,11.094c-0.686,0.469-1.188,1.563-1.113,2.457l5.543,17.631l0.33,1.055
				c0,0.758,0.177,1.596,0.5,2.459c0.416,1.133,1.074,2.32,1.898,3.514c3.538,5.154,10.148,10.334,14.031,10.453
				c3.855-0.119,9.596-5.299,12.62-10.453c0.704-1.193,1.272-2.387,1.622-3.514c0.271-0.863,0.422-1.693,0.422-2.459l0.329-1.055
				l5.543-17.631C227.921,105.518,227.419,104.418,226.728,103.957z"/>
		</g>
	</g>
</g>
<g id="Layer_4" display="none">
	<g display="inline">
		<g>
			
				<linearGradient id="SVGID_4_" gradientUnits="userSpaceOnUse" x1="35.5044" y1="144.2383" x2="228.6055" y2="144.2383" gradientTransform="matrix(1 0 0 -1 24.9448 225.3594)">
				<stop  offset="0" style="stop-color:#0067F5"/>
				<stop  offset="1" style="stop-color:#003C8F"/>
			</linearGradient>
			<path fill="url(#SVGID_4_)" d="M240.914,19.511H73.088c-6.969,0-12.639,5.743-12.639,12.805v97.611
				c0,7.059,5.669,12.805,12.639,12.805h167.826c6.967,0,12.637-5.746,12.637-12.805V32.315
				C253.551,25.254,247.881,19.511,240.914,19.511z M247.234,129.927c0,3.574-2.837,6.488-6.32,6.488H73.088
				c-3.485,0-6.317-2.914-6.317-6.488V32.315c0-3.575,2.838-6.484,6.317-6.484h167.826c3.483,0,6.32,2.909,6.32,6.484V129.927
				L247.234,129.927z"/>
			
				<linearGradient id="SVGID_5_" gradientUnits="userSpaceOnUse" x1="51.0386" y1="128.1816" x2="58.4937" y2="128.1816" gradientTransform="matrix(1 0 0 -1 24.9448 225.3594)">
				<stop  offset="0" style="stop-color:#0067F5"/>
				<stop  offset="1" style="stop-color:#003C8F"/>
			</linearGradient>
			<path fill="url(#SVGID_5_)" d="M82.605,101.31c0.551-0.963,0.833-2.342,0.833-4.125s-0.282-3.164-0.833-4.133
				c-0.557-0.972-1.516-1.451-2.896-1.451c-1.375,0-2.343,0.479-2.896,1.451c-0.555,0.969-0.829,2.35-0.829,4.133
				s0.278,3.16,0.829,4.125c0.557,0.967,1.521,1.446,2.896,1.446C81.09,102.757,82.055,102.276,82.605,101.31z M78.459,100.03
				c-0.209-0.657-0.31-1.604-0.31-2.846c0-1.308,0.101-2.27,0.31-2.896c0.203-0.628,0.621-0.94,1.256-0.94
				c0.627,0,1.041,0.313,1.237,0.94c0.198,0.626,0.296,1.588,0.296,2.896c0,1.24-0.098,2.201-0.296,2.846
				c-0.196,0.664-0.61,0.996-1.237,0.996C79.08,101.026,78.66,100.694,78.459,100.03z"/>
			
				<linearGradient id="SVGID_6_" gradientUnits="userSpaceOnUse" x1="60.1138" y1="128.2754" x2="64.8354" y2="128.2754" gradientTransform="matrix(1 0 0 -1 24.9448 225.3594)">
				<stop  offset="0" style="stop-color:#0067F5"/>
				<stop  offset="1" style="stop-color:#003C8F"/>
			</linearGradient>
			<path fill="url(#SVGID_6_)" d="M89.779,102.492v-10.82h-1.777c0,0.095-0.029,0.243-0.082,0.437
				c-0.096,0.322-0.231,0.576-0.418,0.775c-0.267,0.287-0.617,0.471-1.043,0.561c-0.264,0.064-0.734,0.105-1.4,0.136v1.455h2.545
				v7.461h2.177L89.779,102.492L89.779,102.492z"/>
			
				<linearGradient id="SVGID_7_" gradientUnits="userSpaceOnUse" x1="68.0278" y1="128.3027" x2="75.438" y2="128.3027" gradientTransform="matrix(1 0 0 -1 24.9448 225.3594)">
				<stop  offset="0" style="stop-color:#0067F5"/>
				<stop  offset="1" style="stop-color:#003C8F"/>
			</linearGradient>
			<path fill="url(#SVGID_7_)" d="M95.621,98.071c-1.132,0.811-1.849,1.568-2.146,2.291c-0.317,0.64-0.479,1.352-0.503,2.13h7.41
				v-1.875h-4.722c0.132-0.226,0.3-0.421,0.498-0.593c0.192-0.166,0.56-0.443,1.091-0.822l0.853-0.6
				c0.717-0.51,1.231-0.965,1.546-1.387c0.477-0.615,0.72-1.33,0.72-2.126c0-1.053-0.341-1.885-1.016-2.519
				c-0.677-0.641-1.591-0.95-2.731-0.95c-1.451,0-2.457,0.542-3.021,1.616c-0.303,0.566-0.467,1.311-0.504,2.23h2.068
				c0.026-0.609,0.106-1.052,0.242-1.33c0.23-0.486,0.672-0.726,1.318-0.726c0.474,0,0.832,0.153,1.093,0.456
				c0.255,0.302,0.379,0.681,0.379,1.145c0,0.563-0.222,1.077-0.664,1.545C97.234,96.868,96.598,97.365,95.621,98.071z"/>
			
				<linearGradient id="SVGID_8_" gradientUnits="userSpaceOnUse" x1="76.4526" y1="128.1748" x2="83.9302" y2="128.1748" gradientTransform="matrix(1 0 0 -1 24.9448 225.3594)">
				<stop  offset="0" style="stop-color:#0067F5"/>
				<stop  offset="1" style="stop-color:#003C8F"/>
			</linearGradient>
			<path fill="url(#SVGID_8_)" d="M105.1,101.026c-0.682,0-1.149-0.262-1.407-0.782c-0.14-0.287-0.21-0.64-0.21-1.078h-2.085
				c0.034,0.858,0.207,1.562,0.521,2.091c0.598,0.996,1.655,1.496,3.193,1.496c1.238,0,2.18-0.34,2.813-1.037
				c0.629-0.695,0.951-1.498,0.951-2.412c0-0.869-0.271-1.564-0.812-2.063c-0.364-0.331-0.644-0.497-0.835-0.497
				c0.258-0.098,0.51-0.285,0.746-0.564c0.38-0.437,0.566-0.976,0.566-1.609c0-0.9-0.314-1.616-0.951-2.149
				c-0.635-0.536-1.467-0.804-2.5-0.804c-0.555,0-1.025,0.063-1.408,0.199c-0.381,0.136-0.711,0.328-0.989,0.576
				c-0.379,0.358-0.647,0.752-0.823,1.178c-0.166,0.484-0.254,0.994-0.271,1.527h1.984c-0.013-0.527,0.1-0.953,0.338-1.273
				c0.236-0.32,0.604-0.479,1.102-0.479c0.438,0,0.775,0.129,1.02,0.391c0.236,0.261,0.361,0.593,0.361,1.008
				c0,0.633-0.236,1.061-0.711,1.268c-0.27,0.125-0.752,0.195-1.439,0.201v1.521c0.705,0,1.219,0.066,1.549,0.201
				c0.578,0.24,0.863,0.713,0.863,1.428c0,0.539-0.154,0.941-0.463,1.232C105.881,100.884,105.514,101.026,105.1,101.026z"/>
			
				<linearGradient id="SVGID_9_" gradientUnits="userSpaceOnUse" x1="93.436" y1="128.2461" x2="101.0239" y2="128.2461" gradientTransform="matrix(1 0 0 -1 24.9448 225.3594)">
				<stop  offset="0" style="stop-color:#0067F5"/>
				<stop  offset="1" style="stop-color:#003C8F"/>
			</linearGradient>
			<path fill="url(#SVGID_9_)" d="M124.743,102.492v-2.337h1.226v-1.658h-1.226v-6.764h-2.384l-3.979,6.568v1.854h4.283v2.337
				H124.743z M119.963,98.503l2.701-4.662v4.662H119.963z"/>
			
				<linearGradient id="SVGID_10_" gradientUnits="userSpaceOnUse" x1="101.9282" y1="128.0645" x2="109.4106" y2="128.0645" gradientTransform="matrix(1 0 0 -1 24.9448 225.3594)">
				<stop  offset="0" style="stop-color:#0067F5"/>
				<stop  offset="1" style="stop-color:#003C8F"/>
			</linearGradient>
			<path fill="url(#SVGID_10_)" d="M134.355,98.911c0-1.148-0.332-2.02-0.999-2.621c-0.669-0.596-1.445-0.9-2.34-0.9
				c-0.441,0-0.818,0.057-1.125,0.166c-0.185,0.068-0.438,0.213-0.765,0.43l0.385-2.36h4.418v-1.81h-5.953l-0.758,5.978l1.9,0.089
				c0.172-0.32,0.422-0.545,0.758-0.664c0.188-0.064,0.41-0.101,0.67-0.101c0.545,0,0.944,0.192,1.203,0.573
				c0.254,0.381,0.385,0.843,0.385,1.402c0,0.561-0.139,1.021-0.412,1.4c-0.275,0.367-0.678,0.557-1.205,0.557
				c-0.453,0-0.801-0.131-1.043-0.379c-0.237-0.249-0.396-0.604-0.48-1.072h-2.121c0.074,1.014,0.441,1.801,1.103,2.346
				c0.657,0.562,1.505,0.83,2.536,0.83c1.272,0,2.232-0.392,2.875-1.182C134.029,100.806,134.355,99.912,134.355,98.911z"/>
			
				<linearGradient id="SVGID_11_" gradientUnits="userSpaceOnUse" x1="110.5034" y1="128.1934" x2="117.979" y2="128.1934" gradientTransform="matrix(1 0 0 -1 24.9448 225.3594)">
				<stop  offset="0" style="stop-color:#0067F5"/>
				<stop  offset="1" style="stop-color:#003C8F"/>
			</linearGradient>
			<path fill="url(#SVGID_11_)" d="M139.215,102.767c1.269,0,2.205-0.379,2.809-1.15c0.598-0.773,0.9-1.665,0.9-2.672
				c0-1.014-0.306-1.846-0.918-2.502c-0.617-0.647-1.401-0.973-2.363-0.973c-0.447,0-0.844,0.072-1.194,0.215
				c-0.347,0.146-0.651,0.371-0.915,0.686c0.059-0.829,0.166-1.467,0.326-1.896c0.296-0.774,0.791-1.16,1.479-1.16
				c0.461,0,0.809,0.172,1.033,0.51c0.137,0.203,0.204,0.402,0.204,0.572h2.121c-0.077-0.856-0.412-1.545-1.01-2.053
				c-0.599-0.517-1.397-0.777-2.402-0.777c-0.696,0-1.294,0.164-1.798,0.48c-0.498,0.316-0.9,0.74-1.211,1.262
				c-0.359,0.61-0.602,1.375-0.727,2.299c-0.07,0.516-0.101,1.188-0.101,2.009c0,1.409,0.249,2.56,0.752,3.446
				C136.846,102.199,137.854,102.767,139.215,102.767z M138.209,97.495c0.278-0.217,0.598-0.325,0.963-0.325
				c0.446,0,0.826,0.166,1.133,0.504c0.314,0.331,0.463,0.817,0.463,1.451c0,0.565-0.137,1.024-0.409,1.38
				c-0.271,0.357-0.64,0.539-1.112,0.539c-0.486,0-0.884-0.189-1.197-0.557c-0.314-0.373-0.469-0.848-0.469-1.428
				C137.58,98.349,137.791,97.821,138.209,97.495z"/>
			
				<linearGradient id="SVGID_12_" gradientUnits="userSpaceOnUse" x1="118.9126" y1="128.2139" x2="126.5796" y2="128.2139" gradientTransform="matrix(1 0 0 -1 24.9448 225.3594)">
				<stop  offset="0" style="stop-color:#0067F5"/>
				<stop  offset="1" style="stop-color:#003C8F"/>
			</linearGradient>
			<path fill="url(#SVGID_12_)" d="M143.857,93.722h5.387c-0.527,0.51-1.178,1.418-1.963,2.715c-1.212,2.09-1.846,4.109-1.91,6.047
				h2.209c0-0.621,0.125-1.422,0.366-2.389c0.243-0.966,0.521-1.787,0.824-2.464c0.382-0.853,0.858-1.683,1.427-2.485
				s1.012-1.359,1.327-1.674v-1.664h-7.64L143.857,93.722z"/>
			
				<linearGradient id="SVGID_13_" gradientUnits="userSpaceOnUse" x1="135.9097" y1="128.166" x2="143.4282" y2="128.166" gradientTransform="matrix(1 0 0 -1 24.9448 225.3594)">
				<stop  offset="0" style="stop-color:#0067F5"/>
				<stop  offset="1" style="stop-color:#003C8F"/>
			</linearGradient>
			<path fill="url(#SVGID_13_)" d="M167.36,101.808c0.683-0.634,1.013-1.41,1.013-2.316c0-0.609-0.136-1.16-0.402-1.652
				c-0.266-0.49-0.676-0.889-1.207-1.186c0.525-0.295,0.863-0.65,1.019-1.055c0.16-0.408,0.231-0.787,0.231-1.143
				c0-0.781-0.297-1.455-0.889-2.009c-0.594-0.552-1.43-0.826-2.514-0.826c-1.078,0-1.919,0.28-2.512,0.826
				c-0.592,0.551-0.889,1.228-0.889,2.009c0,0.354,0.078,0.734,0.236,1.143c0.154,0.403,0.497,0.782,1.025,1.131
				c-0.534,0.244-0.938,0.617-1.203,1.108c-0.278,0.492-0.415,1.043-0.415,1.646c0,0.914,0.31,1.689,0.937,2.322
				c0.623,0.642,1.534,0.961,2.742,0.961C165.743,102.772,166.691,102.448,167.36,101.808z M163.61,93.698
				c0.243-0.237,0.575-0.361,1.007-0.361c0.434,0,0.766,0.112,1.002,0.361c0.236,0.242,0.354,0.574,0.354,1.001
				c0,0.396-0.117,0.714-0.354,0.966c-0.236,0.248-0.568,0.37-1.002,0.37c-0.432,0-0.764-0.122-1.007-0.37
				c-0.243-0.252-0.36-0.568-0.36-0.966C163.25,94.272,163.373,93.94,163.61,93.698z M163.065,99.349
				c0-0.554,0.137-0.972,0.421-1.256c0.284-0.289,0.663-0.436,1.139-0.436c0.473,0,0.853,0.146,1.137,0.436
				c0.277,0.284,0.42,0.702,0.42,1.256c0,0.533-0.143,0.947-0.414,1.238c-0.278,0.297-0.657,0.438-1.143,0.438
				c-0.486,0-0.871-0.143-1.145-0.438C163.196,100.292,163.065,99.884,163.065,99.349z"/>
			
				<linearGradient id="SVGID_14_" gradientUnits="userSpaceOnUse" x1="144.4614" y1="128.1709" x2="151.979" y2="128.1709" gradientTransform="matrix(1 0 0 -1 24.9448 225.3594)">
				<stop  offset="0" style="stop-color:#0067F5"/>
				<stop  offset="1" style="stop-color:#003C8F"/>
			</linearGradient>
			<path fill="url(#SVGID_14_)" d="M173.014,101.05c-0.355,0-0.652-0.095-0.873-0.296c-0.211-0.194-0.35-0.457-0.401-0.776h-2.121
				c0.097,0.92,0.468,1.623,1.114,2.102c0.646,0.482,1.374,0.72,2.186,0.72c1.7,0,2.867-0.832,3.508-2.501
				c0.332-0.873,0.498-1.966,0.498-3.271c0-1.348-0.172-2.438-0.521-3.262c-0.609-1.457-1.74-2.187-3.389-2.187
				c-1.066,0-1.932,0.354-2.605,1.071c-0.665,0.719-1.002,1.66-1.002,2.82c0,1.12,0.332,1.971,0.995,2.568
				c0.67,0.589,1.438,0.889,2.293,0.889c0.58,0,1.071-0.115,1.47-0.355c0.219-0.131,0.426-0.316,0.621-0.561
				c-0.042,0.824-0.136,1.448-0.289,1.872C174.209,100.671,173.711,101.05,173.014,101.05z M173.989,96.956
				c-0.261,0.166-0.545,0.25-0.835,0.25c-0.539,0-0.941-0.161-1.195-0.477c-0.262-0.324-0.397-0.805-0.397-1.447
				c0-0.762,0.208-1.301,0.616-1.62c0.254-0.201,0.568-0.308,0.936-0.308c0.492,0,0.883,0.184,1.174,0.539
				c0.284,0.357,0.428,0.848,0.428,1.451C174.707,96.108,174.463,96.646,173.989,96.956z"/>
			
				<linearGradient id="SVGID_15_" gradientUnits="userSpaceOnUse" x1="153.5591" y1="128.2734" x2="158.2813" y2="128.2734" gradientTransform="matrix(1 0 0 -1 24.9448 225.3594)">
				<stop  offset="0" style="stop-color:#0067F5"/>
				<stop  offset="1" style="stop-color:#003C8F"/>
			</linearGradient>
			<path fill="url(#SVGID_15_)" d="M183.226,102.492v-10.82h-1.777c0,0.095-0.03,0.243-0.083,0.437
				c-0.089,0.322-0.23,0.576-0.408,0.779c-0.272,0.283-0.623,0.471-1.043,0.563c-0.279,0.063-0.74,0.105-1.41,0.136v1.452h2.541
				v7.461h2.182L183.226,102.492L183.226,102.492z"/>
			
				<linearGradient id="SVGID_16_" gradientUnits="userSpaceOnUse" x1="161.4863" y1="128.3047" x2="168.8984" y2="128.3047" gradientTransform="matrix(1 0 0 -1 24.9448 225.3594)">
				<stop  offset="0" style="stop-color:#0067F5"/>
				<stop  offset="1" style="stop-color:#003C8F"/>
			</linearGradient>
			<path fill="url(#SVGID_16_)" d="M189.6,100.024c0.195-0.172,0.568-0.441,1.097-0.819l0.854-0.603
				c0.711-0.51,1.23-0.972,1.552-1.387c0.475-0.621,0.711-1.33,0.711-2.126c0-1.053-0.339-1.885-1.007-2.519
				c-0.682-0.641-1.594-0.95-2.737-0.95c-1.451,0-2.458,0.542-3.021,1.616c-0.303,0.566-0.469,1.311-0.504,2.23h2.067
				c0.028-0.604,0.106-1.052,0.243-1.33c0.23-0.486,0.675-0.72,1.32-0.72c0.474,0,0.828,0.147,1.09,0.45
				c0.25,0.302,0.38,0.681,0.38,1.141c0,0.565-0.22,1.081-0.67,1.555c-0.284,0.304-0.919,0.801-1.901,1.506
				c-1.125,0.806-1.843,1.568-2.146,2.289c-0.313,0.643-0.479,1.351-0.496,2.129h7.412v-1.877h-4.733
				C189.238,100.392,189.409,100.196,189.6,100.024z"/>
			
				<linearGradient id="SVGID_17_" gradientUnits="userSpaceOnUse" x1="178.3867" y1="128.1719" x2="185.8633" y2="128.1719" gradientTransform="matrix(1 0 0 -1 24.9448 225.3594)">
				<stop  offset="0" style="stop-color:#0067F5"/>
				<stop  offset="1" style="stop-color:#003C8F"/>
			</linearGradient>
			<path fill="url(#SVGID_17_)" d="M209.154,96.743c0.262-0.096,0.51-0.285,0.747-0.563c0.379-0.434,0.567-0.973,0.567-1.605
				c0-0.9-0.313-1.618-0.946-2.151c-0.636-0.538-1.47-0.805-2.501-0.805c-0.557,0-1.03,0.063-1.409,0.194
				c-0.386,0.137-0.711,0.332-0.996,0.582c-0.372,0.356-0.639,0.752-0.817,1.172c-0.164,0.486-0.254,0.994-0.277,1.533h1.984
				c-0.012-0.531,0.102-0.955,0.338-1.278c0.236-0.316,0.599-0.474,1.102-0.474c0.439,0,0.775,0.131,1.014,0.389
				c0.244,0.26,0.361,0.589,0.361,1.004c0,0.64-0.236,1.063-0.704,1.27c-0.272,0.123-0.747,0.193-1.446,0.199v1.521
				c0.705,0,1.228,0.068,1.553,0.205c0.574,0.24,0.865,0.713,0.865,1.424c0,0.539-0.16,0.949-0.463,1.236
				c-0.32,0.287-0.682,0.43-1.09,0.43c-0.682,0-1.154-0.262-1.41-0.782c-0.136-0.287-0.207-0.64-0.207-1.072h-2.086
				c0.03,0.858,0.201,1.558,0.516,2.085c0.6,1.002,1.658,1.5,3.193,1.5c1.244,0,2.18-0.344,2.813-1.037
				c0.635-0.693,0.954-1.498,0.954-2.414c0-0.867-0.272-1.562-0.813-2.059C209.629,96.909,209.35,96.743,209.154,96.743z"/>
			
				<linearGradient id="SVGID_18_" gradientUnits="userSpaceOnUse" x1="186.8809" y1="128.2461" x2="194.4648" y2="128.2461" gradientTransform="matrix(1 0 0 -1 24.9448 225.3594)">
				<stop  offset="0" style="stop-color:#0067F5"/>
				<stop  offset="1" style="stop-color:#003C8F"/>
			</linearGradient>
			<path fill="url(#SVGID_18_)" d="M218.194,91.733h-2.394l-3.976,6.568v1.854h4.277v2.337h2.085v-2.337h1.222v-1.658h-1.222v-6.764
				H218.194z M216.109,98.503h-2.701l2.701-4.662V98.503z"/>
			
				<linearGradient id="SVGID_19_" gradientUnits="userSpaceOnUse" x1="195.3711" y1="128.0664" x2="202.8477" y2="128.0664" gradientTransform="matrix(1 0 0 -1 24.9448 225.3594)">
				<stop  offset="0" style="stop-color:#0067F5"/>
				<stop  offset="1" style="stop-color:#003C8F"/>
			</linearGradient>
			<path fill="url(#SVGID_19_)" d="M224.463,95.39c-0.444,0-0.816,0.055-1.125,0.166c-0.185,0.067-0.438,0.213-0.766,0.428
				l0.387-2.359h4.418v-1.811h-5.953l-0.758,5.979l1.906,0.089c0.166-0.319,0.415-0.545,0.753-0.663
				c0.185-0.066,0.402-0.102,0.664-0.102c0.552,0,0.953,0.193,1.208,0.574c0.254,0.379,0.385,0.842,0.385,1.402
				c0,0.559-0.137,1.02-0.414,1.399c-0.279,0.366-0.676,0.557-1.203,0.557c-0.455,0-0.799-0.131-1.043-0.379
				c-0.235-0.249-0.396-0.604-0.479-1.071h-2.127c0.076,1.012,0.443,1.801,1.107,2.346c0.658,0.561,1.504,0.828,2.529,0.828
				c1.28,0,2.239-0.391,2.879-1.182c0.646-0.785,0.961-1.673,0.961-2.681c0-1.144-0.326-2.021-0.996-2.621
				C226.133,95.685,225.352,95.39,224.463,95.39z"/>
			
				<linearGradient id="SVGID_20_" gradientUnits="userSpaceOnUse" x1="203.9492" y1="128.1934" x2="211.4258" y2="128.1934" gradientTransform="matrix(1 0 0 -1 24.9448 225.3594)">
				<stop  offset="0" style="stop-color:#0067F5"/>
				<stop  offset="1" style="stop-color:#003C8F"/>
			</linearGradient>
			<path fill="url(#SVGID_20_)" d="M233.088,95.47c-0.443,0-0.848,0.07-1.197,0.213c-0.344,0.147-0.649,0.369-0.91,0.688
				c0.059-0.833,0.171-1.471,0.324-1.896c0.298-0.774,0.781-1.166,1.476-1.166c0.457,0,0.812,0.172,1.037,0.516
				c0.13,0.201,0.201,0.396,0.201,0.568h2.12c-0.076-0.855-0.414-1.547-1.012-2.057c-0.594-0.509-1.394-0.77-2.399-0.77
				c-0.693,0-1.298,0.158-1.796,0.479c-0.496,0.313-0.899,0.733-1.209,1.261c-0.36,0.607-0.598,1.375-0.723,2.293
				c-0.07,0.521-0.105,1.191-0.105,2.016c0,1.402,0.249,2.553,0.752,3.447c0.65,1.138,1.652,1.705,3.016,1.705
				c1.268,0,2.204-0.388,2.809-1.156c0.599-0.771,0.9-1.664,0.9-2.666c0-1.02-0.309-1.852-0.919-2.502
				C234.836,95.795,234.055,95.47,233.088,95.47z M233.811,100.511c-0.271,0.354-0.641,0.532-1.114,0.532
				c-0.483,0-0.883-0.185-1.196-0.551c-0.313-0.367-0.468-0.849-0.468-1.429c0-0.717,0.208-1.24,0.622-1.569
				c0.277-0.216,0.6-0.325,0.967-0.325c0.443,0,0.822,0.166,1.131,0.504c0.313,0.331,0.461,0.817,0.461,1.451
				C234.213,99.69,234.077,100.149,233.811,100.511z"/>
			
				<linearGradient id="SVGID_21_" gradientUnits="userSpaceOnUse" x1="75.5688" y1="160.0381" x2="84.061" y2="160.0381" gradientTransform="matrix(1 0 0 -1 24.9448 225.3594)">
				<stop  offset="0" style="stop-color:#0067F5"/>
				<stop  offset="1" style="stop-color:#003C8F"/>
			</linearGradient>
			<rect x="100.514" y="61.571" fill="url(#SVGID_21_)" width="8.492" height="7.5"/>
			
				<linearGradient id="SVGID_22_" gradientUnits="userSpaceOnUse" x1="54.3188" y1="160.0381" x2="62.811" y2="160.0381" gradientTransform="matrix(1 0 0 -1 24.9448 225.3594)">
				<stop  offset="0" style="stop-color:#0067F5"/>
				<stop  offset="1" style="stop-color:#003C8F"/>
			</linearGradient>
			<rect x="79.264" y="61.571" fill="url(#SVGID_22_)" width="8.492" height="7.5"/>
			
				<linearGradient id="SVGID_23_" gradientUnits="userSpaceOnUse" x1="54.8374" y1="149.916" x2="62.8091" y2="149.916" gradientTransform="matrix(1 0 0 -1 24.9448 225.3594)">
				<stop  offset="0" style="stop-color:#0067F5"/>
				<stop  offset="1" style="stop-color:#003C8F"/>
			</linearGradient>
			<path fill="url(#SVGID_23_)" d="M87.754,78.651v-6.416h-7.972C80.93,75.706,84.004,78.259,87.754,78.651z"/>
			
				<linearGradient id="SVGID_24_" gradientUnits="userSpaceOnUse" x1="65.9663" y1="149.8652" x2="72.4087" y2="149.8652" gradientTransform="matrix(1 0 0 -1 24.9448 225.3594)">
				<stop  offset="0" style="stop-color:#0067F5"/>
				<stop  offset="1" style="stop-color:#003C8F"/>
			</linearGradient>
			<rect x="90.911" y="72.235" fill="url(#SVGID_24_)" width="6.442" height="6.517"/>
			
				<linearGradient id="SVGID_25_" gradientUnits="userSpaceOnUse" x1="75.5688" y1="149.916" x2="83.5396" y2="149.916" gradientTransform="matrix(1 0 0 -1 24.9448 225.3594)">
				<stop  offset="0" style="stop-color:#0067F5"/>
				<stop  offset="1" style="stop-color:#003C8F"/>
			</linearGradient>
			<path fill="url(#SVGID_25_)" d="M108.484,72.235h-7.971v6.416C104.264,78.259,107.336,75.706,108.484,72.235z"/>
			
				<linearGradient id="SVGID_26_" gradientUnits="userSpaceOnUse" x1="65.9692" y1="165.2686" x2="83.7866" y2="165.2686" gradientTransform="matrix(1 0 0 -1 24.9448 225.3594)">
				<stop  offset="0" style="stop-color:#0067F5"/>
				<stop  offset="1" style="stop-color:#003C8F"/>
			</linearGradient>
			<path fill="url(#SVGID_26_)" d="M97.354,58.414h1.578h1.582h8.218c-0.985-4.185-4.722-7.31-9.207-7.31h-8.61v17.973h6.442V58.408
				h-0.003V58.414L97.354,58.414z"/>
			
				<linearGradient id="SVGID_27_" gradientUnits="userSpaceOnUse" x1="54.5923" y1="170.5498" x2="62.8091" y2="170.5498" gradientTransform="matrix(1 0 0 -1 24.9448 225.3594)">
				<stop  offset="0" style="stop-color:#0067F5"/>
				<stop  offset="1" style="stop-color:#003C8F"/>
			</linearGradient>
			<path fill="url(#SVGID_27_)" d="M87.754,51.205c-4.035,0.42-7.305,3.341-8.217,7.209h8.217V51.205z"/>
			
				<linearGradient id="SVGID_28_" gradientUnits="userSpaceOnUse" x1="152.6763" y1="171.7842" x2="205.7793" y2="171.7842" gradientTransform="matrix(1 0 0 -1 24.9448 225.3594)">
				<stop  offset="0" style="stop-color:#0067F5"/>
				<stop  offset="1" style="stop-color:#003C8F"/>
			</linearGradient>
			<path display="none" fill="url(#SVGID_28_)" d="M213.125,70.825c9.703,0,17.6-7.891,17.6-17.588
				c0-9.704-7.896-17.596-17.6-17.596c-3.449,0-6.654,1.01-9.379,2.73c-2.518-1.387-5.396-2.174-8.465-2.174
				c-9.738,0-17.66,7.921-17.66,17.66c0,9.732,7.922,17.65,17.66,17.65c3.495,0,6.753-1.039,9.502-2.796
				C207.266,70.056,210.103,70.825,213.125,70.825z M213.125,38.797c7.961,0,14.437,6.472,14.437,14.435
				c0,7.955-6.476,14.431-14.437,14.431c-1.979,0-3.863-0.403-5.586-1.132c0.33-0.323,0.645-0.663,0.952-1.014h-2.21h-0.622h-0.254
				c-0.237-0.188-0.444-0.396-0.676-0.598c-0.036-0.029-0.063-0.061-0.101-0.089c-0.705-0.634-1.375-1.31-1.961-2.067h3.95h2.026
				h1.843c0.401-0.681,0.771-1.386,1.077-2.123h-1.771h-1.795h-6.693c-0.469-0.875-0.848-1.793-1.145-2.752h8.969h1.646h1.671
				c0.185-0.773,0.319-1.57,0.396-2.375h-1.656h-1.582h-9.971c-0.106-0.711-0.227-1.423-0.227-2.156
				c0-0.203,0.061-0.395,0.064-0.599h10.185h1.582h1.635c-0.053-0.782-0.136-1.562-0.284-2.317h-1.617h-1.651h-9.615
				c0.177-0.953,0.462-1.865,0.812-2.748h7.832h1.771h1.684c-0.314-0.824-0.664-1.617-1.078-2.375h-1.873h-1.918h-5.213
				c0.604-0.992,1.285-1.926,2.09-2.752h0.445h2.451h2.127c-0.658-0.791-1.381-1.51-2.162-2.178
				C208.623,39.407,210.797,38.797,213.125,38.797z"/>
			
				<linearGradient id="SVGID_29_" gradientUnits="userSpaceOnUse" x1="54.3188" y1="102.3789" x2="62.1392" y2="102.3789" gradientTransform="matrix(1 0 0 -1 24.9448 225.3594)">
				<stop  offset="0" style="stop-color:#0067F5"/>
				<stop  offset="1" style="stop-color:#003C8F"/>
			</linearGradient>
			<polygon fill="url(#SVGID_29_)" points="85.203,124.888 81.373,118.159 79.264,118.159 79.264,127.802 81.143,127.802 
				81.143,120.961 85.069,127.802 87.084,127.802 87.084,118.159 85.203,118.159 			"/>
			
				<linearGradient id="SVGID_30_" gradientUnits="userSpaceOnUse" x1="63.395" y1="101.0898" x2="70.1021" y2="101.0898" gradientTransform="matrix(1 0 0 -1 24.9448 225.3594)">
				<stop  offset="0" style="stop-color:#0067F5"/>
				<stop  offset="1" style="stop-color:#003C8F"/>
			</linearGradient>
			<path fill="url(#SVGID_30_)" d="M94.66,126.813c-0.011-0.316-0.011-0.596-0.011-0.82v-3.273c0-0.857-0.306-1.445-0.912-1.752
				c-0.61-0.31-1.31-0.464-2.094-0.464c-1.2,0-2.06,0.313-2.552,0.938c-0.311,0.406-0.485,0.916-0.526,1.543h1.801
				c0.044-0.274,0.134-0.49,0.267-0.656c0.189-0.213,0.504-0.325,0.949-0.325c0.396,0,0.695,0.056,0.905,0.169
				c0.205,0.109,0.306,0.311,0.306,0.605c0,0.238-0.131,0.414-0.406,0.533c-0.148,0.065-0.397,0.112-0.743,0.16l-0.638,0.077
				c-0.729,0.095-1.273,0.243-1.646,0.462c-0.682,0.385-1.02,1.024-1.02,1.901c0,0.676,0.213,1.196,0.633,1.563
				c0.425,0.373,0.961,0.561,1.613,0.561c0.508,0,0.965-0.116,1.369-0.354c0.336-0.191,0.633-0.433,0.895-0.711
				c0.012,0.163,0.029,0.305,0.047,0.438c0.027,0.12,0.064,0.255,0.119,0.396h2.031v-0.267c-0.123-0.063-0.215-0.13-0.271-0.22
				C94.711,127.228,94.672,127.062,94.66,126.813z M92.789,125.036c-0.013,0.622-0.189,1.049-0.533,1.286
				c-0.347,0.235-0.724,0.354-1.125,0.354c-0.256,0-0.478-0.068-0.652-0.213c-0.18-0.143-0.271-0.374-0.271-0.688
				c0-0.361,0.147-0.623,0.441-0.795c0.174-0.096,0.458-0.184,0.855-0.254l0.424-0.078c0.209-0.039,0.379-0.082,0.502-0.129
				c0.125-0.043,0.246-0.103,0.365-0.18v0.693h-0.006V125.036z"/>
			
				<linearGradient id="SVGID_31_" gradientUnits="userSpaceOnUse" x1="71.3052" y1="101.2012" x2="81.5405" y2="101.2012" gradientTransform="matrix(1 0 0 -1 24.9448 225.3594)">
				<stop  offset="0" style="stop-color:#0067F5"/>
				<stop  offset="1" style="stop-color:#003C8F"/>
			</linearGradient>
			<path fill="url(#SVGID_31_)" d="M106.006,121.337c-0.25-0.303-0.521-0.52-0.826-0.643c-0.312-0.123-0.619-0.186-0.928-0.186
				c-0.474,0-0.899,0.102-1.285,0.297c-0.361,0.195-0.666,0.506-0.908,0.926c-0.137-0.344-0.342-0.635-0.614-0.854
				c-0.337-0.243-0.776-0.362-1.324-0.362c-0.577,0-1.045,0.137-1.407,0.426c-0.207,0.156-0.42,0.416-0.65,0.791v-1.047H96.25v7.123
				h1.896v-4.293c0-0.387,0.047-0.683,0.147-0.873c0.185-0.344,0.539-0.515,1.072-0.515c0.456,0,0.764,0.165,0.921,0.515
				c0.089,0.19,0.134,0.498,0.134,0.922v4.244h1.875v-4.244c0-0.315,0.049-0.588,0.15-0.819c0.195-0.427,0.551-0.642,1.068-0.642
				c0.447,0,0.75,0.168,0.916,0.496c0.089,0.174,0.133,0.398,0.133,0.666v4.543h1.91l0.013-4.49c0-0.461-0.021-0.816-0.065-1.055
				C106.344,121.896,106.207,121.589,106.006,121.337z"/>
			
				<linearGradient id="SVGID_32_" gradientUnits="userSpaceOnUse" x1="82.6899" y1="101.0947" x2="89.7607" y2="101.0947" gradientTransform="matrix(1 0 0 -1 24.9448 225.3594)">
				<stop  offset="0" style="stop-color:#0067F5"/>
				<stop  offset="1" style="stop-color:#003C8F"/>
			</linearGradient>
			<path fill="url(#SVGID_32_)" d="M114.639,123.347c-0.084-0.563-0.274-1.055-0.564-1.475c-0.326-0.479-0.74-0.829-1.232-1.055
				c-0.498-0.227-1.058-0.332-1.676-0.332c-1.05,0-1.896,0.326-2.551,0.988c-0.654,0.652-0.98,1.604-0.98,2.838
				c0,1.322,0.361,2.271,1.084,2.855c0.729,0.583,1.564,0.877,2.516,0.877c1.148,0,2.043-0.344,2.68-1.035
				c0.416-0.439,0.641-0.869,0.693-1.293h-1.9c-0.113,0.207-0.238,0.367-0.386,0.491c-0.267,0.22-0.61,0.326-1.037,0.326
				c-0.399,0-0.739-0.083-1.028-0.267c-0.465-0.287-0.72-0.791-0.746-1.512h5.193C114.713,124.147,114.69,123.674,114.639,123.347z
				 M109.555,123.531c0.068-0.468,0.23-0.828,0.498-1.104c0.261-0.275,0.634-0.41,1.113-0.41c0.438,0,0.807,0.129,1.103,0.391
				c0.296,0.248,0.462,0.628,0.497,1.125L109.555,123.531L109.555,123.531z"/>
			
				<linearGradient id="SVGID_33_" gradientUnits="userSpaceOnUse" x1="98.2993" y1="102.3789" x2="105.1333" y2="102.3789" gradientTransform="matrix(1 0 0 -1 24.9448 225.3594)">
				<stop  offset="0" style="stop-color:#0067F5"/>
				<stop  offset="1" style="stop-color:#003C8F"/>
			</linearGradient>
			<polygon fill="url(#SVGID_33_)" points="125.262,118.159 123.244,118.159 123.244,127.802 130.078,127.802 130.078,126.067 
				125.262,126.067 			"/>
			
				<linearGradient id="SVGID_34_" gradientUnits="userSpaceOnUse" x1="105.8599" y1="101.0879" x2="112.5669" y2="101.0879" gradientTransform="matrix(1 0 0 -1 24.9448 225.3594)">
				<stop  offset="0" style="stop-color:#0067F5"/>
				<stop  offset="1" style="stop-color:#003C8F"/>
			</linearGradient>
			<path fill="url(#SVGID_34_)" d="M137.118,126.813c-0.012-0.316-0.012-0.596-0.012-0.82v-3.273c0-0.857-0.306-1.445-0.912-1.752
				c-0.61-0.31-1.308-0.464-2.088-0.464c-1.206,0-2.06,0.313-2.55,0.938c-0.311,0.406-0.486,0.916-0.527,1.543h1.801
				c0.045-0.274,0.135-0.49,0.268-0.656c0.189-0.213,0.5-0.325,0.947-0.325c0.396,0,0.696,0.056,0.906,0.169
				c0.202,0.109,0.305,0.311,0.305,0.605c0,0.238-0.129,0.414-0.398,0.533c-0.148,0.065-0.396,0.112-0.747,0.16l-0.638,0.077
				c-0.727,0.095-1.275,0.243-1.648,0.462c-0.681,0.393-1.02,1.024-1.02,1.901c0,0.683,0.207,1.2,0.634,1.569
				c0.421,0.367,0.96,0.558,1.61,0.558c0.511,0,0.963-0.119,1.369-0.351c0.338-0.195,0.635-0.436,0.896-0.713
				c0.012,0.162,0.028,0.305,0.047,0.436c0.026,0.124,0.063,0.261,0.119,0.402h2.032v-0.272c-0.125-0.06-0.217-0.13-0.278-0.213
				C137.168,127.228,137.131,127.062,137.118,126.813z M135.243,125.036c-0.015,0.622-0.187,1.049-0.536,1.286
				c-0.341,0.235-0.717,0.354-1.125,0.354c-0.255,0-0.475-0.068-0.652-0.213c-0.18-0.143-0.268-0.374-0.268-0.688
				c0-0.361,0.143-0.623,0.438-0.795c0.178-0.096,0.462-0.184,0.854-0.254l0.422-0.078c0.211-0.039,0.379-0.082,0.504-0.129
				c0.125-0.043,0.246-0.103,0.365-0.18v0.693h-0.003V125.036z"/>
			
				<linearGradient id="SVGID_35_" gradientUnits="userSpaceOnUse" x1="113.3442" y1="101.1016" x2="119.8696" y2="101.1016" gradientTransform="matrix(1 0 0 -1 24.9448 225.3594)">
				<stop  offset="0" style="stop-color:#0067F5"/>
				<stop  offset="1" style="stop-color:#003C8F"/>
			</linearGradient>
			<path fill="url(#SVGID_35_)" d="M142.592,123.515c-1.115-0.244-1.762-0.42-1.942-0.522c-0.187-0.095-0.278-0.248-0.278-0.462
				c0-0.172,0.092-0.316,0.26-0.444c0.176-0.127,0.459-0.188,0.871-0.188c0.489,0,0.838,0.123,1.043,0.379
				c0.113,0.137,0.18,0.326,0.207,0.568h1.863c-0.08-0.865-0.402-1.486-0.969-1.837c-0.561-0.354-1.289-0.538-2.18-0.538
				c-0.941,0-1.668,0.233-2.187,0.711c-0.521,0.475-0.776,1.039-0.776,1.699c0,0.561,0.166,0.982,0.498,1.279
				c0.332,0.303,0.906,0.559,1.715,0.753c1.125,0.267,1.773,0.453,1.951,0.565c0.176,0.112,0.262,0.27,0.262,0.471
				c0,0.22-0.107,0.386-0.326,0.492c-0.219,0.105-0.506,0.164-0.879,0.164c-0.625,0-1.059-0.123-1.289-0.369
				c-0.131-0.141-0.219-0.377-0.254-0.707h-1.893c0,0.734,0.266,1.339,0.803,1.813c0.533,0.469,1.365,0.705,2.49,0.705
				c1.104,0,1.914-0.219,2.444-0.666c0.526-0.447,0.788-1.025,0.788-1.732c0-0.539-0.188-0.983-0.551-1.346
				C143.891,123.952,143.336,123.688,142.592,123.515z"/>
			
				<linearGradient id="SVGID_36_" gradientUnits="userSpaceOnUse" x1="120.5103" y1="102.0352" x2="124.5054" y2="102.0352" gradientTransform="matrix(1 0 0 -1 24.9448 225.3594)">
				<stop  offset="0" style="stop-color:#0067F5"/>
				<stop  offset="1" style="stop-color:#003C8F"/>
			</linearGradient>
			<path fill="url(#SVGID_36_)" d="M148.295,118.745h-1.846v1.99h-0.994v1.33h0.994v4.393c0,0.441,0.107,0.773,0.314,0.988
				c0.32,0.33,0.924,0.486,1.807,0.453l0.88-0.031v-1.396c-0.063,0.01-0.12,0.01-0.188,0.016c-0.059,0-0.121,0-0.176,0
				c-0.379,0-0.611-0.041-0.685-0.105c-0.074-0.07-0.11-0.255-0.11-0.552v-3.765h1.158v-1.33h-1.158v-1.99H148.295z"/>
			
				<linearGradient id="SVGID_37_" gradientUnits="userSpaceOnUse" x1="129.4419" y1="101.2031" x2="135.8745" y2="101.2031" gradientTransform="matrix(1 0 0 -1 24.9448 225.3594)">
				<stop  offset="0" style="stop-color:#0067F5"/>
				<stop  offset="1" style="stop-color:#003C8F"/>
			</linearGradient>
			<path fill="url(#SVGID_37_)" d="M158.326,120.504c-0.589,0-1.07,0.144-1.453,0.433c-0.211,0.16-0.441,0.428-0.68,0.789v-1.037
				h-1.807v7.121h1.863v-3.859c0-0.441,0.062-0.803,0.18-1.081c0.23-0.542,0.664-0.81,1.293-0.81c0.509,0,0.853,0.182,1.035,0.549
				c0.102,0.201,0.148,0.492,0.148,0.861v4.34h1.913v-4.799c0-0.895-0.229-1.541-0.698-1.92
				C159.653,120.694,159.055,120.504,158.326,120.504z"/>
			
				<linearGradient id="SVGID_38_" gradientUnits="userSpaceOnUse" x1="137.1304" y1="101.0879" x2="143.8306" y2="101.0879" gradientTransform="matrix(1 0 0 -1 24.9448 225.3594)">
				<stop  offset="0" style="stop-color:#0067F5"/>
				<stop  offset="1" style="stop-color:#003C8F"/>
			</linearGradient>
			<path fill="url(#SVGID_38_)" d="M168.391,126.813c-0.006-0.316-0.012-0.596-0.012-0.82v-3.273c0-0.857-0.302-1.445-0.912-1.752
				c-0.609-0.31-1.303-0.464-2.086-0.464c-1.201,0-2.062,0.313-2.554,0.938c-0.308,0.406-0.485,0.916-0.521,1.543h1.795
				c0.053-0.274,0.143-0.49,0.271-0.656c0.184-0.213,0.504-0.325,0.947-0.325c0.393,0,0.693,0.056,0.907,0.169
				c0.2,0.109,0.308,0.311,0.308,0.605c0,0.238-0.137,0.414-0.402,0.533c-0.153,0.065-0.402,0.112-0.746,0.16l-0.641,0.077
				c-0.723,0.095-1.279,0.243-1.646,0.462c-0.688,0.393-1.024,1.024-1.024,1.901c0,0.683,0.214,1.2,0.634,1.569
				c0.428,0.367,0.961,0.558,1.611,0.558c0.51,0,0.96-0.119,1.369-0.351c0.338-0.195,0.633-0.436,0.895-0.713
				c0.012,0.162,0.029,0.305,0.047,0.436c0.029,0.124,0.065,0.261,0.119,0.402h2.025v-0.272c-0.118-0.06-0.207-0.13-0.271-0.213
				C168.444,127.228,168.403,127.062,168.391,126.813z M166.525,125.036c-0.014,0.622-0.189,1.049-0.533,1.286
				c-0.344,0.235-0.717,0.354-1.131,0.354c-0.25,0-0.469-0.068-0.652-0.213c-0.178-0.143-0.267-0.374-0.267-0.688
				c0-0.361,0.147-0.623,0.442-0.795c0.174-0.096,0.457-0.184,0.849-0.254l0.427-0.078c0.215-0.039,0.379-0.082,0.504-0.129
				c0.125-0.043,0.242-0.103,0.361-0.18V125.036z"/>
			
				<linearGradient id="SVGID_39_" gradientUnits="userSpaceOnUse" x1="145.0356" y1="101.2012" x2="155.2778" y2="101.2012" gradientTransform="matrix(1 0 0 -1 24.9448 225.3594)">
				<stop  offset="0" style="stop-color:#0067F5"/>
				<stop  offset="1" style="stop-color:#003C8F"/>
			</linearGradient>
			<path fill="url(#SVGID_39_)" d="M179.741,121.337c-0.241-0.303-0.521-0.52-0.821-0.643c-0.31-0.123-0.617-0.186-0.932-0.186
				c-0.468,0-0.906,0.102-1.285,0.297c-0.367,0.195-0.67,0.506-0.906,0.926c-0.143-0.344-0.35-0.635-0.615-0.854
				c-0.338-0.243-0.782-0.362-1.321-0.362c-0.58,0-1.056,0.137-1.41,0.426c-0.2,0.156-0.427,0.416-0.657,0.791v-1.047h-1.813v7.123
				h1.895v-4.293c0-0.387,0.049-0.683,0.148-0.873c0.184-0.344,0.533-0.515,1.072-0.515c0.457,0,0.765,0.165,0.925,0.515
				c0.083,0.19,0.13,0.498,0.13,0.922v4.244h1.872v-4.244c0-0.315,0.054-0.588,0.153-0.819c0.195-0.427,0.558-0.642,1.066-0.642
				c0.444,0,0.752,0.168,0.924,0.496c0.084,0.174,0.131,0.398,0.131,0.666v4.543h1.914l0.012-4.49c0-0.461-0.029-0.816-0.07-1.055
				C180.08,121.896,179.943,121.589,179.741,121.337z"/>
			
				<linearGradient id="SVGID_40_" gradientUnits="userSpaceOnUse" x1="156.4214" y1="101.0947" x2="163.499" y2="101.0947" gradientTransform="matrix(1 0 0 -1 24.9448 225.3594)">
				<stop  offset="0" style="stop-color:#0067F5"/>
				<stop  offset="1" style="stop-color:#003C8F"/>
			</linearGradient>
			<path fill="url(#SVGID_40_)" d="M188.379,123.347c-0.082-0.563-0.277-1.055-0.567-1.475c-0.326-0.479-0.735-0.829-1.231-1.055
				c-0.498-0.219-1.056-0.332-1.678-0.332c-1.049,0-1.896,0.326-2.547,0.988c-0.657,0.652-0.989,1.604-0.989,2.838
				c0,1.322,0.367,2.271,1.091,2.855c0.723,0.583,1.563,0.877,2.512,0.877c1.148,0,2.043-0.344,2.684-1.035
				c0.415-0.439,0.641-0.869,0.688-1.293h-1.896c-0.112,0.207-0.243,0.367-0.386,0.491c-0.268,0.22-0.61,0.326-1.037,0.326
				c-0.402,0-0.746-0.083-1.029-0.267c-0.469-0.287-0.718-0.791-0.748-1.512h5.196C188.45,124.147,188.434,123.674,188.379,123.347z
				 M183.291,123.531c0.07-0.468,0.23-0.828,0.496-1.104c0.262-0.275,0.635-0.41,1.108-0.41c0.444,0,0.812,0.129,1.108,0.391
				c0.295,0.248,0.461,0.628,0.496,1.125L183.291,123.531L183.291,123.531z"/>
		</g>
	</g>
</g>
</svg>
