<svg width="200" height="146" viewBox="0 0 200 146" fill="none" xmlns="http://www.w3.org/2000/svg">
<path d="M57.0309 84.8983H142.478L148.731 87.3705L151.784 92.417L153.707 98.8826L150.686 109.404L142.478 112.746H57.0309L50.4394 109.682L47.9677 102.442V95.4802L49.8901 87.3705L57.0309 84.8983Z" fill="#DBFCFF"/>
<path d="M143.646 82.7654H57.3541C51.0957 82.7654 46 87.9321 46 94.2777V103.487C46 109.833 51.0957 115 57.3541 115H143.646C149.904 115 155 109.838 155 103.487V94.2777C155 87.9321 149.904 82.7654 143.646 82.7654ZM150.459 103.487C150.459 107.296 147.402 110.395 143.646 110.395H57.3541C53.598 110.395 50.5416 107.296 50.5416 103.487V94.2777C50.5416 90.4693 53.598 87.3703 57.3541 87.3703H143.646C147.402 87.3703 150.458 90.4693 150.458 94.2777L150.459 103.487Z" fill="#0963A1"/>
<path d="M125.479 50.5309C124.226 50.5309 123.208 51.5625 123.208 52.8335V85.068C123.208 86.339 124.226 87.3705 125.479 87.3705C126.733 87.3705 127.75 86.3438 127.75 85.068V52.8331C127.75 51.5623 126.733 50.5309 125.479 50.5309Z" fill="#0963A1"/>
<path d="M61.8959 101.185C63.1501 101.185 64.1668 100.154 64.1668 98.8828C64.1668 97.6111 63.1501 96.5803 61.8959 96.5803C60.6417 96.5803 59.625 97.6111 59.625 98.8828C59.625 100.154 60.6417 101.185 61.8959 101.185Z" fill="#0963A1"/>
<path d="M75.5209 101.185C76.7751 101.185 77.7918 100.154 77.7918 98.8828C77.7918 97.6111 76.7751 96.5803 75.5209 96.5803C74.2667 96.5803 73.25 97.6111 73.25 98.8828C73.25 100.154 74.2667 101.185 75.5209 101.185Z" fill="#0963A1"/>
<path d="M89.1459 101.185C90.4001 101.185 91.4168 100.154 91.4168 98.8828C91.4168 97.6111 90.4001 96.5803 89.1459 96.5803C87.8917 96.5803 86.875 97.6111 86.875 98.8828C86.875 100.154 87.8917 101.185 89.1459 101.185Z" fill="#0963A1"/>
<path d="M102.771 101.185C104.025 101.185 105.042 100.154 105.042 98.8828C105.042 97.6111 104.025 96.5803 102.771 96.5803C101.517 96.5803 100.5 97.6111 100.5 98.8828C100.5 100.154 101.517 101.185 102.771 101.185Z" fill="#0963A1"/>
<path d="M139.105 96.5803H116.396C115.143 96.5803 114.125 97.6118 114.125 98.8826C114.125 100.153 115.143 101.185 116.396 101.185H139.105C140.358 101.185 141.376 100.153 141.376 98.8826C141.375 97.6118 140.358 96.5803 139.105 96.5803Z" fill="#0963A1"/>
<path d="M118.667 52.8332C118.667 50.9867 119.375 49.2552 120.661 47.9475C121.546 47.0494 121.546 45.5896 120.661 44.6916C119.775 43.7937 118.335 43.7937 117.449 44.6916C115.306 46.8653 114.125 49.7574 114.125 52.8332C114.125 55.9094 115.306 58.8014 117.45 60.9747C117.895 61.4214 118.476 61.6472 119.058 61.6472C119.639 61.6472 120.22 61.4262 120.661 60.9747C121.547 60.0769 121.547 58.6168 120.661 57.719C119.375 56.4114 118.667 54.68 118.667 52.8332Z" fill="#0963A1"/>
<path d="M133.509 44.6918C132.624 43.7938 131.184 43.7938 130.298 44.6918C129.413 45.5897 129.413 47.0497 130.298 47.9475C131.584 49.2553 132.292 50.9867 132.292 52.8335C132.292 54.68 131.584 56.4159 130.294 57.7194C129.408 58.6173 129.408 60.0771 130.294 60.9751C130.739 61.4216 131.32 61.6476 131.901 61.6476C132.483 61.6476 133.064 61.4267 133.509 60.9751C135.653 58.8016 136.833 55.9097 136.833 52.8337C136.834 49.7573 135.653 46.8651 133.509 44.6918Z" fill="#0963A1"/>
<path d="M114.234 41.4408C115.12 40.5428 115.12 39.0829 114.234 38.1849C113.349 37.2871 111.909 37.2871 111.023 38.1849C103.057 46.2666 103.057 59.409 111.023 67.4906C111.468 67.9373 112.049 68.1631 112.631 68.1631C113.212 68.1631 113.794 67.9375 114.234 67.4906C115.12 66.5928 115.12 65.1328 114.234 64.235C108.039 57.9495 108.039 47.7264 114.234 41.4408Z" fill="#0963A1"/>
<path d="M139.931 38.1849C139.045 37.2871 137.606 37.2871 136.72 38.1849C135.834 39.0829 135.834 40.5428 136.72 41.4408C142.915 47.7264 142.915 57.9495 136.72 64.2351C135.834 65.1332 135.834 66.593 136.72 67.4908C137.165 67.9375 137.746 68.1633 138.328 68.1633C138.909 68.1633 139.486 67.9377 139.931 67.4908C147.897 59.4091 147.897 46.2666 139.931 38.1849Z" fill="#0963A1"/>
<path d="M107.812 34.9293C108.698 34.0312 108.698 32.5714 107.812 31.6734C106.927 30.7755 105.487 30.7755 104.601 31.6734C93.0926 43.3424 93.0926 62.3331 104.601 74.0019C105.046 74.4486 105.628 74.6744 106.209 74.6744C106.79 74.6744 107.372 74.4488 107.812 74.0019C108.698 73.1041 108.698 71.6442 107.812 70.7462C98.0703 60.8735 98.0703 44.8068 107.812 34.9293Z" fill="#0963A1"/>
<path d="M146.353 31.6737C145.467 30.7757 144.027 30.7757 143.142 31.6737C142.256 32.5715 142.256 34.0316 143.142 34.9294C152.884 44.8025 152.884 60.8692 143.142 70.7467C142.256 71.6446 142.256 73.1044 143.142 74.0024C143.587 74.4489 144.168 74.6747 144.749 74.6747C145.331 74.6747 145.912 74.4491 146.353 74.0024C157.861 62.3333 157.861 43.3425 146.353 31.6737Z" fill="#0963A1"/>
</svg>
