<?xml version="1.0" encoding="utf-8"?>
<!-- Generator: Adobe Illustrator 16.0.0, SVG Export Plug-In . SVG Version: 6.00 Build 0)  -->
<!DOCTYPE svg PUBLIC "-//W3C//DTD SVG 1.1//EN" "http://www.w3.org/Graphics/SVG/1.1/DTD/svg11.dtd">
<svg version="1.1" xmlns="http://www.w3.org/2000/svg" xmlns:xlink="http://www.w3.org/1999/xlink" x="0px" y="0px"
	 width="158.335px" height="43px" viewBox="524.166 78.667 158.335 43" enable-background="new 524.166 78.667 158.335 43"
	 xml:space="preserve">
<g id="Layer_1">
	<g id="Layer_1_1_">
		
			<linearGradient id="SVGID_1_" gradientUnits="userSpaceOnUse" x1="-1168.7891" y1="-38.6338" x2="-817.6968" y2="-38.6338" gradientTransform="matrix(1 0 0 -1 354 -12)">
			<stop  offset="0" style="stop-color:#00C6FB"/>
			<stop  offset="1" style="stop-color:#005BE8"/>
		</linearGradient>
		<path fill="url(#SVGID_1_)" d="M-814.789-184.902l69.745,71.153c0,0,105.73-1.981,140.898,0
			c100.037,5.636,90.879,137.375,0,140.897c-52.622,2.039-210.643,0-210.643,0v211.348h69.745V96.895
			c0,0,103.465,4.039,154.988-1.408c159.919-16.908,176.827-250.094,0-278.979C-606.874-186.24-814.789-184.902-814.789-184.902z"/>
	</g>
	<g id="Layer_2">
		
			<linearGradient id="SVGID_2_" gradientUnits="userSpaceOnUse" x1="-552.6089" y1="-36.562" x2="-525.605" y2="-36.562" gradientTransform="matrix(1 0 0 -1 354 -12)">
			<stop  offset="0" style="stop-color:#00C6FB"/>
			<stop  offset="1" style="stop-color:#005BE8"/>
		</linearGradient>
		<path fill="url(#SVGID_2_)" d="M-198.609,8.292l5.364,5.472c0,0,8.132-0.152,10.837,0c7.694,0.434,6.99,10.567,0,10.837
			c-4.048,0.156-16.201,0-16.201,0v16.256h5.364V29.967c0,0,7.958,0.311,11.922-0.107c12.299-1.301,13.6-19.236,0-21.458
			C-182.618,8.189-198.609,8.292-198.609,8.292z"/>
		<text transform="matrix(1 0 0 1 -168.5635 29.6455)" fill="#09518C" font-family="'MyriadPro-Bold'" font-size="38">ayvice</text>
		<rect x="-126.333" y="31.809" fill="#09518C" width="62.833" height="9.525"/>
		<text transform="matrix(1 0 0 1 -120.21 39.9229)" fill="#FFFFFF" font-family="'MyriadPro-Semibold'" font-size="9">Merchant</text>
	</g>
	<g id="Layer_3">
		
			<linearGradient id="SVGID_3_" gradientUnits="userSpaceOnUse" x1="-348" y1="-36.7051" x2="-320.9961" y2="-36.7051" gradientTransform="matrix(1 0 0 -1 354 -12)">
			<stop  offset="0" style="stop-color:#00C6FB"/>
			<stop  offset="1" style="stop-color:#00C6FB"/>
		</linearGradient>
		<path fill="url(#SVGID_3_)" d="M6,8.435l5.364,5.472c0,0,8.132-0.152,10.837,0c7.694,0.434,6.99,10.567,0,10.837
			C18.153,24.9,6,24.744,6,24.744V41h5.364V30.109c0,0,7.958,0.311,11.922-0.109c12.299-1.301,13.6-19.236,0-21.458
			C21.991,8.332,6,8.435,6,8.435z"/>
		<text transform="matrix(1 0 0 1 36.0459 29.7881)" fill="#FFFFFF" font-family="'MyriadPro-Bold'" font-size="38">ayvice</text>
		<rect x="78.001" y="31.809" fill="#FFFFFF" width="62.833" height="9.525"/>
		<g>
			<text transform="matrix(1 0 0 1 84.124 39.9229)" fill="#09518C" font-family="'MyriadPro-Semibold'" font-size="9">Merchant</text>
		</g>
	</g>
	<g id="Layer_4">
		
			<linearGradient id="SVGID_4_" gradientUnits="userSpaceOnUse" x1="-180.708" y1="-37.5" x2="-157.1938" y2="-37.5" gradientTransform="matrix(1 0 0 -1 354 -12)">
			<stop  offset="0" style="stop-color:#00C6FB"/>
			<stop  offset="1" style="stop-color:#005BE8"/>
		</linearGradient>
		<path fill="url(#SVGID_4_)" d="M173.292,11.333l4.671,4.766c0,0,7.08-0.133,9.437,0c6.699,0.378,6.088,9.201,0,9.437
			c-3.524,0.136-14.106,0-14.106,0v14.153h4.671v-9.483c0,0,6.93,0.271,10.381-0.094c10.709-1.133,11.842-16.75,0-18.685
			C187.217,11.243,173.292,11.333,173.292,11.333z"/>
		<text transform="matrix(1 0 0 1 199.4541 29.9258)" fill="#09518C" font-family="'MyriadPro-Bold'" font-size="33.0877">ayvice</text>
		<rect x="235.165" y="31.611" fill="#09518C" width="55.333" height="8.077"/>
		<text transform="matrix(1 0 0 1 244.7881 38.2588)" fill="#FFFFFF" font-family="'MyriadPro-Regular'" font-size="7">Merchant</text>
	</g>
	<g id="Layer_5">
		
			<linearGradient id="SVGID_5_" gradientUnits="userSpaceOnUse" x1="-10.915" y1="-36.7041" x2="12.5991" y2="-36.7041" gradientTransform="matrix(1 0 0 -1 354 -12)">
			<stop  offset="0" style="stop-color:#00C6FB"/>
			<stop  offset="1" style="stop-color:#005BE8"/>
		</linearGradient>
		<path fill="url(#SVGID_5_)" d="M343.085,10.537l4.67,4.767c0,0,7.08-0.134,9.438,0c6.699,0.377,6.087,9.2,0,9.436
			c-3.525,0.135-14.107,0-14.107,0v14.154h4.672v-9.484c0,0,6.929,0.271,10.381-0.094c10.709-1.133,11.842-16.749,0-18.685
			C357.009,10.448,343.085,10.537,343.085,10.537z"/>
		<text transform="matrix(1 0 0 1 369.2461 29.1299)" fill="#09518C" font-family="'MyriadPro-Bold'" font-size="33.0877">ayvice</text>
	</g>
</g>
<g id="Layer_2_1_">
	<g id="Layer_5_1_">
		<path fill="#19388B" d="M14.101,195.102l4.67,4.767c0,0,7.08-0.134,9.438,0c6.699,0.377,6.087,9.2,0,9.436
			c-3.525,0.135-14.107,0-14.107,0v14.154h4.672v-9.484c0,0,6.929,0.271,10.381-0.094c10.709-1.133,11.842-16.75,0-18.685
			C28.024,195.013,14.101,195.102,14.101,195.102z"/>
		<text transform="matrix(1 0 0 1 38.2617 213.6943)" enable-background="new    "><tspan x="0" y="0" fill="#19388B" font-family="'MyriadPro-Bold'" font-size="33.0877">ay</tspan><tspan x="34.775" y="0" fill="#2FAEFB" font-family="'MyriadPro-Bold'" font-size="33.0877">vice</tspan></text>
	</g>
</g>
<g id="Layer_3_1_">
	<g id="Layer_5_2_">
		<path fill="#19388B" d="M194.499,197.102l4.67,4.767c0,0,7.08-0.134,9.438,0c6.699,0.377,6.087,9.2,0,9.436
			c-3.525,0.135-14.107,0-14.107,0v14.154h4.672v-9.484c0,0,6.929,0.271,10.381-0.094c10.709-1.133,11.842-16.75,0-18.685
			C208.423,197.013,194.499,197.102,194.499,197.102z"/>
		<text transform="matrix(1 0 0 1 218.6602 215.6943)" enable-background="new    "><tspan x="0" y="0" fill="#19388B" font-family="'Sansation-Bold'" font-size="33.0877">ay</tspan><tspan x="35.802" y="0" fill="#2FAEFB" font-family="'Sansation-Bold'" font-size="33.0877">vice</tspan></text>
	</g>
</g>
<g id="Layer_4_1_">
	<g id="Layer_5_3_">
		<path fill="#19388B" d="M371,196.094v5.687c0,0,11.916-0.046,14.273,0.088c6.699,0.377,6.087,7.2,0,7.436
			c-3.525,0.135-14.273,0.009-14.273,0.009v15.126l5.838,0.02v-9.484c0,0,5.929,0.271,9.381-0.094
			c10.709-1.133,11.842-16.75,0-18.685C385.09,196.013,371,196.094,371,196.094z"/>
		<text transform="matrix(1 0 0 1 395.3271 214.6943)" enable-background="new    "><tspan x="0" y="0" fill="#19388B" font-family="'Ubuntu-Bold'" font-size="33.0877">ay</tspan><tspan x="36.396" y="0" fill="#2FAEFB" font-family="'Ubuntu-Bold'" font-size="33.0877">vice</tspan></text>
	</g>
</g>
<g id="Layer_5_4_">
	<linearGradient id="SVGID_6_" gradientUnits="userSpaceOnUse" x1="547.833" y1="195.1465" x2="535.8378" y2="215.9229">
		<stop  offset="0" style="stop-color:#19388B"/>
		<stop  offset="1" style="stop-color:#2575FC"/>
	</linearGradient>
	<path fill="url(#SVGID_6_)" d="M530.639,195.387v8.148c0,0,12.09-0.056,14.694,0c3.14,0.067,4.609,5.879,0,6.346
		c-1.802,0.183-6.078,0-6.078,0v8.015c0,0,4.562,0.088,6.078,0c15.028-0.867,14.494-21.841,0-22.509
		C541.664,195.218,533.444,195.387,530.639,195.387z"/>
	<linearGradient id="SVGID_7_" gradientUnits="userSpaceOnUse" x1="541.1982" y1="210.9648" x2="532.0862" y2="226.7474">
		<stop  offset="0" style="stop-color:#19388B"/>
		<stop  offset="1" style="stop-color:#2575FC"/>
	</linearGradient>
	<polygon fill="url(#SVGID_7_)" points="530.639,217.563 530.639,225.911 539.321,225.911 539.321,209.881 	"/>
	<text transform="matrix(1 0 0 1 557.5 218.5)"><tspan x="0" y="0" fill="#19388B" font-family="'Ubuntu-Bold'" font-size="40">ay</tspan><tspan x="44" y="0" fill="#00B9F5" font-family="'Ubuntu-Bold'" font-size="40">vice</tspan></text>
</g>
<g id="Layer_6">
	<linearGradient id="SVGID_8_" gradientUnits="userSpaceOnUse" x1="730.168" y1="195.1465" x2="718.1727" y2="215.9229">
		<stop  offset="0" style="stop-color:#19388B"/>
		<stop  offset="1" style="stop-color:#2575FC"/>
	</linearGradient>
	<path fill="url(#SVGID_8_)" d="M712.974,195.387v8.148c0,0,12.09-0.056,14.694,0c3.14,0.067,4.609,5.879,0,6.346
		c-1.802,0.183-6.078,0-6.078,0v8.015c0,0,4.562,0.088,6.078,0c15.028-0.867,14.494-21.841,0-22.509
		C723.999,195.218,715.779,195.387,712.974,195.387z"/>
	<linearGradient id="SVGID_9_" gradientUnits="userSpaceOnUse" x1="723.5342" y1="210.9648" x2="714.4221" y2="226.7474">
		<stop  offset="0" style="stop-color:#19388B"/>
		<stop  offset="1" style="stop-color:#2575FC"/>
	</linearGradient>
	<polygon fill="url(#SVGID_9_)" points="712.974,217.563 712.974,225.911 721.656,225.911 721.656,209.881 	"/>
	<text transform="matrix(1 0 0 1 739.835 218.5)"><tspan x="0" y="0" fill="#19388B" font-family="'FredokaOne-Regular'" font-size="40">ay</tspan><tspan x="47.999" y="0" fill="#00B9F5" font-family="'FredokaOne-Regular'" font-size="40">vice</tspan></text>
</g>
<g id="Layer_7">
	<linearGradient id="SVGID_10_" gradientUnits="userSpaceOnUse" x1="909.5029" y1="195.1465" x2="897.5077" y2="215.9229">
		<stop  offset="0" style="stop-color:#19388B"/>
		<stop  offset="1" style="stop-color:#2575FC"/>
	</linearGradient>
	<path fill="url(#SVGID_10_)" d="M892.309,195.387v8.148c0,0,12.09-0.056,14.694,0c3.14,0.067,4.609,5.879,0,6.346
		c-1.802,0.183-6.078,0-6.078,0v8.015c0,0,4.562,0.088,6.078,0c15.028-0.867,14.494-21.841,0-22.509
		C903.334,195.218,895.114,195.387,892.309,195.387z"/>
	<linearGradient id="SVGID_11_" gradientUnits="userSpaceOnUse" x1="902.8691" y1="210.9648" x2="893.7571" y2="226.7474">
		<stop  offset="0" style="stop-color:#19388B"/>
		<stop  offset="1" style="stop-color:#2575FC"/>
	</linearGradient>
	<polygon fill="url(#SVGID_11_)" points="892.309,217.563 892.309,225.911 900.991,225.911 900.991,209.881 	"/>
	<text transform="matrix(1 0 0 1 919.1699 217.5)"><tspan x="0" y="0" fill="#19388B" font-family="'NirmalaUI-Bold'" font-size="36">ay</tspan><tspan x="38.742" y="0" fill="#00B9F5" font-family="'NirmalaUI-Bold'" font-size="36">vice</tspan></text>
</g>
<g id="Layer_8">
	<linearGradient id="SVGID_12_" gradientUnits="userSpaceOnUse" x1="552.502" y1="86.1465" x2="540.5066" y2="106.9231">
		<stop  offset="0" style="stop-color:#19388B"/>
		<stop  offset="1" style="stop-color:#2575FC"/>
	</linearGradient>
	<path fill="url(#SVGID_12_)" d="M535.309,86.387v8.148c0,0,12.09-0.056,14.694,0c3.14,0.067,4.609,5.879,0,6.346
		c-1.802,0.183-6.078,0-6.078,0v8.015c0,0,4.562,0.088,6.078,0c15.028-0.867,14.494-21.841,0-22.509
		C546.334,86.218,538.114,86.387,535.309,86.387z"/>
	<linearGradient id="SVGID_13_" gradientUnits="userSpaceOnUse" x1="545.8691" y1="101.9648" x2="536.7573" y2="117.747">
		<stop  offset="0" style="stop-color:#19388B"/>
		<stop  offset="1" style="stop-color:#2575FC"/>
	</linearGradient>
	<polygon fill="url(#SVGID_13_)" points="535.309,108.563 535.309,116.911 543.991,116.911 543.991,100.881 	"/>
	<text transform="matrix(1 0 0 1 562.1699 108.5)"><tspan x="0" y="0" fill="#19388B" font-family="'Ubuntu-Bold'" font-size="36">ay</tspan><tspan x="39.6" y="0" fill="#00B9F5" font-family="'Ubuntu-Bold'" font-size="36">vice</tspan></text>
</g>
</svg>
