<?xml version="1.0" encoding="utf-8"?>
<!-- Generator: Adobe Illustrator 16.0.0, SVG Export Plug-In . SVG Version: 6.00 Build 0)  -->
<!DOCTYPE svg PUBLIC "-//W3C//DTD SVG 1.1//EN" "http://www.w3.org/Graphics/SVG/1.1/DTD/svg11.dtd">
<svg version="1.1" id="Layer_1" xmlns="http://www.w3.org/2000/svg" xmlns:xlink="http://www.w3.org/1999/xlink" x="0px" y="0px"
	 width="200px" height="146px" viewBox="0 0 200 146" enable-background="new 0 0 200 146" xml:space="preserve">
<path fill="#DBFCFF" d="M126.803,29.461H64.708V88h62.095V29.461z"/>
<rect x="52.046" y="29.5" fill="#FFFFFF" width="13.662" height="60"/>
<rect x="127.047" y="29.5" fill="#FFFFFF" width="13.661" height="60"/>
<path fill="#0963A1" d="M140.439,28h-12.121H64.683H52.562c-0.836,0-1.515,0.67-1.515,1.5v12v12V58v7.5v3v9v12
	c0,0.83,0.679,1.5,1.515,1.5h12.121h63.636h12.121c0.836,0,1.516-0.67,1.516-1.5v-12v-12v-12v-12v-12
	C141.955,28.67,141.275,28,140.439,28z M63.167,88h-9.091v-9h9.091V88z M63.167,76h-9.091v-7.5V67h9.091V76z M63.167,64h-9.091v-6
	v-3h9.091V64z M63.167,52h-9.091v-9h9.091V52z M63.167,40h-9.091v-9h9.091V40z M126.803,41.5v12v12v12V88H66.198V77.5v-12v-12v-12
	V31h60.607v10.5H126.803z M138.924,88h-9.09v-9h9.09V88z M138.924,76h-9.09v-9h9.09V76z M138.924,64h-9.09v-9h9.09V64z M138.924,52
	h-9.09v-9h9.09V52z M138.924,40h-9.09v-9h9.09V40z"/>
<polygon fill="#FFFFFF" stroke="#000000" stroke-miterlimit="10" points="78.549,42.895 113.858,57.463 78.549,75.241 "/>
<path fill="#0963A1" d="M115.264,56.616l-36.363-15c-0.47-0.195-1.001-0.143-1.423,0.136c-0.421,0.279-0.674,0.747-0.674,1.248v33
	c0,0.521,0.272,1.002,0.718,1.277c0.244,0.148,0.52,0.223,0.797,0.223c0.231,0,0.463-0.053,0.677-0.158l36.363-18
	c0.531-0.262,0.856-0.807,0.836-1.394C116.174,57.361,115.811,56.842,115.264,56.616z M79.833,73.572V45.25l31.21,12.875
	L79.833,73.572z"/>
<path fill="#0963A1" d="M128.318,104.602V99.18c1.004-0.812,3.135-2.18,6.061-2.18c0.889,0,3.984,0.186,6.532,2.588L143,97.414
	c-3.27-3.081-7.118-3.414-8.621-3.414c-3.496,0-6.079,1.426-7.579,2.547c-3.006-2.266-6.228-2.547-7.573-2.547
	c-3.494,0-6.078,1.426-7.578,2.547c-3.006-2.266-6.228-2.547-7.572-2.547c-3.496,0-6.079,1.426-7.58,2.547
	C93.491,94.281,90.27,94,88.924,94c-3.496,0-6.079,1.426-7.579,2.547C78.339,94.281,75.118,94,73.772,94
	c-3.492,0-6.076,1.424-7.576,2.545C64.697,95.424,62.113,94,58.621,94c-1.504,0-5.354,0.333-8.621,3.414l2.091,2.17
	C54.565,97.252,57.482,97,58.621,97c2.926,0,5.056,1.368,6.061,2.178v5.42c-2.733,0.332-4.79,1.496-6.064,2.449
	c-3.006-2.266-6.227-2.547-7.573-2.547v3c0.835,0,3.617,0.164,6.061,2.172V115h-6.06v3h7.576h15.151h15.151h15.152h15.15h15.151
	h7.576v-3h-6.062v-5.33c2.364-1.949,4.994-2.17,6.062-2.17v-3c-1.347,0-4.57,0.281-7.576,2.55
	C132.209,105.414,129.928,104.805,128.318,104.602z M72.258,115H60.137v-5.322c1.004-0.81,3.135-2.178,6.061-2.178
	c0.835,0,3.616,0.164,6.061,2.172V115z M73.771,107.047c-2.17-1.635-4.45-2.244-6.058-2.447v-5.422
	C68.718,98.368,70.848,97,73.773,97c0.835,0,3.617,0.164,6.061,2.172v5.426C77.101,104.932,75.044,106.094,73.771,107.047z
	 M87.41,115H75.289v-5.322c1.004-0.81,3.135-2.178,6.061-2.178c0.834,0,3.616,0.164,6.061,2.172V115z M88.921,107.047
	c-2.169-1.635-4.449-2.244-6.057-2.447v-5.422C83.869,98.368,85.999,97,88.925,97c0.835,0,3.617,0.164,6.061,2.172v5.426
	C92.252,104.932,90.196,106.094,88.921,107.047z M102.561,115H90.44v-5.322c1.004-0.81,3.134-2.178,6.061-2.178
	c0.835,0,3.617,0.164,6.06,2.172V115z M104.072,107.047c-2.17-1.635-4.449-2.244-6.057-2.447v-5.422
	c1.005-0.81,3.135-2.178,6.061-2.178c0.835,0,3.617,0.164,6.061,2.172v5.426C107.402,104.932,105.348,106.094,104.072,107.047z
	 M117.712,115h-12.121v-5.322c1.005-0.81,3.136-2.178,6.062-2.178c0.834,0,3.615,0.164,6.06,2.172V115z M119.225,107.047
	c-2.17-1.635-4.451-2.244-6.058-2.447v-5.422c1.005-0.81,3.136-2.178,6.062-2.178c0.834,0,3.615,0.164,6.06,2.172v5.426
	C122.555,104.932,120.499,106.094,119.225,107.047z M132.863,115h-12.12v-5.322c1.004-0.81,3.134-2.178,6.06-2.178
	c0.836,0,3.617,0.164,6.061,2.172V115z"/>
</svg>
