<?xml version="1.0" encoding="utf-8"?>
<!-- Generator: Adobe Illustrator 16.0.0, SVG Export Plug-In . SVG Version: 6.00 Build 0)  -->
<!DOCTYPE svg PUBLIC "-//W3C//DTD SVG 1.1//EN" "http://www.w3.org/Graphics/SVG/1.1/DTD/svg11.dtd">
<svg version="1.1" id="Layer_1" xmlns="http://www.w3.org/2000/svg" xmlns:xlink="http://www.w3.org/1999/xlink" x="0px" y="0px"
	 width="200px" height="146px" viewBox="0 0 200 146" enable-background="new 0 0 200 146" xml:space="preserve">
<path fill="#E2F5F7" d="M45.565,27.447H98.55v7.143l-3.652,3.373v40.081l53.658-51.588l6.543,1.587l2.498,4.167L108.46,82.568
	l-2.162,3.935v28.646H46.745V38.757l-1.179-3.77l-2.751-4.167v-2.976L45.565,27.447z"/>
<rect x="56.327" y="45.611" fill="#FFFFFF" stroke="#000000" stroke-miterlimit="10" width="30.823" height="33.533"/>
<path fill="#0963A1" d="M57.6,80.598h27.3c2.153-0.002,3.898-1.764,3.9-3.938V47.131c-0.002-2.173-1.747-3.935-3.9-3.937H57.6
	c-2.153,0.002-3.898,1.764-3.9,3.937V76.66C53.702,78.834,55.447,80.596,57.6,80.598z M75.15,76.66h-7.8v-3.937
	c0.001-1.087,0.874-1.967,1.95-1.969h3.9c1.076,0.001,1.949,0.882,1.95,1.969V76.66z M57.6,47.131h27.3l0.003,29.529H79.05v-3.937
	c-0.003-3.26-2.621-5.902-5.85-5.906h-3.9c-3.229,0.003-5.847,2.646-5.85,5.906v3.937H57.6V47.131z"/>
<path fill="#0963A1" d="M159,31.856c0.002-2.564-1.238-4.968-3.318-6.438c-2.082-1.47-4.744-1.821-7.129-0.94
	c-0.025,0.01-0.053,0.012-0.076,0.023c-1.047,0.386-1.998,0.997-2.789,1.79l-9.516,9.605l-0.001,0.001l-11.698,11.81l-0.002,0.001
	l-11.699,11.81v0.001L96.726,75.718c-0.042,0.023-0.084,0.045-0.126,0.069V38.895c2.331-0.829,3.893-3.049,3.9-5.543v-5.906
	c0-1.087-0.873-1.969-1.95-1.969H43.95c-1.077,0-1.95,0.881-1.95,1.969v5.906c0.007,2.494,1.569,4.714,3.9,5.542v75.168h-1.95
	c-1.077,0-1.95,0.881-1.95,1.969S42.873,118,43.95,118h101.4c1.078,0,1.95-0.881,1.95-1.969s-0.872-1.969-1.95-1.969H108.3V86.295
	l7.228-7.297l0.002-0.002l11.699-11.81v-0.001l11.699-11.811l0.002-0.001l11.698-11.811l0.001-0.001l6.083-6.142
	C158.172,35.942,158.993,33.942,159,31.856z M92.7,114.063H49.8V39.257h42.9V114.063z M94.65,35.32h-46.8
	c-1.076-0.001-1.949-0.882-1.95-1.968v-3.937h50.7v3.937C96.599,34.438,95.726,35.319,94.65,35.32z M104.4,114.063h-7.8V82.566
	c0-2.176,1.746-3.938,3.9-3.938c2.154,0,3.9,1.762,3.9,3.938V114.063z M112.2,76.789l-4.081,4.121
	c-0.6-2.748-2.607-4.965-5.266-5.813l9.347-9.434V76.789L112.2,76.789L112.2,76.789z M123.9,64.978l-7.801,7.875V61.727l7.801-7.875
	V64.978z M135.6,53.167l-7.8,7.874V49.915l7.8-7.875V53.167z M147.3,41.355l-7.8,7.874V38.104l7.8-7.874V41.355z M153.956,34.637
	l-2.756,2.782v-9.495c1.034-0.002,2.024,0.413,2.756,1.151c0.731,0.737,1.144,1.737,1.144,2.781
	C155.1,32.899,154.688,33.9,153.956,34.637z"/>
</svg>
