<?xml version="1.0" encoding="utf-8"?>
<!-- Generator: Adobe Illustrator 16.0.0, SVG Export Plug-In . SVG Version: 6.00 Build 0)  -->
<!DOCTYPE svg PUBLIC "-//W3C//DTD SVG 1.1//EN" "http://www.w3.org/Graphics/SVG/1.1/DTD/svg11.dtd">
<svg version="1.1" id="Layer_1" xmlns="http://www.w3.org/2000/svg" xmlns:xlink="http://www.w3.org/1999/xlink" x="0px" y="0px"
	 width="314px" height="195px" viewBox="0 -0.069 314 195" enable-background="new 0 -0.069 314 195" xml:space="preserve">
<g id="Layer_1_1_">
	<path fill="#B7DDF9" d="M108.005,69.062V35.54H97.691c-5.696,0-10.314,4.618-10.314,10.314v82.517
		c0,5.695,4.618,10.314,10.314,10.314h118.618c5.696,0,10.314-4.619,10.314-10.314v-7.734h-67.045
		C131.095,120.635,108.005,97.545,108.005,69.062z"/>
	<path fill="#B7DDF9" d="M126.056,35.54h46.417v25.786h-46.417V35.54z"/>
	<path fill="#B7DDF9" d="M175.051,79.376h51.572v30.942h-51.572c-8.545,0-15.473-6.926-15.473-15.471
		C159.579,86.304,166.506,79.376,175.051,79.376z"/>
	
		<linearGradient id="SVGID_1_" gradientUnits="userSpaceOnUse" x1="139.7915" y1="138.2471" x2="201.6797" y2="138.2471" gradientTransform="matrix(1 0 0 -1 24.9448 225.3594)">
		<stop  offset="0" style="stop-color:#0067F5"/>
		<stop  offset="1" style="stop-color:#003C8F"/>
	</linearGradient>
	<path fill="url(#SVGID_1_)" d="M180.208,71.64h46.416v30.944h-46.416c-8.544,0-15.472-6.928-15.472-15.472
		S171.664,71.64,180.208,71.64z"/>
	<path fill="#B7DDF9" d="M187.943,87.113c0,2.848-2.31,5.157-5.156,5.157c-2.848,0-5.157-2.31-5.157-5.157
		c0-2.849,2.31-5.158,5.157-5.158C185.634,81.955,187.943,84.264,187.943,87.113z"/>
	<path fill="#A8D5A6" d="M131.213,56.168h46.416"/>
	<g>
		
			<linearGradient id="SVGID_2_" gradientUnits="userSpaceOnUse" x1="114.0044" y1="189.8203" x2="142.3696" y2="189.8203" gradientTransform="matrix(1 0 0 -1 24.9448 225.3594)">
			<stop  offset="0" style="stop-color:#0067F5"/>
			<stop  offset="1" style="stop-color:#003C8F"/>
		</linearGradient>
		<path fill="url(#SVGID_2_)" d="M141.528,38.118h23.208c1.425,0,2.578-1.154,2.578-2.578c0-1.425-1.153-2.579-2.578-2.579h-23.208
			c-1.424,0-2.579,1.154-2.579,2.579C138.949,36.963,140.104,38.118,141.528,38.118z"/>
		
			<linearGradient id="SVGID_3_" gradientUnits="userSpaceOnUse" x1="114.0044" y1="179.5059" x2="129.4771" y2="179.5059" gradientTransform="matrix(1 0 0 -1 24.9448 225.3594)">
			<stop  offset="0" style="stop-color:#0067F5"/>
			<stop  offset="1" style="stop-color:#003C8F"/>
		</linearGradient>
		<path fill="url(#SVGID_3_)" d="M141.528,48.432h10.315c1.424,0,2.579-1.154,2.579-2.578s-1.155-2.579-2.579-2.579h-10.315
			c-1.424,0-2.579,1.155-2.579,2.579S140.104,48.432,141.528,48.432z"/>
		
			<linearGradient id="SVGID_4_" gradientUnits="userSpaceOnUse" x1="59.853" y1="138.2461" x2="204.2598" y2="138.2461" gradientTransform="matrix(1 0 0 -1 24.9448 225.3594)">
			<stop  offset="0" style="stop-color:#0067F5"/>
			<stop  offset="1" style="stop-color:#003C8F"/>
		</linearGradient>
		<path fill="url(#SVGID_4_)" d="M128.635,32.96H97.691c-7.12,0-12.893,5.773-12.893,12.894v82.517
			c0,7.12,5.773,12.895,12.893,12.895h118.618c7.121,0,12.896-5.772,12.896-12.895V45.854c0-7.12-5.772-12.894-12.896-12.894
			h-36.102 M224.045,100.005h-43.838c-7.12,0-12.893-5.772-12.893-12.893c0-7.121,5.771-12.894,12.893-12.894h43.838V100.005z
			 M175.051,53.59h-41.259 M216.309,136.107H97.691c-3.27-0.01-6.182-2.074-7.271-5.157h7.271c1.424,0,2.579-1.155,2.579-2.579
			s-1.155-2.578-2.579-2.578h-7.736v-77.36h7.736c1.424,0,2.579-1.154,2.579-2.578s-1.155-2.579-2.579-2.579H90.42
			c1.089-3.083,4.001-5.148,7.271-5.157h30.944V56.17c0,1.424,1.155,2.579,2.579,2.579h46.416c1.425,0,2.578-1.155,2.578-2.579
			V38.118h36.103c3.271,0.009,6.184,2.074,7.271,5.157h-7.271c-1.424,0-2.578,1.155-2.578,2.579s1.154,2.578,2.578,2.578h7.735
			v20.63h-43.838c-9.97,0-18.051,8.081-18.051,18.051c0,9.969,8.081,18.05,18.051,18.05h43.838v20.63h-7.735
			c-1.424,0-2.578,1.154-2.578,2.578s1.154,2.579,2.578,2.579h7.271C222.492,134.033,219.579,136.098,216.309,136.107z"/>
		
			<linearGradient id="SVGID_5_" gradientUnits="userSpaceOnUse" x1="150.106" y1="138.2471" x2="165.5762" y2="138.2471" gradientTransform="matrix(1 0 0 -1 24.9448 225.3594)">
			<stop  offset="0" style="stop-color:#0067F5"/>
			<stop  offset="1" style="stop-color:#003C8F"/>
		</linearGradient>
		<path fill="url(#SVGID_5_)" d="M175.051,87.113c0,4.271,3.463,7.735,7.735,7.735s7.735-3.464,7.735-7.735
			c0-4.272-3.463-7.736-7.735-7.736S175.051,82.84,175.051,87.113z M182.787,84.534c1.425,0,2.579,1.154,2.579,2.579
			c0,1.424-1.154,2.578-2.579,2.578c-1.424,0-2.579-1.154-2.579-2.578C180.208,85.688,181.363,84.534,182.787,84.534z"/>
		
			<linearGradient id="SVGID_6_" gradientUnits="userSpaceOnUse" x1="85.6392" y1="179.5059" x2="101.1113" y2="179.5059" gradientTransform="matrix(1 0 0 -1 24.9448 225.3594)">
			<stop  offset="0" style="stop-color:#0067F5"/>
			<stop  offset="1" style="stop-color:#003C8F"/>
		</linearGradient>
		<path fill="url(#SVGID_6_)" d="M113.163,48.432h10.314c1.424,0,2.579-1.154,2.579-2.578s-1.155-2.579-2.579-2.579h-10.314
			c-1.424,0-2.579,1.155-2.579,2.579S111.739,48.432,113.163,48.432z"/>
		
			<linearGradient id="SVGID_7_" gradientUnits="userSpaceOnUse" x1="162.998" y1="179.5059" x2="178.4707" y2="179.5059" gradientTransform="matrix(1 0 0 -1 24.9448 225.3594)">
			<stop  offset="0" style="stop-color:#0067F5"/>
			<stop  offset="1" style="stop-color:#003C8F"/>
		</linearGradient>
		<path fill="url(#SVGID_7_)" d="M190.521,48.432h10.314c1.426,0,2.579-1.154,2.579-2.578s-1.153-2.579-2.579-2.579h-10.314
			c-1.424,0-2.578,1.155-2.578,2.579S189.098,48.432,190.521,48.432z"/>
		
			<linearGradient id="SVGID_8_" gradientUnits="userSpaceOnUse" x1="162.998" y1="96.9888" x2="178.4707" y2="96.9888" gradientTransform="matrix(1 0 0 -1 24.9448 225.3594)">
			<stop  offset="0" style="stop-color:#0067F5"/>
			<stop  offset="1" style="stop-color:#003C8F"/>
		</linearGradient>
		<path fill="url(#SVGID_8_)" d="M200.837,125.792h-10.315c-1.424,0-2.578,1.153-2.578,2.578c0,1.424,1.154,2.579,2.578,2.579
			h10.315c1.425,0,2.579-1.155,2.579-2.579C203.416,126.945,202.262,125.792,200.837,125.792z"/>
		
			<linearGradient id="SVGID_9_" gradientUnits="userSpaceOnUse" x1="137.2134" y1="96.9888" x2="152.6841" y2="96.9888" gradientTransform="matrix(1 0 0 -1 24.9448 225.3594)">
			<stop  offset="0" style="stop-color:#0067F5"/>
			<stop  offset="1" style="stop-color:#003C8F"/>
		</linearGradient>
		<path fill="url(#SVGID_9_)" d="M175.051,125.792h-10.314c-1.424,0-2.578,1.153-2.578,2.578c0,1.424,1.154,2.579,2.578,2.579
			h10.314c1.424,0,2.578-1.155,2.578-2.579C177.629,126.945,176.475,125.792,175.051,125.792z"/>
		
			<linearGradient id="SVGID_10_" gradientUnits="userSpaceOnUse" x1="85.6401" y1="96.9888" x2="101.1123" y2="96.9888" gradientTransform="matrix(1 0 0 -1 24.9448 225.3594)">
			<stop  offset="0" style="stop-color:#0067F5"/>
			<stop  offset="1" style="stop-color:#003C8F"/>
		</linearGradient>
		<path fill="url(#SVGID_10_)" d="M123.478,125.792h-10.314c-1.424,0-2.579,1.153-2.579,2.578c0,1.424,1.154,2.579,2.579,2.579
			h10.314c1.424,0,2.579-1.155,2.579-2.579C126.057,126.945,124.901,125.792,123.478,125.792z"/>
		
			<linearGradient id="SVGID_11_" gradientUnits="userSpaceOnUse" x1="111.4253" y1="96.9888" x2="126.8979" y2="96.9888" gradientTransform="matrix(1 0 0 -1 24.9448 225.3594)">
			<stop  offset="0" style="stop-color:#0067F5"/>
			<stop  offset="1" style="stop-color:#003C8F"/>
		</linearGradient>
		<path fill="url(#SVGID_11_)" d="M149.264,125.792h-10.315c-1.424,0-2.579,1.153-2.579,2.578c0,1.424,1.155,2.579,2.579,2.579
			h10.315c1.424,0,2.579-1.155,2.579-2.579C151.843,126.945,150.688,125.792,149.264,125.792z"/>
		<path display="none" fill="#358786" d="M120.899,74.219c2.848,0,5.157,2.309,5.157,5.157c0,1.424,1.155,2.578,2.579,2.578
			c1.424,0,2.579-1.154,2.579-2.578c-0.015-4.691-3.194-8.781-7.736-9.953v-2.94c0-1.424-1.155-2.578-2.579-2.578
			s-2.579,1.154-2.579,2.578v2.94c-4.966,1.349-8.179,6.15-7.53,11.255c0.65,5.105,4.962,8.951,10.108,9.013
			c2.848,0,5.157,2.31,5.157,5.157c0,2.849-2.309,5.157-5.157,5.157s-5.157-2.309-5.157-5.157c0-1.424-1.155-2.578-2.579-2.578
			c-1.424,0-2.579,1.154-2.579,2.578c0.015,4.691,3.194,8.781,7.736,9.953v2.94c0,1.424,1.154,2.577,2.579,2.577
			c1.424,0,2.579-1.153,2.579-2.577v-2.94c4.966-1.349,8.179-6.15,7.529-11.255c-0.649-5.105-4.962-8.951-10.108-9.013
			c-2.848,0-5.157-2.31-5.157-5.157C115.742,76.528,118.051,74.219,120.899,74.219z"/>
		
			<linearGradient id="SVGID_12_" gradientUnits="userSpaceOnUse" x1="111.4253" y1="138.2461" x2="124.3193" y2="138.2461" gradientTransform="matrix(1 0 0 -1 24.9448 225.3594)">
			<stop  offset="0" style="stop-color:#0067F5"/>
			<stop  offset="1" style="stop-color:#003C8F"/>
		</linearGradient>
		<path fill="url(#SVGID_12_)" d="M138.949,89.691h7.736c1.424,0,2.579-1.154,2.579-2.578c0-1.425-1.155-2.579-2.579-2.579h-7.736
			c-1.424,0-2.579,1.154-2.579,2.579C136.371,88.537,137.525,89.691,138.949,89.691z"/>
		
			<linearGradient id="SVGID_13_" gradientUnits="userSpaceOnUse" x1="70.167" y1="138.2461" x2="83.061" y2="138.2461" gradientTransform="matrix(1 0 0 -1 24.9448 225.3594)">
			<stop  offset="0" style="stop-color:#0067F5"/>
			<stop  offset="1" style="stop-color:#003C8F"/>
		</linearGradient>
		<path fill="url(#SVGID_13_)" d="M105.427,84.534h-7.736c-1.424,0-2.579,1.154-2.579,2.579c0,1.424,1.155,2.578,2.579,2.578h7.736
			c1.424,0,2.579-1.154,2.579-2.578C108.005,85.688,106.851,84.534,105.427,84.534z"/>
	</g>
</g>
<g id="Layer_2">
	
		<linearGradient id="SVGID_14_" gradientUnits="userSpaceOnUse" x1="116.6421" y1="209.3154" x2="155.8823" y2="209.3154" gradientTransform="matrix(1 0 0 -1 24.9448 225.3594)">
		<stop  offset="0" style="stop-color:#0067F5"/>
		<stop  offset="1" style="stop-color:#003C8F"/>
	</linearGradient>
	<path fill="url(#SVGID_14_)" d="M155.321,27.162c0.284,0.212,0.627,0.327,0.981,0.327c0.257,0.005,0.511-0.057,0.737-0.18
		c0.549-0.277,0.896-0.84,0.898-1.456v-3.27h21.254c0.904,0,1.636-0.732,1.636-1.635v-9.811c0-0.903-0.731-1.634-1.636-1.634
		h-21.254V6.232c0-0.615-0.351-1.177-0.898-1.455c-0.555-0.281-1.22-0.224-1.718,0.147l-13.08,9.81
		c-0.411,0.309-0.654,0.793-0.654,1.308s0.243,1,0.654,1.309L155.321,27.162z M154.667,9.504v1.634c0,0.903,0.732,1.635,1.634,1.635
		h21.256v6.54h-21.256c-0.902,0-1.634,0.732-1.634,1.636v1.635l-8.715-6.54L154.667,9.504z"/>
	
		<linearGradient id="SVGID_15_" gradientUnits="userSpaceOnUse" x1="112.645" y1="68.3135" x2="151.8833" y2="68.3135" gradientTransform="matrix(1 0 0 -1 24.9448 225.3594)">
		<stop  offset="0" style="stop-color:#0067F5"/>
		<stop  offset="1" style="stop-color:#003C8F"/>
	</linearGradient>
	<path fill="url(#SVGID_15_)" d="M163.092,145.93c-0.283-0.213-0.627-0.328-0.98-0.328c-0.256-0.004-0.51,0.059-0.735,0.18
		c-0.549,0.277-0.896,0.842-0.897,1.455v3.271h-21.253c-0.903,0-1.635,0.73-1.635,1.635v9.813c0,0.902,0.731,1.634,1.635,1.634
		h21.253v3.271c0.002,0.615,0.351,1.178,0.897,1.453c0.556,0.28,1.222,0.226,1.718-0.146l13.08-9.812
		c0.411-0.309,0.654-0.793,0.654-1.308c0-0.517-0.243-1-0.654-1.31L163.092,145.93z M163.746,163.586v-1.634
		c0-0.903-0.73-1.636-1.635-1.636h-21.255v-6.539h21.255c0.902,0,1.635-0.732,1.635-1.637v-1.636l8.716,6.54L163.746,163.586z"/>
</g>
</svg>
