<svg width="70" height="70" viewBox="0 0 70 70" fill="none" xmlns="http://www.w3.org/2000/svg">
<circle cx="35" cy="35" r="35" fill="#3B549B"/>
<path d="M31.748 30.6211H34.1914C35.7266 30.5977 36.9336 30.1934 37.8125 29.4082C38.6914 28.623 39.1309 27.5625 39.1309 26.2266C39.1309 23.2266 37.6367 21.7266 34.6484 21.7266C33.2422 21.7266 32.1172 22.1309 31.2734 22.9395C30.4414 23.7363 30.0254 24.7969 30.0254 26.1211H26.7734C26.7734 24.0938 27.5117 22.4121 28.9883 21.0762C30.4766 19.7285 32.3633 19.0547 34.6484 19.0547C37.0625 19.0547 38.9551 19.6934 40.3262 20.9707C41.6973 22.248 42.3828 24.0234 42.3828 26.2969C42.3828 27.4102 42.0195 28.4883 41.293 29.5312C40.5781 30.5742 39.5996 31.3535 38.3574 31.8691C39.7637 32.3145 40.8477 33.0527 41.6094 34.084C42.3828 35.1152 42.7695 36.375 42.7695 37.8633C42.7695 40.1602 42.0195 41.9824 40.5195 43.3301C39.0195 44.6777 37.0684 45.3516 34.666 45.3516C32.2637 45.3516 30.3066 44.7012 28.7949 43.4004C27.2949 42.0996 26.5449 40.3828 26.5449 38.25H29.8145C29.8145 39.5977 30.2539 40.6758 31.1328 41.4844C32.0117 42.293 33.1895 42.6973 34.666 42.6973C36.2363 42.6973 37.4375 42.2871 38.2695 41.4668C39.1016 40.6465 39.5176 39.4688 39.5176 37.9336C39.5176 36.4453 39.0605 35.3027 38.1465 34.5059C37.2324 33.709 35.9141 33.2988 34.1914 33.2754H31.748V30.6211Z" fill="white"/>
</svg>