<svg width="70" height="70" viewBox="0 0 70 70" fill="none" xmlns="http://www.w3.org/2000/svg">
<circle cx="35" cy="35" r="35" fill="#3B549B"/>
<path d="M43.7891 45H27.0195V42.6621L35.8789 32.8184C37.1914 31.3301 38.0938 30.123 38.5859 29.1973C39.0898 28.2598 39.3418 27.293 39.3418 26.2969C39.3418 24.9609 38.9375 23.8652 38.1289 23.0098C37.3203 22.1543 36.2422 21.7266 34.8945 21.7266C33.2773 21.7266 32.0176 22.1895 31.1152 23.1152C30.2246 24.0293 29.7793 25.3066 29.7793 26.9473H26.5273C26.5273 24.5918 27.2832 22.6875 28.7949 21.2344C30.3184 19.7812 32.3516 19.0547 34.8945 19.0547C37.2734 19.0547 39.1543 19.6816 40.5371 20.9355C41.9199 22.1777 42.6113 23.8359 42.6113 25.9102C42.6113 28.4297 41.0059 31.4297 37.7949 34.9102L30.9395 42.3457H43.7891V45Z" fill="white"/>
</svg>