<?xml version="1.0" encoding="utf-8"?>
<!-- Generator: Adobe Illustrator 16.0.0, SVG Export Plug-In . SVG Version: 6.00 Build 0)  -->
<!DOCTYPE svg PUBLIC "-//W3C//DTD SVG 1.1//EN" "http://www.w3.org/Graphics/SVG/1.1/DTD/svg11.dtd">
<svg version="1.1"
	 id="svg2" xmlns:rdf="http://www.w3.org/1999/02/22-rdf-syntax-ns#" xmlns:sodipodi="http://sodipodi.sourceforge.net/DTD/sodipodi-0.dtd" xmlns:cc="http://creativecommons.org/ns#" xmlns:svg="http://www.w3.org/2000/svg" xmlns:inkscape="http://www.inkscape.org/namespaces/inkscape" xmlns:dc="http://purl.org/dc/elements/1.1/" inkscape:version="0.91 r13725" sodipodi:docname="google-play-badge.svg"
	 xmlns="http://www.w3.org/2000/svg" xmlns:xlink="http://www.w3.org/1999/xlink" x="0px" y="0px" width="135.717px" height="38px"
	 viewBox="0 1.01 135.717 38" enable-background="new 0 1.01 135.717 38" xml:space="preserve">
<pattern  x="-352.642" y="317.51" width="124" height="48" patternUnits="userSpaceOnUse" id="path152_1_" viewBox="0 -48 124 48" overflow="visible">
	<g>
		<polygon fill="none" points="0,0 124,0 124,-48 0,-48 		"/>
		<g>
			<polygon fill="none" points="0,-48 124,-48 124,0 0,0 			"/>
			<g id="g136_1_">
			</g>
			<g id="g138_1_">
				<g>
					<g>
						<defs>
							<rect id="SVGID_1_" y="-48" width="124" height="48"/>
						</defs>
						<clipPath id="SVGID_2_">
							<use xlink:href="#SVGID_1_"  overflow="visible"/>
						</clipPath>
						<g id="g140_1_" clip-path="url(#SVGID_2_)">
							<g id="g142_1_">
								<path id="path144_1_" d="M29.625-27.305l-11.613-6.598c-0.649-0.371-1.231-0.345-1.606-0.009l-0.058-0.063l0.058-0.059
									c0.375-0.336,0.957-0.359,1.606,0.012l11.687,6.642L29.625-27.305z"/>
							</g>
						</g>
					</g>
				</g>
			</g>
		</g>
	</g>
</pattern>
<pattern  x="-352.642" y="317.51" width="124" height="48" patternUnits="userSpaceOnUse" id="path200_1_" viewBox="0 -48 124 48" overflow="visible">
	<g>
		<polygon fill="none" points="0,0 124,0 124,-48 0,-48 		"/>
		<g>
			<polygon fill="none" points="0,-48 124,-48 124,0 0,0 			"/>
			<g id="g184_1_">
			</g>
			<g id="g186_1_">
				<g>
					<g>
						<defs>
							<rect id="SVGID_3_" y="-48" width="124" height="48"/>
						</defs>
						<clipPath id="SVGID_4_">
							<use xlink:href="#SVGID_3_"  overflow="visible"/>
						</clipPath>
						<g id="g188_1_" clip-path="url(#SVGID_4_)">
							<g id="g190_1_">
								<path id="path192_1_" d="M16.348-33.855c-0.235,0.246-0.371,0.629-0.371,1.125v-0.117c0-0.496,0.136-0.879,0.371-1.125
									l0.058,0.063L16.348-33.855z"/>
							</g>
						</g>
					</g>
				</g>
			</g>
		</g>
	</g>
</pattern>
<pattern  x="-352.642" y="317.51" width="124" height="48" patternUnits="userSpaceOnUse" id="path248_1_" viewBox="0 -48 124 48" overflow="visible">
	<g>
		<polygon fill="none" points="0,0 124,0 124,-48 0,-48 		"/>
		<g>
			<polygon fill="none" points="0,-48 124,-48 124,0 0,0 			"/>
			<g id="g232_1_">
			</g>
			<g id="g234_1_">
				<g>
					<g>
						<defs>
							<rect id="SVGID_5_" y="-48" width="124" height="48"/>
						</defs>
						<clipPath id="SVGID_6_">
							<use xlink:href="#SVGID_5_"  overflow="visible"/>
						</clipPath>
						<g id="g236_1_" clip-path="url(#SVGID_6_)">
							<g id="g238_1_">
								<path id="path240_1_" d="M33.613-25.039l-3.988-2.266l0.074-0.074l3.914,2.223c0.559,0.316,0.836,0.734,0.836,1.156
									C34.402-24.379,34.117-24.75,33.613-25.039z"/>
							</g>
						</g>
					</g>
				</g>
			</g>
		</g>
	</g>
</pattern>
<pattern  x="-352.642" y="317.51" width="124" height="48" patternUnits="userSpaceOnUse" id="path296_1_" viewBox="0 -48 124 48" overflow="visible">
	<g>
		<polygon fill="none" points="0,0 124,0 124,-48 0,-48 		"/>
		<g>
			<polygon fill="none" points="0,-48 124,-48 124,0 0,0 			"/>
			<g id="g280_1_">
			</g>
			<g id="g282_1_">
				<g>
					<g>
						<defs>
							<rect id="SVGID_7_" y="-48" width="124" height="48"/>
						</defs>
						<clipPath id="SVGID_8_">
							<use xlink:href="#SVGID_7_"  overflow="visible"/>
						</clipPath>
						<g id="g284_1_" clip-path="url(#SVGID_8_)">
							<g id="g286_1_">
								<path id="path288_1_" fill="#FFFFFF" d="M18.012-14.098l15.601-8.863c0.508-0.289,0.789-0.66,0.836-1.039
									c0,0.418-0.277,0.836-0.836,1.156L18.012-13.98c-1.117,0.633-2.035,0.105-2.035-1.176v-0.113
									C15.977-13.992,16.895-13.465,18.012-14.098z"/>
							</g>
						</g>
					</g>
				</g>
			</g>
		</g>
	</g>
</pattern>
<g id="g10" transform="matrix(1.25,0,0,-1.25,-9.4247625,49.85025)" inkscape:label="google-play-badge" inkscape:groupmode="layer">
	<g id="g12" transform="matrix(1.0023923,0,0,0.99072975,-0.29664807,0)">
		<g id="g18" transform="matrix(1,0,0,-1,0,48)">
			
				<path id="path20" inkscape:connector-curvature="0" fill="#FFFFFF" stroke="#FFFFFF" stroke-width="0.16" stroke-miterlimit="10" d="
				M52.612,16.195c0,0.668-0.2,1.203-0.594,1.602c-0.454,0.473-1.044,0.711-1.766,0.711c-0.691,0-1.281-0.242-1.765-0.719
				C48.002,17.305,47.76,16.711,47.76,16c0-0.711,0.242-1.305,0.727-1.785c0.484-0.481,1.074-0.722,1.765-0.722
				c0.344,0,0.672,0.071,0.985,0.203c0.312,0.132,0.566,0.312,0.75,0.535l-0.419,0.423c-0.32-0.379-0.758-0.566-1.316-0.566
				c-0.504,0-0.941,0.177-1.313,0.531c-0.367,0.356-0.551,0.817-0.551,1.383c0,0.565,0.184,1.031,0.551,1.387
				c0.371,0.351,0.808,0.531,1.313,0.531c0.535,0,0.985-0.18,1.34-0.535c0.234-0.235,0.367-0.558,0.402-0.972h-1.742v-0.578h2.324
				C52.603,15.957,52.612,16.078,52.612,16.195z"/>
		</g>
		<g id="g22" transform="matrix(1,0,0,-1,0,48)">
			
				<path id="path24" inkscape:connector-curvature="0" fill="#FFFFFF" stroke="#FFFFFF" stroke-width="0.16" stroke-miterlimit="10" d="
				M56.299,14.191h-2.183v1.52h1.969v0.578h-1.969v1.52h2.183v0.589h-2.8v-4.796h2.8V14.191z"/>
		</g>
		<g id="g26" transform="matrix(1,0,0,-1,0,48)">
			
				<path id="path28" inkscape:connector-curvature="0" fill="#FFFFFF" stroke="#FFFFFF" stroke-width="0.16" stroke-miterlimit="10" d="
				M58.901,18.398h-0.618v-4.207h-1.339v-0.589h3.297v0.589h-1.34V18.398z"/>
		</g>
		<g id="g30" transform="matrix(1,0,0,-1,0,48)">
			
				<path id="path32" inkscape:connector-curvature="0" fill="#FFFFFF" stroke="#FFFFFF" stroke-width="0.16" stroke-miterlimit="10" d="
				M62.626,18.398v-4.796h0.617v4.796H62.626z"/>
		</g>
		<g id="g34" transform="matrix(1,0,0,-1,0,48)">
			
				<path id="path36" inkscape:connector-curvature="0" fill="#FFFFFF" stroke="#FFFFFF" stroke-width="0.16" stroke-miterlimit="10" d="
				M65.978,18.398h-0.613v-4.207h-1.344v-0.589h3.3v0.589h-1.344V18.398z"/>
		</g>
		<g id="g38" transform="matrix(1,0,0,-1,0,48)">
			
				<path id="path40" inkscape:connector-curvature="0" fill="#FFFFFF" stroke="#FFFFFF" stroke-width="0.16" stroke-miterlimit="10" d="
				M73.565,17.781c-0.473,0.485-1.059,0.727-1.758,0.727c-0.703,0-1.288-0.242-1.762-0.727c-0.471-0.484-0.706-1.078-0.706-1.781
				c0-0.703,0.235-1.297,0.706-1.781c0.474-0.486,1.059-0.727,1.762-0.727c0.695,0,1.281,0.241,1.754,0.731
				c0.475,0.487,0.711,1.078,0.711,1.777C74.272,16.703,74.037,17.297,73.565,17.781z M70.502,17.379
				c0.355,0.36,0.789,0.539,1.305,0.539c0.512,0,0.949-0.18,1.301-0.539c0.355-0.359,0.535-0.82,0.535-1.378
				c0-0.559-0.18-1.02-0.535-1.378c-0.352-0.36-0.789-0.539-1.301-0.539c-0.516,0-0.949,0.181-1.305,0.539
				c-0.356,0.358-0.535,0.819-0.535,1.378C69.967,16.559,70.148,17.02,70.502,17.379z"/>
		</g>
		<g id="g42" transform="matrix(1,0,0,-1,0,48)">
			
				<path id="path44" inkscape:connector-curvature="0" fill="#FFFFFF" stroke="#FFFFFF" stroke-width="0.16" stroke-miterlimit="10" d="
				M75.139,18.398v-4.796h0.751l2.332,3.73h0.027l-0.027-0.922v-2.808h0.616v4.796h-0.644l-2.442-3.914h-0.027l0.027,0.926v2.989
				L75.139,18.398L75.139,18.398z"/>
		</g>
		<path id="path46" inkscape:connector-curvature="0" fill="#FFFFFF" d="M69.186,20.983c-1.878,0-3.414-1.43-3.414-3.403
			c0-1.956,1.535-3.402,3.414-3.402c1.883,0,3.418,1.445,3.418,3.402C72.604,19.553,71.069,20.983,69.186,20.983z M69.186,15.518
			c-1.03,0-1.917,0.851-1.917,2.061c0,1.227,0.887,2.064,1.917,2.064c1.031,0,1.922-0.837,1.922-2.064
			C71.108,16.369,70.217,15.518,69.186,15.518z M61.737,20.983c-1.883,0-3.414-1.43-3.414-3.403c0-1.956,1.531-3.402,3.414-3.402
			c1.881,0,3.414,1.445,3.414,3.402C65.151,19.553,63.618,20.983,61.737,20.983z M61.737,15.518c-1.032,0-1.922,0.851-1.922,2.061
			c0,1.227,0.89,2.064,1.922,2.064c1.03,0,1.918-0.837,1.918-2.064C63.655,16.369,62.767,15.518,61.737,15.518z M52.873,19.94
			v-1.445h3.453c-0.101-0.808-0.371-1.402-0.785-1.816c-0.504-0.5-1.289-1.055-2.668-1.055c-2.125,0-3.789,1.715-3.789,3.839
			c0,2.125,1.664,3.839,3.789,3.839c1.149,0,1.984-0.449,2.602-1.031l1.019,1.02c-0.864,0.823-2.012,1.456-3.621,1.456
			c-2.914,0-5.363-2.371-5.363-5.285c0-2.914,2.449-5.285,5.363-5.285c1.574,0,2.757,0.516,3.688,1.484
			c0.952,0.953,1.249,2.293,1.249,3.375c0,0.336-0.028,0.645-0.078,0.903L52.873,19.94L52.873,19.94z M89.118,18.819
			c-0.281,0.761-1.147,2.164-2.913,2.164c-1.749,0-3.206-1.378-3.206-3.403c0-1.906,1.442-3.402,3.375-3.402
			c1.563,0,2.465,0.953,2.836,1.509l-1.16,0.773c-0.387-0.565-0.913-0.941-1.676-0.941c-0.757,0-1.3,0.347-1.648,1.031l4.552,1.882
			L89.118,18.819L89.118,18.819z M84.479,17.686c-0.039,1.312,1.019,1.984,1.777,1.984c0.594,0,1.098-0.297,1.266-0.722
			L84.479,17.686L84.479,17.686z M80.78,14.385h1.496v10.001H80.78V14.385z M78.33,20.225h-0.051
			c-0.336,0.397-0.977,0.758-1.789,0.758c-1.704,0-3.263-1.496-3.263-3.414c0-1.908,1.559-3.392,3.263-3.392
			c0.812,0,1.453,0.364,1.789,0.774h0.051v-0.488c0-1.301-0.694-2.001-1.816-2.001c-0.913,0-1.482,0.66-1.715,1.215l-1.301-0.543
			c0.374-0.902,1.368-2.012,3.015-2.012c1.754,0,3.234,1.031,3.234,3.543v6.11H78.33V20.225z M76.62,15.518
			c-1.032,0-1.895,0.863-1.895,2.051c0,1.199,0.863,2.074,1.895,2.074c1.016,0,1.818-0.875,1.818-2.074
			C78.436,16.381,77.635,15.518,76.62,15.518z M96.123,24.385h-3.577v-10h1.492v3.789h2.086c1.657,0,3.282,1.199,3.282,3.106
			C99.405,23.186,97.776,24.385,96.123,24.385z M96.162,19.565h-2.125v3.429h2.125c1.115,0,1.75-0.925,1.75-1.714
			C97.911,20.506,97.275,19.565,96.162,19.565z M105.385,21.002c-1.079,0-2.199-0.476-2.66-1.531l1.324-0.554
			c0.284,0.554,0.809,0.735,1.362,0.735c0.774,0,1.56-0.464,1.571-1.286V18.26c-0.27,0.156-0.848,0.387-1.56,0.387
			c-1.425,0-2.879-0.785-2.879-2.251c0-1.341,1.168-2.202,2.482-2.202c1.004,0,1.558,0.453,1.906,0.979h0.051v-0.773h1.441v3.836
			C108.424,20.01,107.1,21.002,105.385,21.002z M105.205,15.522c-0.489,0-1.168,0.242-1.168,0.847c0,0.774,0.848,1.071,1.582,1.071
			c0.657,0,0.965-0.144,1.364-0.336C106.866,16.178,106.068,15.522,105.205,15.522z M113.674,20.783l-1.715-4.336h-0.05
			l-1.774,4.336h-1.609l2.664-6.059l-1.52-3.37h1.559l4.105,9.429H113.674z M100.225,14.385h1.496v10.001h-1.496V14.385z"/>
		<g id="g48">
			
				<linearGradient id="path64_1_" gradientUnits="userSpaceOnUse" x1="-265.618" y1="135.6729" x2="-282.4023" y2="118.8885" gradientTransform="matrix(1.256 0 0 -1.2269 358.1263 181.4781)">
				<stop  offset="0" style="stop-color:#00A0FF"/>
				<stop  offset="0.0066" style="stop-color:#00A1FF"/>
				<stop  offset="0.2601" style="stop-color:#00BEFF"/>
				<stop  offset="0.5122" style="stop-color:#00D2FF"/>
				<stop  offset="0.7604" style="stop-color:#00DFFF"/>
				<stop  offset="1" style="stop-color:#00E3FF"/>
			</linearGradient>
			<path id="path64" inkscape:connector-curvature="0" fill="url(#path64_1_)" d="M15.371,33.969C15.137,33.723,15,33.34,15,32.844
				V15.152c0-0.496,0.136-0.878,0.371-1.124l0.058-0.054l9.915,9.911v0.233l-9.915,9.91L15.371,33.969z"/>
		</g>
		<g id="g66">
			
				<linearGradient id="path78_1_" gradientUnits="userSpaceOnUse" x1="-257.9922" y1="128.3546" x2="-282.1882" y2="128.3546" gradientTransform="matrix(1.256 0 0 -1.2269 358.1263 181.4781)">
				<stop  offset="0" style="stop-color:#FFE000"/>
				<stop  offset="0.4087" style="stop-color:#FFBD00"/>
				<stop  offset="0.7754" style="stop-color:#FFA500"/>
				<stop  offset="1" style="stop-color:#FF9C00"/>
			</linearGradient>
			<path id="path78" inkscape:connector-curvature="0" fill="url(#path78_1_)" d="M28.644,20.578l-3.301,3.306v0.233l3.305,3.305
				l0.074-0.043l3.914-2.227c1.117-0.632,1.117-1.673,0-2.308l-3.914-2.223L28.644,20.578z"/>
		</g>
		<g id="g80">
			
				<linearGradient id="path88_1_" gradientUnits="userSpaceOnUse" x1="-269.0466" y1="132.2962" x2="-291.8011" y2="109.5416" gradientTransform="matrix(1.256 0 0 -1.2269 358.1263 181.4781)">
				<stop  offset="0" style="stop-color:#FF3A44"/>
				<stop  offset="1" style="stop-color:#C31162"/>
			</linearGradient>
			<path id="path88" inkscape:connector-curvature="0" fill="url(#path88_1_)" d="M28.722,20.621L25.344,24l-9.972-9.973
				c0.371-0.39,0.976-0.437,1.664-0.047L28.722,20.621"/>
		</g>
		<g id="g90">
			
				<linearGradient id="path104_1_" gradientUnits="userSpaceOnUse" x1="-280.2729" y1="135.7734" x2="-270.1103" y2="125.6109" gradientTransform="matrix(1.256 0 0 -1.2269 358.1263 181.4781)">
				<stop  offset="0" style="stop-color:#32A071"/>
				<stop  offset="0.0685" style="stop-color:#2DA771"/>
				<stop  offset="0.4762" style="stop-color:#15CF74"/>
				<stop  offset="0.8009" style="stop-color:#06E775"/>
				<stop  offset="1" style="stop-color:#00F076"/>
			</linearGradient>
			<path id="path104" inkscape:connector-curvature="0" fill="url(#path104_1_)" d="M28.722,27.379L17.035,34.02
				c-0.688,0.386-1.293,0.338-1.664-0.051L25.344,24L28.722,27.379z"/>
		</g>
		<g id="g106">
			<g id="g108">
			</g>
			<defs>
				<filter id="Adobe_OpacityMaskFilter" filterUnits="userSpaceOnUse" x="-15.685" y="-53.722" width="155.37" height="59.444">
					<feColorMatrix  type="matrix" values="1 0 0 0 0  0 1 0 0 0  0 0 1 0 0  0 0 0 1 0"/>
				</filter>
			</defs>
			<mask maskUnits="userSpaceOnUse" x="-15.685" y="-53.722" width="155.37" height="59.444" id="mask114">
				<g id="g116" filter="url(#Adobe_OpacityMaskFilter)">
					<g>
						<g id="g118">
							<g>
								<defs>
									<rect id="SVGID_9_" x="-20.387" y="-8.848" width="155.371" height="59.444"/>
								</defs>
								<clipPath id="SVGID_10_">
									<use xlink:href="#SVGID_9_"  overflow="visible"/>
								</clipPath>
								<path id="path120" inkscape:connector-curvature="0" clip-path="url(#SVGID_10_)" fill-opacity="0.2" d="M7.818,40.254
									h98.963V1.494H7.818V40.254z"/>
							</g>
						</g>
					</g>
				</g>
			</mask>
			<g id="g122" mask="url(#mask114)">
				<g id="g124">
				</g>
				<g id="g146">
					<g>
						<g>
							<defs>
								<rect id="SVGID_11_" x="-35.339" y="-12.808" width="194.677" height="73.616"/>
							</defs>
							<clipPath id="SVGID_12_">
								<use xlink:href="#SVGID_11_"  overflow="visible"/>
							</clipPath>
							<g id="g148" clip-path="url(#SVGID_12_)">
								<g id="g150">
									<pattern  id="path152_2_" xlink:href="#path152_1_" patternTransform="matrix(1.57 0 0 -1.5336 6117.9736 -44736.207)">
									</pattern>
									<path id="path152" inkscape:connector-curvature="0" fill="url(#path152_2_)" d="M0,0h124v48H0V0z"/>
								</g>
							</g>
						</g>
					</g>
				</g>
			</g>
		</g>
		<g id="g154">
			<g id="g156">
			</g>
			<defs>
				<filter id="Adobe_OpacityMaskFilter_1_" filterUnits="userSpaceOnUse" x="-15.685" y="-53.722" width="155.37" height="59.444">
					<feColorMatrix  type="matrix" values="1 0 0 0 0  0 1 0 0 0  0 0 1 0 0  0 0 0 1 0"/>
				</filter>
			</defs>
			<mask maskUnits="userSpaceOnUse" x="-15.685" y="-53.722" width="155.37" height="59.444" id="mask162">
				<g id="g164" filter="url(#Adobe_OpacityMaskFilter_1_)">
					<g>
						<g id="g166">
							<g>
								<defs>
									<rect id="SVGID_13_" x="-20.387" y="-8.848" width="155.371" height="59.444"/>
								</defs>
								<clipPath id="SVGID_14_">
									<use xlink:href="#SVGID_13_"  overflow="visible"/>
								</clipPath>
								<path id="path168" inkscape:connector-curvature="0" clip-path="url(#SVGID_14_)" fill-opacity="0.12" d="M7.818,40.254
									h98.963V1.494H7.818V40.254z"/>
							</g>
						</g>
					</g>
				</g>
			</mask>
			<g id="g170" mask="url(#mask162)">
				<g id="g172">
				</g>
				<g id="g194">
					<g>
						<g>
							<defs>
								<rect id="SVGID_15_" x="-35.339" y="-12.808" width="194.677" height="73.616"/>
							</defs>
							<clipPath id="SVGID_16_">
								<use xlink:href="#SVGID_15_"  overflow="visible"/>
							</clipPath>
							<g id="g196" clip-path="url(#SVGID_16_)">
								<g id="g198">
									<pattern  id="path200_2_" xlink:href="#path200_1_" patternTransform="matrix(1.57 0 0 -1.5336 6117.9736 -44736.207)">
									</pattern>
									<path id="path200" inkscape:connector-curvature="0" fill="url(#path200_2_)" d="M0,0h124v48H0V0z"/>
								</g>
							</g>
						</g>
					</g>
				</g>
			</g>
		</g>
		<g id="g202">
			<g id="g204">
			</g>
			<defs>
				<filter id="Adobe_OpacityMaskFilter_2_" filterUnits="userSpaceOnUse" x="-15.685" y="-53.722" width="155.37" height="59.444">
					<feColorMatrix  type="matrix" values="1 0 0 0 0  0 1 0 0 0  0 0 1 0 0  0 0 0 1 0"/>
				</filter>
			</defs>
			<mask maskUnits="userSpaceOnUse" x="-15.685" y="-53.722" width="155.37" height="59.444" id="mask210">
				<g id="g212" filter="url(#Adobe_OpacityMaskFilter_2_)">
					<g>
						<g id="g214">
							<g>
								<defs>
									<rect id="SVGID_17_" x="-20.387" y="-8.848" width="155.371" height="59.444"/>
								</defs>
								<clipPath id="SVGID_18_">
									<use xlink:href="#SVGID_17_"  overflow="visible"/>
								</clipPath>
								<path id="path216" inkscape:connector-curvature="0" clip-path="url(#SVGID_18_)" fill-opacity="0.12" d="M7.818,40.254
									h98.963V1.494H7.818V40.254z"/>
							</g>
						</g>
					</g>
				</g>
			</mask>
			<g id="g218" mask="url(#mask210)">
				<g id="g220">
				</g>
				<g id="g242">
					<g>
						<g>
							<defs>
								<rect id="SVGID_19_" x="-35.339" y="-12.808" width="194.677" height="73.616"/>
							</defs>
							<clipPath id="SVGID_20_">
								<use xlink:href="#SVGID_19_"  overflow="visible"/>
							</clipPath>
							<g id="g244" clip-path="url(#SVGID_20_)">
								<g id="g246">
									<pattern  id="path248_2_" xlink:href="#path248_1_" patternTransform="matrix(1.57 0 0 -1.5336 6117.9736 -44736.207)">
									</pattern>
									<path id="path248" inkscape:connector-curvature="0" fill="url(#path248_2_)" d="M0,0h124v48H0V0z"/>
								</g>
							</g>
						</g>
					</g>
				</g>
			</g>
		</g>
		<g id="g250">
			<g id="g252">
			</g>
			<defs>
				<filter id="Adobe_OpacityMaskFilter_3_" filterUnits="userSpaceOnUse" x="-15.685" y="-53.722" width="155.37" height="59.444">
					<feColorMatrix  type="matrix" values="1 0 0 0 0  0 1 0 0 0  0 0 1 0 0  0 0 0 1 0"/>
				</filter>
			</defs>
			<mask maskUnits="userSpaceOnUse" x="-15.685" y="-53.722" width="155.37" height="59.444" id="mask258">
				<g id="g260" filter="url(#Adobe_OpacityMaskFilter_3_)">
					<g>
						<g id="g262">
							<g>
								<defs>
									<rect id="SVGID_21_" x="-20.387" y="-8.848" width="155.371" height="59.444"/>
								</defs>
								<clipPath id="SVGID_22_">
									<use xlink:href="#SVGID_21_"  overflow="visible"/>
								</clipPath>
								<path id="path264" inkscape:connector-curvature="0" clip-path="url(#SVGID_22_)" fill-opacity="0.25" d="M7.818,40.254
									h98.963V1.494H7.818V40.254z"/>
							</g>
						</g>
					</g>
				</g>
			</mask>
			<g id="g266" mask="url(#mask258)">
				<g id="g268">
				</g>
				<g id="g290">
					<g>
						<g>
							<defs>
								<rect id="SVGID_23_" x="-35.339" y="-12.808" width="194.677" height="73.616"/>
							</defs>
							<clipPath id="SVGID_24_">
								<use xlink:href="#SVGID_23_"  overflow="visible"/>
							</clipPath>
							<g id="g292" clip-path="url(#SVGID_24_)">
								<g id="g294">
									<pattern  id="path296_2_" xlink:href="#path296_1_" patternTransform="matrix(1.57 0 0 -1.5336 6117.9736 -44736.207)">
									</pattern>
									<path id="path296" inkscape:connector-curvature="0" fill="url(#path296_2_)" d="M0,0h124v48H0V0z"/>
								</g>
							</g>
						</g>
					</g>
				</g>
			</g>
		</g>
	</g>
</g>
</svg>
