<?xml version="1.0" encoding="utf-8"?>
<!-- Generator: Adobe Illustrator 16.0.0, SVG Export Plug-In . SVG Version: 6.00 Build 0)  -->
<!DOCTYPE svg PUBLIC "-//W3C//DTD SVG 1.1//EN" "http://www.w3.org/Graphics/SVG/1.1/DTD/svg11.dtd">
<svg version="1.1" id="Capa_1" xmlns="http://www.w3.org/2000/svg" xmlns:xlink="http://www.w3.org/1999/xlink" x="0px" y="0px"
	 width="841.889px" height="595.281px" viewBox="0 0 841.889 595.281" enable-background="new 0 0 841.889 595.281"
	 xml:space="preserve">
<path fill="#303C42" d="M668.978,173.623c0-27.396-22.21-49.606-49.607-49.606H172.91c-27.396,0.001-49.605,22.21-49.605,49.606
	V297.64c0,27.396,22.21,49.607,49.606,49.607h446.46c27.397,0,49.607-22.211,49.607-49.607L668.978,173.623L668.978,173.623z"/>
<path fill="#E1F1F9" d="M619.371,322.443h-446.46c-13.698,0-24.803-11.104-24.803-24.803V173.623
	c0-13.698,11.104-24.803,24.803-24.803h446.46c13.699,0,24.804,11.104,24.804,24.803V297.64
	C644.175,311.339,633.071,322.443,619.371,322.443z"/>
<g>
	<path fill="#303C42" d="M242.343,217.03c-3.438-5.935-11.057-7.969-16.943-4.542l-2.882,1.664v-3.323
		c0-6.854-5.547-12.401-12.402-12.401c-6.854,0-12.402,5.547-12.402,12.401v3.323l-2.882-1.664
		c-5.923-3.427-13.516-1.393-16.943,4.542c-3.428,5.934-1.393,13.516,4.541,16.943l2.876,1.659l-2.876,1.659
		c-5.934,3.427-7.969,11.009-4.541,16.943c2.301,3.973,6.468,6.2,10.755,6.2c2.107,0,4.238-0.532,6.188-1.659l2.884-1.664v3.323
		c0,6.854,5.547,12.402,12.401,12.402c6.855,0,12.402-5.548,12.402-12.402v-3.323l2.882,1.664c1.95,1.127,4.081,1.659,6.189,1.659
		c4.288,0,8.453-2.229,10.754-6.2c3.428-5.935,1.394-13.517-4.541-16.943l-2.875-1.659l2.875-1.659
		C243.737,230.546,245.771,222.964,242.343,217.03z"/>
	<path fill="#303C42" d="M341.558,217.03c-3.452-5.935-11.046-7.969-16.943-4.542l-2.883,1.664v-3.323
		c0-6.854-5.547-12.401-12.402-12.401c-6.854,0-12.401,5.547-12.401,12.401v3.323l-2.883-1.664
		c-5.946-3.427-13.527-1.393-16.943,4.542c-3.427,5.934-1.393,13.516,4.542,16.943l2.875,1.659l-2.875,1.659
		c-5.935,3.427-7.969,11.009-4.542,16.943c2.301,3.973,6.468,6.2,10.755,6.2c2.107,0,4.239-0.532,6.188-1.659l2.883-1.664v3.323
		c0,6.854,5.547,12.402,12.401,12.402c6.855,0,12.402-5.548,12.402-12.402v-3.323l2.883,1.664c1.949,1.127,4.08,1.659,6.188,1.659
		c4.288,0,8.453-2.229,10.755-6.2c3.427-5.935,1.393-13.517-4.542-16.943l-2.875-1.659l2.875-1.659
		C342.95,230.546,344.985,222.964,341.558,217.03z"/>
	<path fill="#303C42" d="M440.77,217.03c-3.438-5.935-11.033-7.969-16.943-4.542l-2.882,1.663v-3.323
		c0-6.854-5.547-12.402-12.402-12.402c-6.854,0-12.401,5.548-12.401,12.402v3.323l-2.883-1.664
		c-5.934-3.428-13.527-1.393-16.943,4.541c-3.427,5.935-1.393,13.517,4.542,16.943l2.875,1.659l-2.875,1.659
		c-5.935,3.428-7.969,11.01-4.542,16.943c2.302,3.974,6.468,6.201,10.755,6.201c2.108,0,4.239-0.533,6.188-1.659l2.883-1.664v3.324
		c0,6.854,5.547,12.402,12.401,12.402c6.855,0,12.402-5.548,12.402-12.402v-3.323l2.882,1.664c1.95,1.127,4.081,1.659,6.189,1.659
		c4.288,0,8.453-2.229,10.754-6.2c3.428-5.935,1.394-13.517-4.541-16.943l-2.875-1.659l2.875-1.659
		C442.163,230.546,444.198,222.964,440.77,217.03z"/>
	<path fill="#303C42" d="M539.942,217.03c-3.439-5.935-11.034-7.969-16.943-4.542l-2.883,1.664v-3.323
		c0-6.854-5.547-12.401-12.402-12.401c-6.854,0-12.401,5.547-12.401,12.401v3.323l-2.883-1.664
		c-5.934-3.427-13.527-1.393-16.943,4.542c-3.427,5.934-1.393,13.516,4.542,16.943l2.875,1.659l-2.875,1.659
		c-5.935,3.427-7.969,11.009-4.542,16.943c2.302,3.973,6.468,6.2,10.755,6.2c2.108,0,4.239-0.532,6.188-1.659l2.883-1.664v3.323
		c0,6.854,5.547,12.402,12.401,12.402c6.855,0,12.402-5.548,12.402-12.402v-3.323l2.883,1.664c1.949,1.127,4.08,1.659,6.188,1.659
		c4.288,0,8.454-2.229,10.755-6.2c3.427-5.935,1.393-13.517-4.542-16.943l-2.875-1.659l2.875-1.659
		C541.333,230.546,543.367,222.964,539.942,217.03z"/>
	<path fill="#303C42" d="M606.97,471.263c-1.793,0-3.585-0.387-5.232-1.163c-92.431-43.041-106.383-74.931-106.383-162.214v-64.709
		c0-5.365,3.464-10.124,8.55-11.796l99.213-32.349c2.52-0.8,5.184-0.8,7.703,0l99.213,32.349c5.087,1.672,8.55,6.431,8.55,11.796
		v64.709c0,87.284-13.951,119.173-106.383,162.216C610.554,470.877,608.762,471.263,606.97,471.263z"/>
</g>
<path fill="#E1F1F9" d="M606.97,225.179l-86.813,28.304v55.712c0,9.813,0.159,18.729,0.585,26.959h86.228V225.179z"/>
<g>
	<path fill="#01579B" d="M693.197,336.153c0.426-8.229,0.585-17.146,0.585-26.959v-55.712l-86.812-28.303v110.974H693.197z"/>
	<path fill="#01579B" d="M520.742,336.153c2.846,55.161,18.211,77.899,86.228,110.308V336.153H520.742z"/>
</g>
<path fill="#E1F1F9" d="M606.97,336.153v110.308c68.017-32.408,83.381-55.146,86.227-110.308H606.97z"/>
<path opacity="0.1" enable-background="new    " d="M521.74,336.153h-0.998c2.846,55.161,18.211,77.899,86.228,110.308v-23.495
	C543.854,392.892,526.25,383.207,521.74,336.153z"/>
<path opacity="0.1" enable-background="new    " d="M606.97,422.966v23.495c68.017-32.408,83.381-55.146,86.227-110.308h-0.997
	C687.69,383.207,670.086,392.892,606.97,422.966z"/>
<linearGradient id="SVGID_1_" gradientUnits="userSpaceOnUse" x1="-46.4451" y1="-46.2415" x2="-23.5685" y2="-35.5746" gradientTransform="matrix(24.8033 0 0 24.8033 1296.0581 1265.0359)">
	<stop  offset="0" style="stop-color:#FFFFFF;stop-opacity:0.2"/>
	<stop  offset="1" style="stop-color:#FFFFFF;stop-opacity:0"/>
</linearGradient>
<path fill="url(#SVGID_1_)" d="M710.034,231.381l-41.057-13.386v-44.372c0-27.397-22.21-49.606-49.607-49.606H172.91
	c-27.396,0.001-49.605,22.209-49.605,49.606V297.64c0,27.396,22.21,49.607,49.606,49.607h323.98
	c5.393,58.793,27.883,87.014,104.846,122.854c1.647,0.775,3.439,1.162,5.232,1.162c1.792,0,3.584-0.387,5.231-1.162
	c92.432-43.043,106.383-74.933,106.383-162.216v-64.709C718.584,237.812,715.121,233.052,710.034,231.381z"/>
</svg>
