<svg xmlns="http://www.w3.org/2000/svg" width="46" height="46" viewBox="0 0 46 46"><defs><style>.a{fill:#2eb39c;}</style></defs><g transform="translate(-2 -2)"><path class="a" d="M44.167,6.6H40.333V5.067a3.067,3.067,0,1,0-6.133,0V6.6H28.067V5.067a3.067,3.067,0,1,0-6.133,0V6.6H15.8V5.067a3.067,3.067,0,1,0-6.133,0V6.6H5.833A3.833,3.833,0,0,0,2,10.433V41.1a3.833,3.833,0,0,0,3.833,3.833H27.3a.767.767,0,1,0,0-1.533H5.833a2.307,2.307,0,0,1-2.3-2.3V17.333H46.467V30.367a.767.767,0,0,0,1.533,0V10.433A3.833,3.833,0,0,0,44.167,6.6ZM35.733,5.067a1.533,1.533,0,1,1,3.067,0v4.6a1.533,1.533,0,1,1-3.067,0Zm-12.267,0a1.533,1.533,0,1,1,3.067,0v4.6a1.533,1.533,0,1,1-3.067,0Zm-12.267,0a1.533,1.533,0,1,1,3.067,0v4.6a1.533,1.533,0,1,1-3.067,0ZM46.467,15.8H3.533V10.433a2.307,2.307,0,0,1,2.3-2.3H9.667V9.667a3.067,3.067,0,0,0,6.133,0V8.133h6.133V9.667a3.067,3.067,0,1,0,6.133,0V8.133H34.2V9.667a3.067,3.067,0,1,0,6.133,0V8.133h3.833a2.307,2.307,0,0,1,2.3,2.3Z" transform="translate(0 0)"/><path class="a" d="M28.133,28.533A1.533,1.533,0,0,0,26.6,27H23.533A1.533,1.533,0,0,0,22,28.533v2.3a1.533,1.533,0,0,0,1.533,1.533H26.6a1.533,1.533,0,0,0,1.533-1.533Zm-4.6,2.3v-2.3H26.6v2.3Z" transform="translate(-4.667 -5.833)"/><path class="a" d="M16.133,28.533A1.533,1.533,0,0,0,14.6,27H11.533A1.533,1.533,0,0,0,10,28.533v2.3a1.533,1.533,0,0,0,1.533,1.533H14.6a1.533,1.533,0,0,0,1.533-1.533Zm-4.6,2.3v-2.3H14.6v2.3Z" transform="translate(-1.867 -5.833)"/><path class="a" d="M50.6,32.367a1.533,1.533,0,0,0,1.533-1.533v-2.3A1.533,1.533,0,0,0,50.6,27H47.533A1.533,1.533,0,0,0,46,28.533v2.3a1.533,1.533,0,0,0,1.533,1.533Zm-3.067-3.833H50.6v2.3H47.533Z" transform="translate(-10.267 -5.833)"/><path class="a" d="M28.133,37.533A1.533,1.533,0,0,0,26.6,36H23.533A1.533,1.533,0,0,0,22,37.533v2.3a1.533,1.533,0,0,0,1.533,1.533H26.6a1.533,1.533,0,0,0,1.533-1.533Zm-4.6,2.3v-2.3H26.6v2.3Z" transform="translate(-4.667 -7.933)"/><path class="a" d="M16.133,37.533A1.533,1.533,0,0,0,14.6,36H11.533A1.533,1.533,0,0,0,10,37.533v2.3a1.533,1.533,0,0,0,1.533,1.533H14.6a1.533,1.533,0,0,0,1.533-1.533Zm-4.6,2.3v-2.3H14.6v2.3Z" transform="translate(-1.867 -7.933)"/><path class="a" d="M26.6,45H23.533A1.533,1.533,0,0,0,22,46.533v2.3a1.533,1.533,0,0,0,1.533,1.533H26.6a1.533,1.533,0,0,0,1.533-1.533v-2.3A1.533,1.533,0,0,0,26.6,45Zm-3.067,3.833v-2.3H26.6v2.3Z" transform="translate(-4.667 -10.033)"/><path class="a" d="M35.533,32.367H38.6a1.533,1.533,0,0,0,1.533-1.533v-2.3A1.533,1.533,0,0,0,38.6,27H35.533A1.533,1.533,0,0,0,34,28.533v2.3A1.533,1.533,0,0,0,35.533,32.367Zm0-3.833H38.6v2.3H35.533Z" transform="translate(-7.467 -5.833)"/><path class="a" d="M34,39.833a1.533,1.533,0,0,0,1.533,1.533.767.767,0,0,0,0-1.533v-2.3H38.6A.767.767,0,0,0,38.6,36H35.533A1.533,1.533,0,0,0,34,37.533Z" transform="translate(-7.467 -7.933)"/><path class="a" d="M14.6,45H11.533A1.533,1.533,0,0,0,10,46.533v2.3a1.533,1.533,0,0,0,1.533,1.533H14.6a1.533,1.533,0,0,0,1.533-1.533v-2.3A1.533,1.533,0,0,0,14.6,45Zm-3.067,3.833v-2.3H14.6v2.3Z" transform="translate(-1.867 -10.033)"/><path class="a" d="M45.967,36a9.967,9.967,0,1,0,9.967,9.967A9.967,9.967,0,0,0,45.967,36Zm0,18.4A8.433,8.433,0,1,1,54.4,45.967,8.433,8.433,0,0,1,45.967,54.4Z" transform="translate(-7.933 -7.933)"/><path class="a" d="M51.74,44.74,45.777,50.7l-2.71-2.711a.767.767,0,1,0-1.084,1.084l3.252,3.253a.767.767,0,0,0,1.084,0l6.505-6.505A.767.767,0,1,0,51.74,44.74Z" transform="translate(-9.277 -9.92)"/></g></svg>