<svg xmlns="http://www.w3.org/2000/svg" xmlns:xlink="http://www.w3.org/1999/xlink" width="750" height="500.49" viewBox="0 0 750 500.49"><defs><style>.a,.c{fill:#fff;}.b{fill:#defff9;}.c{stroke:#0f22d3;stroke-miterlimit:10;stroke-width:1.61px;}.d{fill:#98b2d8;}.e{fill:#b1c3e8;}.f{fill:#b7cae5;}.g{fill:#97b3d1;}.h{fill:#ced9ea;}.i{fill:#b6c5dd;}.j{fill:#5d7ca0;}.k{fill:#799cbf;}.l{fill:#f2f4f9;}.m{fill:#c1cfe5;}.n{fill:url(#a);}.o,.r{fill:#1f395e;}.o{opacity:0.22;}.p{fill:url(#b);}.q{fill:url(#c);}.s{fill:url(#d);}.t{fill:#3150bc;}.u{fill:#feb19e;}.v{fill:#ff856a;}.w{fill:url(#e);}.x,.y{fill:#9abced;}.ai,.x{opacity:0.6;}.z{fill:#c1c8d3;}.aa{fill:url(#f);}.ab{fill:url(#g);}.ac{fill:#4f7eb7;}.ad,.ag{fill:#7ca6d8;}.ad,.al{opacity:0.71;}.ae{fill:#ea9ba1;}.af,.ak{opacity:0.5;}.ah{fill:#e83f54;}.ai,.aj,.ak,.al{fill:#95cdf2;}</style><linearGradient id="a" x1="0.5" y1="0.944" x2="0.5" y2="0.102" gradientUnits="objectBoundingBox"><stop offset="0" stop-color="#1f3a65"/><stop offset="1" stop-color="#294a7a"/></linearGradient><linearGradient id="b" x1="0.5" y1="1.04" x2="0.5" y2="0.166" xlink:href="#a"/><linearGradient id="c" x1="0.5" y1="1.031" x2="0.5" y2="0.253" xlink:href="#a"/><linearGradient id="d" x1="0.703" y1="0.96" x2="0.33" y2="-0.043" gradientUnits="objectBoundingBox"><stop offset="0" stop-color="#3855e1"/><stop offset="1" stop-color="#5c7ef7"/></linearGradient><linearGradient id="e" x1="0.508" y1="0.868" x2="0.491" y2="0.143" gradientUnits="objectBoundingBox"><stop offset="0" stop-color="#3f2323"/><stop offset="1" stop-color="#5e3434"/></linearGradient><linearGradient id="f" x1="0" y1="0.5" x2="1" y2="0.5" xlink:href="#a"/><linearGradient id="g" x1="0.948" y1="-0.448" x2="0.223" y2="0.845" gradientUnits="objectBoundingBox"><stop offset="0" stop-color="#e2e8f7"/><stop offset="1" stop-color="#fff"/></linearGradient></defs><rect class="a" width="750" height="500"/><g transform="translate(-11.35 38)"><path class="b" d="M623.44,284.04a314.744,314.744,0,0,1-3.37,49.72c-.16,1.11-.34,2.22-.53,3.3-1.19,7.2-2.64,13.91-4.28,20.11-.29,1.06-.58,2.11-.87,3.14-6.31,22.06-15.28,36.97-24.85,42.48H187.73s-34.25-29.69-41.13-72.11c-.18-1.08-.34-2.16-.47-3.25-2.67-21.11,1.63-45.15,20.13-70.16,8.44-11.38,19.53-19.31,32.27-24.77,1-.42,1.98-.82,3-1.21,18.89-7.39,41.08-9.71,63.36-10.06,1.13-.02,2.25-.03,3.38-.03,13.27-.1,26.5.45,39.05.95,1.19.06,2.37.11,3.54.16,20.26.85,38.52,1.48,51.77-.95h.02c1.22-.23,2.38-.48,3.51-.77h.02c14.67-3.59,21.9-11.92,16.7-29.82-10.08-34.73.24-60.19,22.7-74.25,1.14-.72,2.33-1.42,3.54-2.08,12.7-6.89,28.76-10.5,46.92-10.45,1.27,0,2.56.03,3.86.06a176.394,176.394,0,0,1,49.81,9.32,157.912,157.912,0,0,1,26.33,11.45c1,.55,2,1.11,2.96,1.69a153.311,153.311,0,0,1,40.47,33.98c.76.87,1.48,1.76,2.21,2.66C610.56,198.75,623.15,244.69,623.44,284.04Z"/><path class="b" d="M615.26,357.18c-.29,1.06-.58,2.11-.87,3.14a134.051,134.051,0,0,1-18.58-8.31c-29.47-16.01-66.99-51.66-78.36-130.69-4.9-34.07,1.35-66.52,18.6-96.49,1,.55,2,1.11,2.96,1.69-15.14,26.28-23.64,57.7-18.37,94.33,11.18,77.63,47.79,112.59,76.55,128.24A125.647,125.647,0,0,0,615.26,357.18Z"/><path class="b" d="M620.07,333.77c-.16,1.11-.34,2.22-.53,3.3-18.61-8.74-42.08-27.76-53.03-69.05-10.58-39.98-6.36-75.47,12.96-107.52.76.87,1.48,1.76,2.21,2.66-18.37,31.05-22.29,65.39-12.04,104.04C580.11,306.7,602.28,325.15,620.07,333.77Z"/><path class="b" d="M444.38,171.49c1.56,52.46-4.41,86.36-19.37,109.93-15.67,24.7-41.8,39.63-84.75,48.4a117.794,117.794,0,0,1-23.67,2.46c-24.17,0-46.94-7.87-66.89-23.27-23.2-17.92-40.97-44.91-51.16-76.5,1-.42,1.98-.82,3-1.21,9.98,31.06,27.39,57.6,50.14,75.17,25.57,19.76,55.99,26.73,87.94,20.21,79.87-16.34,104.54-54.04,101.54-155.1-.85-28.69,4.15-51.34,14.89-67.58,1.27,0,2.56.03,3.86.06C448.74,119.85,443.52,142.45,444.38,171.49Z"/><path class="b" d="M344.72,280.05a62.707,62.707,0,0,1-10.24.84c-25.75,0-55.23-15.6-69.58-59.64,1.13-.02,2.25-.03,3.38-.03,15.81,47.28,49.71,59.97,75.91,55.67,35.39-5.8,69.43-42.24,62.85-98.35-2.83-24.07-2.96-44.62-1.45-62,1.14-.72,2.33-1.42,3.54-2.08-1.76,17.7-1.82,38.79,1.11,63.7C417.05,236.25,381.56,274.01,344.72,280.05Z"/><path class="b" d="M366.17,220.6a40.95,40.95,0,0,1-7.13,16.26c-4.94,6.47-11.88,10.31-20.63,11.38a25.115,25.115,0,0,1-3.09.19,22.482,22.482,0,0,1-14.81-5.56c-5.83-4.9-10.08-12.5-13.17-20.72,1.19.06,2.37.11,3.54.16,2.87,7.28,6.67,13.86,11.71,18.1a19.488,19.488,0,0,0,15.43,4.64c7.86-.97,14.06-4.38,18.47-10.13a36.676,36.676,0,0,0,6.17-13.56h.02C363.88,221.15,365.04,220.89,366.17,220.6Z"/><path class="b" d="M241.13,402.8h-3.51c-14.44-33.07-35.26-55.12-61.96-65.57a101.433,101.433,0,0,0-29.05-6.54c-.18-1.08-.34-2.16-.47-3.25a104.7,104.7,0,0,1,30.69,6.8C204.71,345.15,226.31,368.18,241.13,402.8Z"/><path class="c" d="M463.01,462.49Z"/><path class="d" d="M171.43,303.12l-9.95,10.26-4.15-6.1-1.38-2.05c-4.43,1.11-10.97-7.55-13.59-12.17-2.61-4.64,7.86-11.79,7.86-11.79-1.71-5.12-8.57-8.34-8.76-9.76-.19-1.4,1.51-2.91,7.75,0,6.25,2.93,11.67,13.28,11.67,13.28,1.11-3.01-3.82-11.16-2.91-12.08.9-.9,5.73.21,9.45,8.05,3.74,7.86,1.51,17.12,1.51,17.12l.05.08Z"/><path class="e" d="M149.84,280.37s7.39,8.46,6.6,11.78-4.52-.53-4.52-.53,3.42,3.95,2.31,5.26-5.23-2.01-5.23-2.01,4.93,6.14,0,5.23-11.13-10.21-6.37-11.14c0,0-.58-6.77,3.75-4.46C146.38,284.5,144.44,278.85,149.84,280.37Z"/><path class="f" d="M239.68,402.86s8.33-24.31,3.95-48.29a.632.632,0,0,1-.03-.16c0-.05-.02-.11-.03-.19-.13-.63-.26-1.26-.39-1.88a101.166,101.166,0,0,1-11.5,8.41c-8,5.04-18.68,10.05-26.88,7.7-15.04-4.3-37.04-33.54-47.25-56.63a26.745,26.745,0,0,1,15.3-10s20.4,27.18,38.39,33.62a133.043,133.043,0,0,0,17.17-28.45c4.8-10.79,12-17.62,21.08-21.29a49.054,49.054,0,0,1,17.18-3.38l15.76-7.36a60.733,60.733,0,0,1,6.54.53c7.39.97,19.68,3.67,29.61,11.24,15.3,11.66,37.31,116.15,37.31,116.15H239.68Z"/><path class="g" d="M243.6,354.41c-.13-.69-.27-1.38-.42-2.08a101.166,101.166,0,0,1-11.5,8.41l4.65-39.81C241.07,339.16,243.34,352.78,243.6,354.41Z"/><path class="h" d="M288.97,275.47c-2.43,15.46-17.91,29.74-29.08,29.55-8.99-.16-10.31-13.04-10.4-19.34a49.054,49.054,0,0,1,17.18-3.38l15.76-7.36A60.372,60.372,0,0,1,288.97,275.47Z"/><path class="g" d="M262.22,387.06s35.5-36.95,37.05-75.79l10.47,32.74-4.03,34.09Z"/><path class="d" d="M261.19,402.85H221.44a8.135,8.135,0,0,1,6.24-7.25c6.14-1.81,10.06-9.46,28.48-8.45Z"/><path class="i" d="M301.86,366.32s-18.73,10.77-48.22,18.42c0,0-4.09,9.86,3.09,18.12h57.06Z"/><path class="j" d="M232.13,253.41s-8.48-11.7-7.43-19.58,8.34-6.03,8.34-6.03-.34-19.15,17.38-14.25c0,0-.39-5.85,3.48-5.69s9.94,9.05,9.94,9.05,1.51-6.59,4.13-5.04,3.43,8.36,8.9,11.64,8.86,7.52,4.56,20.8-1.07,14.22-2.61,21.04c-1.46,6.48-2.62,10.42-6.64,10.78s-19.41-15.87-19.41-15.87Z"/><path class="d" d="M282.44,274.94s-9.87,23.94-20.24,22.14c-5.15-.9-6.3-4.04-6.34-7.68-.05-4.75,1.8-10.32-1-12.66l12.43-17.66,2.74-3.9A63.946,63.946,0,0,0,282.44,274.94Z"/><path class="k" d="M255.85,289.4c-.05-4.75,1.8-10.32-1-12.66l12.43-17.66c1.06,1.24,1.82,3.45,2.13,6.91C271.05,284.23,261.41,288.47,255.85,289.4Z"/><path class="d" d="M230.92,244.1s3.36,30.84,15.95,37.79c10.94,6.03,24.22-12.22,23.96-21.24,0,0,4.77-3.64,3.97-9.53s-7.03-3.94-7.77,5.56c0,0-5.07-.36-6-12.23-3.18,2.63-6.61,1.82-10.22-1.38,0,0-1.79,6.61-11-1.11C239.8,241.94,236.32,246.66,230.92,244.1Z"/><path class="j" d="M527.79,363.6s16.25,27.11,21.87,40.26H492.37a234.528,234.528,0,0,0-9-31.07Z"/><path class="k" d="M505.45,369.64c-3.14,10.39-7.92,19.26-15.01,25.99l1.94,8.22L423.06,403l7.72-47.45Z"/><path class="k" d="M614.2,221.71s2.29-14.37,6.86-19.47,17.04-12.64,18.52-9.96-11,11.1-11,11.1,5.64-1.34,10.47,6.98-10.74,14.76-10.74,14.76l-3.09,6.98-12.35-7.78Z"/><path class="d" d="M630.16,203.65s-6.96,7.07-5.94,9.09,4.85-1.15,4.85-1.15-3.13,4.76-.7,5.99,6.18-2.89,6.18-2.89-3.13,4.33-1.33,5.13,11.42-5.99,9.7-7.58-2.66-.29-2.66-.29,2.01-3.39,0-4.48a2.328,2.328,0,0,0-3.29.94s1.64-2.6.31-3.61-4.15.29-4.15.29S634.06,200.77,630.16,203.65Z"/><path class="d" d="M623.7,203.48c-2.11-.6-6.41,3.79-6.41,3.79-1.69,2.17-2.03,6.5-2.1,8.5-.22,5.58-2.33,8.54-2.33,8.54l6.27,3.95c4.85-6.25,3.26-14.25,2.48-17.09C623.98,207.64,624.96,203.84,623.7,203.48Z"/><path class="f" d="M627.76,233.57s-20.93,55.75-54.2,60.69a170.78,170.78,0,0,1-33.98,2.01c-9.37-.48-13.98-1.9-14.32-2a.02.02,0,0,1-.02-.02s-9.13,17-3.22,41.43c5.89,24.41,8.05,29.52,8.05,29.52s-44.85,32.98-81.32,2.95l-32.91-51.17-10.31-16.04s9.47-31.09,36.17-51.3l.02-.02a81.659,81.659,0,0,1,37.97-15.97,96.5,96.5,0,0,1,25.96-.24s7.25,2.05,19.03,6.36c6.34,2.32,14.01,5.3,22.56,8.97,24.43,10.47,31.14,13.59,31.14,13.59s26.02-25.67,32.74-41.24C611.12,221.09,624.54,222.45,627.76,233.57Z"/><path class="g" d="M459.81,259.03c-.12,12.49-2.79,24.6-3.97,34l20.69-4.19,32.19,31.82s4.08,9.32-4.22,10.93c-6.51,1.26-36.91,5.49-36.91,5.49-7.01,9.54-10.17,24.12-13.67,38.28l-30.86-53.63Z"/><path class="h" d="M505.65,262.03c-14.41-3.66-22-16.62-25.96-28.37a96.5,96.5,0,0,1,25.96-.24s7.25,2.05,19.03,6.36C526.07,250.06,525.57,267.07,505.65,262.03Z"/><path class="g" d="M543.49,273.43a157.3,157.3,0,0,0-3.91,22.85c-9.37-.48-13.98-1.9-14.32-2a.02.02,0,0,1-.02-.02S533.43,280.27,543.49,273.43Z"/><path class="l" d="M507.52,325.97l-35.95,5.22a1.942,1.942,0,0,1-2.2-1.65l-7.94-54.71a1.942,1.942,0,0,1,1.65-2.2l35.95-5.22a1.942,1.942,0,0,1,2.2,1.65l7.94,54.71A1.954,1.954,0,0,1,507.52,325.97Z"/><path class="d" d="M481.36,291.14l5.5-2.15s5.23-14.49,11.74-5.37c0,0,4.5-2.68,4.36-4.16s-.2-3.62-.2-3.62,9.11,1.97,7.07,14.67-9.82,11.09-17.47,11.23l-9.53,3.76Z"/><path class="m" d="M484.91,308.85s-42.87,28.37-61.38,14.69a74.011,74.011,0,0,1-7.68-6.55l-10.31-16.04s9.47-31.09,36.17-51.3l.02-.02c8.85-3.98,18.1-2.53,18.57,5.67,1.13,19.53-15.57,31.54-17.64,40.4l38.42-7.78S487.33,294.55,484.91,308.85Z"/><path class="j" d="M535.3,203.7s6.13-13.09,3.62-20.63-9.32-4.35-9.32-4.35-3.27-18.87-19.75-10.73c0,0-.72-5.81-4.49-4.94s-8.06,10.76-8.06,10.76-2.72-6.19-5-4.17-1.8,8.86-6.56,13.11-7.29,9.05-.57,21.29,3.73,13.77,6.52,20.18c2.65,6.09,4.53,9.74,8.55,9.34s16.08-19.24,16.08-19.24Z"/><path class="d" d="M489.93,234.31s9.48,23.35,24.37,19.53c5.07-1.3,5.1-6.74,4.46-10.33-.85-4.67-3.71-9.8-1.4-12.62l-15.53-15.01-3.42-3.31A64.24,64.24,0,0,1,489.93,234.31Z"/><path class="k" d="M518.76,243.51c-.85-4.67-3.71-9.8-1.4-12.62l-15.53-15.01c-.81,1.42-1.14,3.73-.79,7.18C502.86,241.29,513.13,243.64,518.76,243.51Z"/><path class="d" d="M534.73,194.33s2.5,30.93-8.56,40.11c-9.61,7.98-26.09-7.44-27.52-16.36,0,0-5.37-2.68-5.69-8.62s6.16-5.19,8.68,4c0,0,4.91-1.31,3.6-13.14,3.62,1.99,6.84.55,9.78-3.28,0,0,3,6.15,10.59-3.16C525.61,193.87,529.91,197.85,534.73,194.33Z"/><path class="n" d="M456.1,385.76v.02a21.752,21.752,0,0,1-1.98,5.2c-7.78,14.22-41.46,11.88-41.46,11.88H335.77c-31.82,0-44.57-.79-47.62-10.72a12.282,12.282,0,0,1-.42-1.69c-2.16-11.55,8.58-49.11,28.44-74.88,10.16-13.17,20.66-20.11,30.02-23.74a60.409,60.409,0,0,1,22.37-3.91c9.76,0,17.63.72,24.31,2.29,17.94,4.2,27.33,14.35,41.4,32.33C451.48,344.52,459.95,370.33,456.1,385.76Z"/><path class="o" d="M320.87,376.64c8.34-13.12,10.97-31.33,13.29-49.8l7.25,37.57h62.8l11.54-37.57c-.27,17.56,2.14,34.78,10.47,51.26C426.21,378.09,385.15,424.56,320.87,376.64Z"/><path class="p" d="M339.94,402.86h-4.17c-31.82,0-44.57-.79-47.62-10.72-1.66-7.81.45-16.02,9.97-18.47,14.91-3.83,40.87,11.27,40.87,11.27Z"/><path class="q" d="M456.1,385.76s.02,0,0,.02a21.752,21.752,0,0,1-1.98,5.2c-7.78,14.22-41.46,11.88-41.46,11.88H389.84l2.9-19.32s40.45-18.73,54.94-12.88C454.77,373.5,456.94,379.43,456.1,385.76Z"/><path class="r" d="M392.87,290.21c-.68,9.03-4.41,25.49-22.61,25.49-19.18,0-23.24-16.22-24.07-23.86a60.409,60.409,0,0,1,22.37-3.91C378.31,287.92,386.19,288.64,392.87,290.21Z"/><path class="a" d="M409.44,402.85H335.77a3.218,3.218,0,0,1-3.22-3.22h0a3.218,3.218,0,0,1,3.22-3.22h73.67a3.218,3.218,0,0,1,3.22,3.22h0A3.218,3.218,0,0,1,409.44,402.85Z"/><path class="s" d="M418.36,347.47l-.27,1.67v.02l-7.63,47.26H335.37l-7.55-48.98a3.972,3.972,0,0,1,3.91-4.57h82.72A3.962,3.962,0,0,1,418.36,347.47Z"/><path class="t" d="M418.08,349.16l-7.63,47.26H335.77l25.31-2.64A68.079,68.079,0,0,0,418.08,349.16Z"/><path class="u" d="M369.95,308.85h-.5a17.61,17.61,0,0,1-7.25-1.47,13.086,13.086,0,0,1-7.49-12.25c.02-.53.02-1.05.02-1.56.02-4.3-.26-7.87-.26-7.87v-1.93l27.05-1.21a62.908,62.908,0,0,0,1.08,10.13.612.612,0,0,1,.03.13A13.392,13.392,0,0,1,369.95,308.85Z"/><path class="v" d="M382.61,292.69c-11.27,13.24-22.85,5.51-27.87.89.02-4.3-.26-7.87-.26-7.87v-1.93l27.05-1.21A63.033,63.033,0,0,0,382.61,292.69Z"/><path class="u" d="M346.2,270.62s8.39,23.64,22.38,23.64,19.81-25.46,19.81-25.46V246.66H345.14Z"/><path class="u" d="M341.7,257.28s-4.12.75-3.42,5.48,5,10.47,8.49,7.45Z"/><path class="u" d="M391.65,255.3s4.18.19,4.13,4.97-3.53,11.05-7.4,8.53Z"/><path class="w" d="M391.65,255.3a109.155,109.155,0,0,1-3.27,13.5s-3.31-.67-4.39-9.39a11.858,11.858,0,0,1-11.66-5.37s-1.07,6.71-7.98,1.95c-4.61,3.76-10.06,4.16-16.24,1.61,0,0,1.04,8.8-1.91,13.02,0,0-1.07-3.48-4.5-13.34a3.312,3.312,0,0,0-2.41,1.39s-7.41-14.5-3.92-21.47,8.19-4.29,8.19-4.29-1.74-9.53,8.59-13.02,10.33-8.19,11.94-7.25,2.28,4.43,2.28,4.43,17.85-1.88,22.68,17.31c0,0,12.89.41,5.24,22.02C394.28,256.39,393.78,255.5,391.65,255.3Z"/><path class="c" d="M408.63,282.56"/><path class="x" d="M322.69,275.39H255.25a3.973,3.973,0,0,0-3.97,3.97v40.25a3.973,3.973,0,0,0,3.97,3.97h46.52l12.13,10.75a1.193,1.193,0,0,0,1.92-1.28l-3.28-9.47h10.15a3.973,3.973,0,0,0,3.97-3.97V279.36A3.961,3.961,0,0,0,322.69,275.39Z"/><path class="y" d="M276.17,286.16H260.63a1.061,1.061,0,0,1-1.06-1.06h0a1.061,1.061,0,0,1,1.06-1.06h15.54a1.061,1.061,0,0,1,1.06,1.06h0A1.054,1.054,0,0,1,276.17,286.16Z"/><path class="y" d="M314.48,295.34H269.46a1.061,1.061,0,0,1-1.06-1.06h0a1.061,1.061,0,0,1,1.06-1.06h45.02a1.054,1.054,0,0,1,1.06,1.06h0A1.054,1.054,0,0,1,314.48,295.34Z"/><path class="y" d="M314.48,301.88H260.63a1.061,1.061,0,0,1-1.06-1.06h0a1.061,1.061,0,0,1,1.06-1.06h53.85a1.054,1.054,0,0,1,1.06,1.06h0A1.061,1.061,0,0,1,314.48,301.88Z"/><path class="y" d="M314.48,308.41H260.63a1.061,1.061,0,0,1-1.06-1.06h0a1.061,1.061,0,0,1,1.06-1.06h53.85a1.054,1.054,0,0,1,1.06,1.06h0A1.061,1.061,0,0,1,314.48,308.41Z"/><path class="y" d="M314.48,314.94H260.63a1.061,1.061,0,0,1-1.06-1.06h0a1.054,1.054,0,0,1,1.06-1.06h53.85a1.054,1.054,0,0,1,1.06,1.06h0A1.054,1.054,0,0,1,314.48,314.94Z"/><path class="z" d="M621.69,413.32H132.17a1.752,1.752,0,0,1-1.75-1.75V404.6a1.752,1.752,0,0,1,1.75-1.75H621.69a1.752,1.752,0,0,1,1.75,1.75v6.97A1.758,1.758,0,0,1,621.69,413.32Z"/><path class="aa" d="M521.51,377.04H500.58v18.12a7.65,7.65,0,0,0,7.65,7.65h5.64a7.65,7.65,0,0,0,7.65-7.65V377.04Z"/><path class="ab" d="M507.22,377.04v-5.59a1.656,1.656,0,0,1,1.66-1.66h2.11a1.656,1.656,0,0,0,1.66-1.66v-2.11a1.656,1.656,0,0,0-1.66-1.66H504.2a8.446,8.446,0,0,1-8.45-8.45h0a8.446,8.446,0,0,1,8.45-8.45h9.01a1.656,1.656,0,0,0,1.66-1.66v-.75a8.757,8.757,0,0,1,8.76-8.76h0a8.757,8.757,0,0,1,8.76,8.76h0a9.466,9.466,0,0,1-9.46,9.46H507.08a1.656,1.656,0,0,0-1.66,1.66h0a1.656,1.656,0,0,0,1.66,1.66h8.66a5.787,5.787,0,0,1,5.79,5.79v3.62a5.787,5.787,0,0,1-5.79,5.79h0a1.656,1.656,0,0,0-1.66,1.66v2.37h-6.86Z"/><path class="x" d="M492.15,347.4H437.2a3.82,3.82,0,0,1-3.82-3.82V274.14a3.82,3.82,0,0,1,3.82-3.82h54.95a3.82,3.82,0,0,1,3.82,3.82v69.44A3.813,3.813,0,0,1,492.15,347.4Z"/><path class="ac" d="M495.64,344.85H440.69a4.639,4.639,0,0,1-4.63-4.63V270.78a4.639,4.639,0,0,1,4.63-4.63h54.95a4.639,4.639,0,0,1,4.63,4.63v69.44A4.639,4.639,0,0,1,495.64,344.85Zm-54.95-77.09a3.017,3.017,0,0,0-3.02,3.02v69.44a3.017,3.017,0,0,0,3.02,3.02h54.95a3.017,3.017,0,0,0,3.02-3.02V270.78a3.017,3.017,0,0,0-3.02-3.02Z"/><path class="ad" d="M454.98,294.97H442.77V280.34h12.21Zm-10.6-1.61h8.99V281.95h-8.99Z"/><path class="ae" d="M451.91,290.44l-3.63-4.05,1.2-1.08,2.2,2.46a21.513,21.513,0,0,1,9.04-6.56l.61,1.49c-6.47,2.66-8.84,6.72-8.86,6.76Z"/><path class="y" d="M486.13,285.83H467.19a1.2,1.2,0,0,1-1.2-1.2h0a1.2,1.2,0,0,1,1.2-1.2h18.94a1.2,1.2,0,0,1,1.2,1.2h0A1.21,1.21,0,0,1,486.13,285.83Z"/><path class="y" d="M486.13,291.63H467.19a1.2,1.2,0,0,1-1.2-1.2h0a1.2,1.2,0,0,1,1.2-1.2h18.94a1.2,1.2,0,0,1,1.2,1.2h0A1.2,1.2,0,0,1,486.13,291.63Z"/><path class="ad" d="M454.98,317.38H442.77V302.75h12.21Zm-10.6-1.61h8.99V304.36h-8.99Z"/><path class="ae" d="M451.91,312.85l-3.63-4.05,1.2-1.08,2.2,2.46a21.513,21.513,0,0,1,9.04-6.56l.61,1.49c-6.47,2.66-8.84,6.72-8.86,6.77Z"/><path class="y" d="M486.13,308.24H467.19a1.2,1.2,0,0,1-1.2-1.2h0a1.2,1.2,0,0,1,1.2-1.2h18.94a1.2,1.2,0,0,1,1.2,1.2h0A1.21,1.21,0,0,1,486.13,308.24Z"/><path class="y" d="M486.13,314.04H467.19a1.2,1.2,0,0,1-1.2-1.2h0a1.2,1.2,0,0,1,1.2-1.2h18.94a1.2,1.2,0,0,1,1.2,1.2h0A1.2,1.2,0,0,1,486.13,314.04Z"/><path class="ad" d="M454.98,339.79H442.77V325.16h12.21Zm-10.6-1.61h8.99V326.77h-8.99Z"/><path class="ae" d="M451.91,335.26l-3.63-4.05,1.2-1.08,2.2,2.46a21.513,21.513,0,0,1,9.04-6.56l.61,1.49c-6.47,2.66-8.84,6.72-8.86,6.76Z"/><path class="y" d="M486.13,330.64H467.19a1.2,1.2,0,0,1-1.2-1.2h0a1.2,1.2,0,0,1,1.2-1.2h18.94a1.2,1.2,0,0,1,1.2,1.2h0A1.2,1.2,0,0,1,486.13,330.64Z"/><path class="y" d="M486.13,336.45H467.19a1.2,1.2,0,0,1-1.2-1.2h0a1.2,1.2,0,0,1,1.2-1.2h18.94a1.2,1.2,0,0,1,1.2,1.2h0A1.2,1.2,0,0,1,486.13,336.45Z"/><path class="x" d="M685.19,241.21H630.24a3.82,3.82,0,0,1-3.82-3.82V167.95a3.82,3.82,0,0,1,3.82-3.82h54.95a3.82,3.82,0,0,1,3.82,3.82v69.44A3.826,3.826,0,0,1,685.19,241.21Z"/><path class="ac" d="M690.02,237.62H635.07a4.639,4.639,0,0,1-4.63-4.63V163.55a4.639,4.639,0,0,1,4.63-4.63h54.95a4.639,4.639,0,0,1,4.63,4.63v69.44A4.639,4.639,0,0,1,690.02,237.62Zm-54.95-77.09a3.017,3.017,0,0,0-3.02,3.02v69.44a3.024,3.024,0,0,0,3.02,3.02h54.95a3.017,3.017,0,0,0,3.02-3.02V163.55a3.024,3.024,0,0,0-3.02-3.02Z"/><g class="af"><circle class="ag" cx="9.66" cy="9.66" r="9.66" transform="translate(631.92 191.895) rotate(-76.661)"/><path class="ah" d="M646.11,183.44l6.44-11.47c5.9,1.48,8.72,7.04,5.9,12.75Z"/><path class="y" d="M640.07,204.84a2.82,2.82,0,1,1-2.82-2.82A2.817,2.817,0,0,1,640.07,204.84Z"/><path class="y" d="M640.07,217.32a2.82,2.82,0,1,1-2.82-2.82A2.817,2.817,0,0,1,640.07,217.32Z"/><path class="y" d="M676.84,207.66H654.3a2.817,2.817,0,0,1-2.82-2.82h0a2.817,2.817,0,0,1,2.82-2.82h22.54a2.817,2.817,0,0,1,2.82,2.82h0A2.823,2.823,0,0,1,676.84,207.66Z"/><path class="y" d="M676.84,220.14H654.3a2.817,2.817,0,0,1-2.82-2.82h0a2.817,2.817,0,0,1,2.82-2.82h22.54a2.817,2.817,0,0,1,2.82,2.82h0A2.823,2.823,0,0,1,676.84,220.14Z"/><path class="y" d="M640.07,230a2.82,2.82,0,1,1-2.82-2.82A2.817,2.817,0,0,1,640.07,230Z"/><path class="y" d="M676.84,232.82H654.3a2.817,2.817,0,0,1-2.82-2.82h0a2.817,2.817,0,0,1,2.82-2.82h22.54a2.817,2.817,0,0,1,2.82,2.82h0A2.823,2.823,0,0,1,676.84,232.82Z"/></g><path class="x" d="M215.21,218.58H160.26a3.82,3.82,0,0,1-3.82-3.82V132.44a3.82,3.82,0,0,1,3.82-3.82h54.95a3.82,3.82,0,0,1,3.82,3.82v82.32A3.82,3.82,0,0,1,215.21,218.58Z"/><path class="ac" d="M211.72,215.9H156.77a4.639,4.639,0,0,1-4.63-4.63V128.95a4.639,4.639,0,0,1,4.63-4.63h54.95a4.639,4.639,0,0,1,4.63,4.63v82.32A4.639,4.639,0,0,1,211.72,215.9Zm-54.95-89.97a3.024,3.024,0,0,0-3.02,3.02v82.32a3.024,3.024,0,0,0,3.02,3.02h54.95a3.024,3.024,0,0,0,3.02-3.02V128.95a3.024,3.024,0,0,0-3.02-3.02H156.77Z"/><path class="ag" d="M184.78,165.64l-.79.7a1.2,1.2,0,0,1-1.7-.1l-8.06-9.08,2.59-2.3,8.06,9.08A1.194,1.194,0,0,1,184.78,165.64Z"/><path class="ag" d="M171.42,140.49a9.26,9.26,0,1,0,9.26,9.26A9.265,9.265,0,0,0,171.42,140.49Zm0,15.57a6.31,6.31,0,1,1,6.31-6.31A6.31,6.31,0,0,1,171.42,156.06Z"/><path class="y" d="M208.93,145.59H194.3a1.677,1.677,0,0,1-1.68-1.68h0a1.677,1.677,0,0,1,1.68-1.68h14.63a1.677,1.677,0,0,1,1.68,1.68h0A1.684,1.684,0,0,1,208.93,145.59Z"/><path class="y" d="M208.93,154.31H194.3a1.677,1.677,0,0,1-1.68-1.68h0a1.677,1.677,0,0,1,1.68-1.68h14.63a1.677,1.677,0,0,1,1.68,1.68h0A1.677,1.677,0,0,1,208.93,154.31Z"/><path class="y" d="M208.93,162.36H194.3a1.677,1.677,0,0,1-1.68-1.68h0A1.677,1.677,0,0,1,194.3,159h14.63a1.677,1.677,0,0,1,1.68,1.68h0A1.677,1.677,0,0,1,208.93,162.36Z"/><path class="y" d="M190.72,184.77H168.18a1.91,1.91,0,0,1-1.91-1.91h0a1.91,1.91,0,0,1,1.91-1.91h22.54a1.91,1.91,0,0,1,1.91,1.91h0A1.916,1.916,0,0,1,190.72,184.77Z"/><path class="y" d="M190.72,196.74H168.18a1.91,1.91,0,0,1-1.91-1.91h0a1.91,1.91,0,0,1,1.91-1.91h22.54a1.91,1.91,0,0,1,1.91,1.91h0A1.91,1.91,0,0,1,190.72,196.74Z"/><path class="y" d="M190.72,208.72H168.18a1.91,1.91,0,0,1-1.91-1.91h0a1.91,1.91,0,0,1,1.91-1.91h22.54a1.91,1.91,0,0,1,1.91,1.91h0A1.916,1.916,0,0,1,190.72,208.72Z"/><path class="y" d="M208.38,182.86a3.07,3.07,0,1,1-3.07-3.07A3.064,3.064,0,0,1,208.38,182.86Z"/><path class="y" d="M208.38,194.83a3.07,3.07,0,1,1-3.07-3.07A3.064,3.064,0,0,1,208.38,194.83Z"/><path class="y" d="M208.38,206.81a3.07,3.07,0,1,1-3.07-3.07A3.064,3.064,0,0,1,208.38,206.81Z"/><path class="ai" d="M483.7,219.84H383.06a6.636,6.636,0,0,1-6.64-6.64V146.37a6.636,6.636,0,0,1,6.64-6.64H483.7a6.636,6.636,0,0,1,6.64,6.64V213.2A6.636,6.636,0,0,1,483.7,219.84Z"/><path class="aj" d="M487.19,216.96H386.55a7.456,7.456,0,0,1-7.45-7.45V142.68a7.456,7.456,0,0,1,7.45-7.45H487.19a7.456,7.456,0,0,1,7.45,7.45v66.83A7.462,7.462,0,0,1,487.19,216.96ZM386.55,136.85a5.847,5.847,0,0,0-5.84,5.84v66.83a5.847,5.847,0,0,0,5.84,5.84H487.19a5.847,5.847,0,0,0,5.84-5.84V142.69a5.847,5.847,0,0,0-5.84-5.84Z"/><path class="ak" d="M446.46,156.04H390.7a2.923,2.923,0,0,1-2.92-2.92h0a2.923,2.923,0,0,1,2.92-2.92h55.76a2.923,2.923,0,0,1,2.92,2.92h0A2.923,2.923,0,0,1,446.46,156.04Z"/><path class="al" d="M447.32,198.91H389.85a2.057,2.057,0,0,1-2.06-2.06V168.37a2.057,2.057,0,0,1,2.06-2.06h57.47a2.057,2.057,0,0,1,2.06,2.06v28.48A2.063,2.063,0,0,1,447.32,198.91Z"/><path class="ak" d="M476.05,156.04H459.54a2.923,2.923,0,0,1-2.92-2.92h0a2.923,2.923,0,0,1,2.92-2.92h16.51a2.923,2.923,0,0,1,2.92,2.92h0A2.923,2.923,0,0,1,476.05,156.04Z"/><path class="ak" d="M477.16,171.53H459.82a1.81,1.81,0,0,1-1.81-1.81h0a1.81,1.81,0,0,1,1.81-1.81h17.34a1.81,1.81,0,0,1,1.81,1.81h0A1.81,1.81,0,0,1,477.16,171.53Z"/><path class="ak" d="M477.16,179.72H459.82a1.81,1.81,0,0,1-1.81-1.81h0a1.81,1.81,0,0,1,1.81-1.81h17.34a1.81,1.81,0,0,1,1.81,1.81h0A1.81,1.81,0,0,1,477.16,179.72Z"/><path class="ak" d="M477.16,187.9H459.82a1.81,1.81,0,0,1-1.81-1.81h0a1.81,1.81,0,0,1,1.81-1.81h17.34a1.81,1.81,0,0,1,1.81,1.81h0A1.81,1.81,0,0,1,477.16,187.9Z"/><path class="ak" d="M477.16,196.09H459.82a1.81,1.81,0,0,1-1.81-1.81h0a1.81,1.81,0,0,1,1.81-1.81h17.34a1.81,1.81,0,0,1,1.81,1.81h0A1.81,1.81,0,0,1,477.16,196.09Z"/><path class="ak" d="M465.38,211.66H401.17a2.422,2.422,0,0,1-2.42-2.42h0a2.422,2.422,0,0,1,2.42-2.42h64.21a2.422,2.422,0,0,1,2.42,2.42h0A2.422,2.422,0,0,1,465.38,211.66Z"/><path class="x" d="M160.7,301.83H65.43a5.371,5.371,0,0,1-5.37-5.37v-57.7a5.371,5.371,0,0,1,5.37-5.37H160.7a5.371,5.371,0,0,1,5.37,5.37v57.7A5.371,5.371,0,0,1,160.7,301.83Z"/><path class="ac" d="M156.8,298.67H61.52a6.18,6.18,0,0,1-6.17-6.17V234.8a6.18,6.18,0,0,1,6.17-6.17h95.27a6.18,6.18,0,0,1,6.17,6.17v57.7A6.165,6.165,0,0,1,156.8,298.67ZM61.52,230.24a4.564,4.564,0,0,0-4.56,4.56v57.7a4.564,4.564,0,0,0,4.56,4.56h95.27a4.564,4.564,0,0,0,4.56-4.56V234.8a4.564,4.564,0,0,0-4.56-4.56Z"/><g class="af"><path class="ag" d="M98.21,264.98a13.658,13.658,0,1,1-9.66-23.31,13.774,13.774,0,0,1,4.38.72l-4.38,12.95Z"/><path class="ah" d="M104.02,254.28a11.523,11.523,0,0,1-3.4,8.19l-8.2-8.19,3.72-10.99A11.605,11.605,0,0,1,104.02,254.28Z"/><path class="y" d="M150.17,269.8h-31.4V243.29a.81.81,0,1,1,1.62,0v24.9h29.79a.807.807,0,0,1,.81.81A.833.833,0,0,1,150.17,269.8Z"/><rect class="y" width="4.03" height="12.05" transform="translate(125.34 256.14)"/><rect class="ah" width="4.03" height="18.16" transform="translate(133.66 250.03)"/><rect class="y" width="4.03" height="9.08" transform="translate(141.85 259.11)"/><path class="y" d="M94.55,282.1H75.63a1.408,1.408,0,0,1-1.41-1.41h0a1.408,1.408,0,0,1,1.41-1.41H94.55a1.408,1.408,0,0,1,1.41,1.41h0A1.408,1.408,0,0,1,94.55,282.1Z"/><path class="y" d="M123.4,282.1H104.48a1.408,1.408,0,0,1-1.41-1.41h0a1.408,1.408,0,0,1,1.41-1.41H123.4a1.408,1.408,0,0,1,1.41,1.41h0A1.408,1.408,0,0,1,123.4,282.1Z"/><path class="y" d="M150.5,282.1H131.58a1.408,1.408,0,0,1-1.41-1.41h0a1.408,1.408,0,0,1,1.41-1.41H150.5a1.408,1.408,0,0,1,1.41,1.41h0A1.408,1.408,0,0,1,150.5,282.1Z"/><path class="y" d="M106.96,292.16H88.04a1.408,1.408,0,0,1-1.41-1.41h0a1.408,1.408,0,0,1,1.41-1.41h18.92a1.408,1.408,0,0,1,1.41,1.41h0A1.408,1.408,0,0,1,106.96,292.16Z"/><path class="y" d="M134.07,292.16H115.15a1.408,1.408,0,0,1-1.41-1.41h0a1.408,1.408,0,0,1,1.41-1.41h18.92a1.408,1.408,0,0,1,1.41,1.41h0A1.408,1.408,0,0,1,134.07,292.16Z"/></g></g></svg>